<?xml version="1.0" encoding="utf-8"?>
<!-- Generator: Adobe Illustrator 17.0.0, SVG Export Plug-In . SVG Version: 6.00 Build 0)  -->
<!DOCTYPE svg PUBLIC "-//W3C//DTD SVG 1.1//EN" "http://www.w3.org/Graphics/SVG/1.1/DTD/svg11.dtd">
<svg version="1.1" id="Layer_1" xmlns="http://www.w3.org/2000/svg" xmlns:xlink="http://www.w3.org/1999/xlink" x="0px" y="0px"
	 width="800px" height="1044.819px" viewBox="0 0 800 1044.819" enable-background="new 0 0 800 1044.819" xml:space="preserve">
<path opacity="0.1" fill="#FFFFFF" enable-background="new    " d="M181.461,767.797c-0.201-1.132-0.312-2.298-0.312-3.491
	c0-11.379,9.249-20.615,20.622-20.615c0.543,0,1.079,0.029,1.611,0.073c1.72-0.96,3.611-1.646,5.614-2.003
	c5.376-8.053,13.649-14.013,23.293-16.493c-0.495-1.924-0.766-3.929-0.766-6.035c0-13.782,11.142-24.945,24.941-24.945
	c0.699,0,1.346,0.029,2.031,0.132c6.226-13.92,20.126-23.615,36.316-23.615c2.213,0,4.38,0.189,6.492,0.535
	c-15.151-16.32-36.776-26.543-60.803-26.543c-20.038,0-38.417,7.102-52.76,18.925c-9.199-7.466-20.92-11.946-33.691-11.946
	c-27.72,0-50.516,21.078-53.238,48.08c-0.767-0.033-1.537-0.058-2.312-0.058c-29.553,0-53.511,23.958-53.511,53.511
	c0,5.024,0.707,9.879,2.002,14.489h134.471V767.797z"/>
<path opacity="0.1" fill="#FFFFFF" enable-background="new    " d="M774.178,717.797c3.826-6.042,6.045-13.201,6.045-20.883
	c0-19.898-14.861-36.315-34.088-38.784c-8.834-36.343-41.574-63.333-80.635-63.333c-20.038,0-38.417,7.102-52.76,18.925
	c-9.199-7.466-20.92-11.946-33.691-11.946c-27.72,0-50.516,21.078-53.238,48.08c-0.767-0.033-1.537-0.058-2.312-0.058
	c-29.553,0-53.511,23.958-53.511,53.511c0,5.024,0.707,9.879,2.002,14.489h302.188V717.797z"/>
<path opacity="0.1" fill="#FFFFFF" enable-background="new    " d="M424.653,640.797c2.813-4.442,4.445-9.707,4.445-15.355
	c0-14.631-10.927-26.701-25.064-28.517c-6.496-26.722-30.569-46.567-59.289-46.567c-14.734,0-28.248,5.222-38.793,13.915
	c-6.764-5.489-15.382-8.784-24.772-8.784c-20.382,0-37.143,15.498-39.144,35.352c-0.564-0.024-1.13-0.043-1.7-0.043
	c-21.73,0-39.345,17.615-39.345,39.345c0,3.694,0.52,7.264,1.472,10.654C202.463,640.797,424.653,640.797,424.653,640.797z"/>
<path opacity="0.06" fill="none" stroke="#2F1915" stroke-width="2.8346" stroke-linecap="round" stroke-linejoin="round" stroke-miterlimit="10" enable-background="new    " d="
	M799.883,1034.995l-124.191,0l0,0c-1.37-0.355-3.446-0.719-6.622-0.973c-0.102-0.008-0.196-0.02-0.294-0.029
	c-0.463-0.065-0.922-0.127-1.374-0.182c-6.619-1.178-5.865-5.76-5.865-5.76s-0.033,0.001-0.092,0.002
	c0.155-5.634,0.061-14.773-1.28-26.234c1.617-1.72,4.13-4.024,7.141-5.531c0.964-0.482,2.229-1.27,3.662-2.279
	c-0.499,0.966-0.666,1.361,0.176-0.124c4.108-2.919,9.536-7.616,13.343-12.267c2.075-0.096,4.046-0.63,5.824-1.501
	c0.925,0.548,2.006,0.881,3.181,0.881c2.819,0,5.179-1.843,6.016-4.386c0.926,0.415,1.946,0.643,3.034,0.643
	c4.179,0,7.577-3.403,7.577-7.585c0-3.965-3.025-7.201-6.906-7.549c-0.56-2.484-2.776-4.33-5.415-4.33
	c-0.312,0-0.614,0.029-0.908,0.077c-0.289-0.053-0.587-0.083-0.893-0.083c-0.062,0-0.122,0.005-0.184,0.007
	c-0.259-1.902-1.879-3.381-3.859-3.381c-0.082,0-0.148,0.016-0.208,0.016c-0.19-4.02-3.49-7.228-7.567-7.228
	c-3.082,0-5.737,1.849-6.918,4.495c-0.135-0.018-0.261-0.018-0.388-0.018c-2.619,0-4.747,2.122-4.747,4.744
	c0,0.409,0.06,0.788,0.141,1.167c-1.847,0.465-3.413,1.602-4.45,3.139c-0.368,0.068-0.716,0.192-1.033,0.367
	c-0.105-0.011-0.212-0.018-0.319-0.018c-2.167,0-3.929,1.762-3.929,3.938c0,0.427,0.076,0.839,0.204,1.245
	c-0.806,1.203-1.289,2.657-1.289,4.239c0,4.179,3.382,7.564,7.569,7.564c1.485,0,2.854-0.421,4.026-1.148
	c1.01,1.097,2.191,2.041,3.5,2.791c-0.361,3.024-1.186,6.267-2.787,9.415c-3.75,2.563-8.447,5.104-14.299,7.295
	c-0.734-5.109-1.715-10.596-3.019-16.375c-4.139-18.368-4.5-26.391-4.084-29.889c2.511-0.646,4.92-1.545,7.196-2.669
	c2.363,1.392,5.102,2.213,8.027,2.213c7.08,0,13.042-4.639,15.077-11.017c2.344,1.035,4.918,1.612,7.633,1.612
	c10.516,0,19.034-8.543,19.034-19.036c0-9.944-7.621-18.096-17.326-18.952c-1.44-6.214-6.976-10.874-13.641-10.874
	c-0.739,0-1.464,0.064-2.173,0.178c-0.761-0.148-1.545-0.232-2.349-0.232c-0.135,0-0.27,0.005-0.404,0.01
	c-0.696-4.775-4.779-8.446-9.743-8.446c-0.183,0-0.342,0.029-0.508,0.029c-0.484-10.102-8.77-18.134-19.007-18.134
	c-7.742,0-14.389,4.636-17.366,11.292c-0.327-0.049-0.637-0.063-0.971-0.063c-6.599,0-11.926,5.338-11.926,11.928
	c0,1.007,0.129,1.966,0.366,2.886c-4.614,1.186-8.572,4.039-11.143,7.893c-0.955,0.171-1.857,0.494-2.677,0.952
	c-0.255-0.021-0.513-0.035-0.774-0.035c-5.439,0-9.861,4.416-9.861,9.858c0,1.09,0.184,2.138,0.52,3.103
	c-0.202,0.298-0.393,0.603-0.578,0.912c-0.603-0.419-1.333-0.666-2.123-0.666c-0.094,0-0.187,0.005-0.279,0.013
	c-0.314-0.176-0.659-0.302-1.026-0.369c-0.999-1.479-2.5-2.562-4.279-3.013c0.085-0.346,0.155-0.717,0.155-1.125
	c0-2.489-2.055-4.546-4.602-4.546c-0.101,0-0.21,0-0.338,0.01c-1.154-2.537-3.691-4.318-6.659-4.318
	c-3.891,0-7.083,3.079-7.254,6.936c-0.105,0-0.143-0.01-0.143-0.01c-1.981,0-3.55,1.429-3.816,3.247
	c-0.048-0.002-0.096-0.007-0.145-0.007c-0.315,0-0.62,0.034-0.917,0.093c-0.267-0.04-0.537-0.065-0.814-0.065
	c-2.556,0-4.675,1.787-5.216,4.152c-3.744,0.343-6.635,3.473-6.635,7.269c0,4.029,3.253,7.263,7.29,7.263
	c1.037,0,2.005-0.194,2.909-0.593c0.266,0.824,0.708,1.568,1.276,2.196c-5.151,3.064-12.709,6.33-23.148,8.055
	c6.586-15.285,15.498-29.652,20.626-42.155c8.637-3.231,16.297-8.463,22.403-15.139c4.659,2.923,10.137,4.648,16.019,4.648
	c16.616,0,30.099-13.501,30.099-30.099c0-6.212-1.901-12.009-5.173-16.833c0.532-1.525,0.822-3.18,0.822-4.903
	c0-8.598-6.988-15.576-15.582-15.576c-0.41,0-0.815,0.022-1.217,0.055c-1.299-0.725-2.728-1.243-4.242-1.513
	c-4.062-6.084-10.313-10.588-17.6-12.462c0.374-1.453,0.579-2.969,0.579-4.56c0-10.413-8.418-18.848-18.845-18.848
	c-0.528,0-1.018,0.021-1.535,0.099c-4.704-10.518-15.206-17.843-27.439-17.843c-16.175,0-29.267,12.691-30.032,28.653
	c-0.261,0-0.513-0.045-0.802-0.045c-7.843,0-14.294,5.8-15.394,13.345c-0.213-0.007-0.425-0.015-0.639-0.015
	c-1.277,0-2.524,0.128-3.732,0.363c-1.113-0.178-2.252-0.278-3.412-0.278c-10.532,0-19.278,7.364-21.554,17.183
	c-15.334,1.352-27.376,14.232-27.376,29.945c0,16.579,13.458,30.078,30.075,30.078c4.289,0,8.357-0.91,12.061-2.546
	c3.216,10.078,12.637,17.408,23.824,17.408c4.622,0,8.951-1.296,12.684-3.496c3.596,1.775,7.403,3.196,11.37,4.216
	c0.658,5.527,0.088,18.203-6.453,47.227c-2.061,9.132-3.611,17.801-4.771,25.874c-9.252-3.465-16.678-7.483-22.605-11.535
	c-2.526-4.971-3.826-10.093-4.396-14.867c2.07-1.185,3.938-2.677,5.534-4.412c1.852,1.149,4.015,1.815,6.362,1.815
	c6.616,0,11.96-5.35,11.96-11.953c0-2.499-0.764-4.798-2.037-6.698c0.203-0.642,0.323-1.293,0.323-1.967
	c0-3.439-2.785-6.223-6.209-6.223c-0.17,0-0.338,0.012-0.504,0.029c-0.498-0.274-1.044-0.47-1.622-0.578
	c-1.639-2.432-4.121-4.226-7.041-4.962c0.127-0.598,0.222-1.197,0.222-1.843c0-4.143-3.362-7.496-7.5-7.496
	c-0.201,0-0.4,0-0.613,0.028c-1.867-4.181-6.061-7.103-10.932-7.103c-6.442,0-11.658,5.069-11.957,11.421
	c-0.095,0-0.199-0.025-0.328-0.025c-3.129,0-5.688,2.336-6.098,5.342c-0.097-0.003-0.192-0.012-0.291-0.012
	c-0.482,0-0.953,0.046-1.41,0.13c-0.466-0.076-0.942-0.121-1.435-0.121c-4.171,0-7.672,2.917-8.557,6.841
	c-6.132,0.55-10.911,5.662-10.911,11.928c0,6.608,5.369,11.985,11.972,11.985c1.719,0,3.33-0.361,4.793-1.017
	c1.321,4.019,5.05,6.931,9.505,6.931c1.858,0,3.565-0.527,5.027-1.392c2.808,1.376,5.92,2.22,9.197,2.372
	c6.014,7.35,14.598,14.772,21.089,19.384c1.329,2.344,1.067,1.722,0.279,0.197c2.264,1.595,4.261,2.838,5.785,3.6
	c4.758,2.381,8.729,6.023,11.284,8.74c-2.119,18.11-2.268,32.549-2.022,41.452c-0.093-0.002-0.145-0.003-0.145-0.003
	s1.191,7.239-9.268,9.101c-0.715,0.087-1.44,0.185-2.171,0.288c-0.156,0.015-0.305,0.033-0.466,0.045
	c-6.974,0.557-10.63,1.451-12.532,2.176c-0.112,0-0.227,0-0.351,0c-6.485-0.049-28.393,0.085-38.191,2.535h-23.752
	c-0.223-0.204-0.522-0.411-0.923-0.623c-8.946-4.709-45.136-4.948-54.899-4.874c-0.164,0-0.316,0-0.465,0
	c-2.517-0.958-7.356-2.142-16.586-2.879c-0.213-0.016-0.409-0.041-0.616-0.06c-0.967-0.137-1.927-0.266-2.873-0.381
	c-13.842-2.463-12.266-12.045-12.266-12.045s-0.069,0.001-0.192,0.004c0.325-11.782,0.128-30.893-2.677-54.861
	c3.381-3.596,8.637-8.416,14.934-11.567c2.017-1.008,4.66-2.653,7.656-4.764c-1.042,2.018-1.39,2.841,0.37-0.261
	c8.591-6.104,19.951-15.927,27.911-25.655c4.336-0.202,8.455-1.318,12.172-3.14c1.935,1.145,4.194,1.842,6.653,1.842
	c5.896,0,10.831-3.853,12.58-9.173c1.937,0.867,4.069,1.345,6.344,1.345c8.739,0,15.844-7.117,15.844-15.863
	c0-8.292-6.326-15.058-14.441-15.787c-1.171-5.194-5.804-9.054-11.325-9.054c-0.653,0-1.283,0.06-1.899,0.16
	c-0.605-0.111-1.228-0.173-1.867-0.173c-0.13,0-0.256,0.011-0.385,0.016c-0.542-3.978-3.93-7.07-8.07-7.07
	c-0.172,0-0.309,0.033-0.435,0.033c-0.396-8.407-7.299-15.116-15.825-15.116c-6.446,0-11.997,3.867-14.468,9.401
	c-0.282-0.038-0.545-0.038-0.812-0.038c-5.476,0-9.926,4.438-9.926,9.921c0,0.855,0.126,1.648,0.294,2.44
	c-3.866,0.973-7.15,3.348-9.319,6.567c-0.765,0.143-1.487,0.402-2.147,0.765c-0.22-0.022-0.443-0.038-0.667-0.038
	c-4.531,0-8.217,3.684-8.217,8.236c0,0.892,0.158,1.754,0.427,2.603c-1.685,2.515-2.697,5.557-2.697,8.865
	c0,8.739,7.073,15.819,15.829,15.819c3.106,0,5.968-0.881,8.419-2.402c2.113,2.296,4.585,4.27,7.324,5.839
	c-0.754,6.319-2.475,13.097-5.818,19.677c-7.845,5.363-17.673,10.68-29.917,15.266c-1.535-10.684-3.587-22.158-6.314-34.243
	c-8.656-38.412-9.411-55.189-8.54-62.504c5.25-1.35,10.289-3.231,15.048-5.58c4.941,2.912,10.67,4.627,16.787,4.627
	c14.805,0,27.274-9.701,31.53-23.039c4.902,2.165,10.285,3.37,15.962,3.37c21.991,0,39.803-17.865,39.803-39.808
	c0-20.795-15.937-37.843-36.231-39.632c-3.012-12.995-14.587-22.741-28.526-22.741c-1.536,0-3.044,0.132-4.516,0.368
	c-1.599-0.312-3.249-0.481-4.94-0.481c-0.283,0-0.564,0.01-0.846,0.02c-1.456-9.985-9.993-17.662-20.374-17.662
	c-0.383,0-0.716,0.06-1.061,0.06c-1.013-21.125-18.34-37.921-39.747-37.921c-16.19,0-30.09,9.695-36.316,23.615
	c-0.685-0.103-1.332-0.132-2.031-0.132c-13.799,0-24.941,11.163-24.941,24.945c0,2.106,0.271,4.111,0.766,6.035
	c-9.644,2.48-17.917,8.44-23.293,16.493c-2.003,0.357-3.894,1.043-5.614,2.003c-0.532-0.044-1.068-0.073-1.611-0.073
	c-11.373,0-20.622,9.236-20.622,20.615c0,2.28,0.384,4.47,1.088,6.489c-4.33,6.385-6.846,14.057-6.846,22.279
	c0,21.968,17.844,39.836,39.836,39.836c7.784,0,15.034-2.283,21.2-6.152c8.082,8.837,18.22,15.76,29.651,20.037
	c6.787,16.548,18.583,35.562,27.299,55.792c-13.815-2.284-23.818-6.606-30.636-10.661c0.752-0.831,1.336-1.816,1.689-2.906
	c1.196,0.528,2.478,0.785,3.85,0.785c5.343,0,9.648-4.281,9.648-9.613c0-5.024-3.826-9.166-8.782-9.62
	c-0.716-3.13-3.52-5.495-6.903-5.495c-0.366,0-0.724,0.032-1.077,0.086c-0.392-0.078-0.797-0.123-1.213-0.123
	c-0.064,0-0.128,0.007-0.192,0.009c-0.352-2.405-2.429-4.297-5.051-4.297c0,0-0.05,0.013-0.189,0.013
	c-0.226-5.105-4.451-9.179-9.601-9.179c-3.928,0-7.286,2.357-8.813,5.715c-0.17-0.013-0.315-0.013-0.448-0.013
	c-3.371,0-6.091,2.722-6.091,6.017c0,0.54,0.093,1.031,0.205,1.49c-2.356,0.597-4.342,2.03-5.664,3.987
	c-0.485,0.089-0.942,0.256-1.358,0.489c-0.121-0.011-0.244-0.018-0.369-0.018c-1.045,0-2.012,0.328-2.81,0.882
	c-0.245-0.409-0.498-0.813-0.765-1.207c0.445-1.278,0.689-2.664,0.689-4.107c0-7.202-5.853-13.047-13.051-13.047
	c-0.345,0-0.686,0.018-1.024,0.047c-1.085-0.605-2.279-1.033-3.542-1.259c-3.402-5.101-8.641-8.876-14.747-10.446
	c0.313-1.217,0.485-2.486,0.485-3.819c0-8.722-7.051-15.787-15.784-15.787c-0.443,0-0.852,0.018-1.286,0.083
	c-3.94-8.81-12.737-14.945-22.983-14.945c-13.548,0-24.514,10.63-25.155,23.999c-0.219,0-0.429-0.038-0.672-0.038
	c-6.57,0-11.973,4.858-12.894,11.178c-0.178-0.006-0.356-0.013-0.535-0.013c-1.065,0-2.102,0.112-3.109,0.307
	c-0.937-0.151-1.898-0.236-2.875-0.236c-8.821,0-16.147,6.168-18.053,14.392c-12.844,1.132-22.93,11.921-22.93,25.082
	c0,13.887,11.273,25.193,25.191,25.193c3.593,0,7-0.763,10.102-2.133c2.694,8.441,10.585,14.581,19.955,14.581
	c3.872,0,7.497-1.086,10.624-2.929c3.012,1.487,6.201,2.677,9.523,3.532c0.551,4.63,0.074,15.247-5.405,39.557
	c-1.726,7.649-3.024,14.91-3.996,21.672c-7.744-2.901-13.961-6.263-18.924-9.655c-2.119-4.167-3.212-8.459-3.689-12.461
	c1.732-0.992,3.296-2.241,4.633-3.694c1.551,0.962,3.363,1.52,5.328,1.52c5.542,0,10.018-4.481,10.018-10.011
	c0-2.093-0.64-4.019-1.707-5.61c0.17-0.537,0.27-1.083,0.27-1.648c0-2.88-2.333-5.212-5.2-5.212c-0.142,0-0.283,0.01-0.422,0.024
	c-0.42-0.231-0.88-0.395-1.367-0.485c-1.373-2.035-3.445-3.539-5.89-4.155c0.107-0.501,0.186-1.003,0.186-1.544
	c0-3.47-2.816-6.279-6.282-6.279c-0.168,0-0.335,0-0.514,0.024c-1.563-3.502-5.077-5.949-9.156-5.949
	c-5.396,0-9.764,4.246-10.015,9.567c-0.08,0-0.167-0.021-0.275-0.021c-2.621,0-4.764,1.957-5.108,4.474
	c-0.081-0.003-0.161-0.01-0.243-0.01c-0.404,0-0.798,0.039-1.181,0.109c-0.39-0.064-0.789-0.101-1.202-0.101
	c-3.494,0-6.426,2.443-7.167,5.73c-5.136,0.461-9.139,4.743-9.139,9.991c0,5.535,4.497,10.039,10.027,10.039
	c1.44,0,2.789-0.303,4.015-0.852c1.107,3.367,4.23,5.805,7.961,5.805c1.556,0,2.986-0.441,4.21-1.166
	c2.354,1.154,4.962,1.86,7.708,1.987c5.038,6.156,12.222,12.373,17.659,16.236c1.114,1.965,0.894,1.443,0.233,0.164
	c1.896,1.336,3.57,2.379,4.846,3.017c3.985,1.995,7.311,5.045,9.451,7.321c-1.775,15.169-1.9,27.263-1.694,34.72
	c-0.078-0.002-0.121-0.003-0.121-0.003s0.997,6.064-7.763,7.623c-0.599,0.073-1.207,0.155-1.819,0.241
	c-0.131,0.012-0.255,0.028-0.39,0.038c-5.841,0.466-8.903,1.216-10.497,1.822c-0.094,0-0.19,0-0.294,0
	c-4.933-0.037-20.519,0.053-29.488,1.607H0 M678.318,980.562c1.305,0.53,2.703,0.877,4.161,1.01
	c-1.242,1.385-2.761,2.887-4.602,4.431C677.991,985.059,678.212,983.021,678.318,980.562z M472.39,947.409
	c2.304-0.21,4.513-0.759,6.575-1.596c0.166,3.875,0.515,7.1,0.697,8.598C476.752,951.971,474.352,949.598,472.39,947.409z
	 M604.19,1004.481c0.763-0.102,1.471-0.358,2.116-0.74c0.807,0.405,1.666,0.726,2.563,0.959c0.152,1.246,0.031,4.104-1.435,10.655
	c-0.466,2.063-0.817,4.021-1.081,5.845c-2.101-0.79-3.788-1.704-5.13-2.626c-0.561-1.12-0.852-2.27-0.979-3.343
	c0.465-0.268,0.885-0.605,1.245-0.995c0.409,0.256,0.911,0.412,1.453,0.412c1.478,0,2.681-1.215,2.681-2.697
	c0-0.566-0.17-1.085-0.448-1.513c0.051-0.132,0.064-0.285,0.064-0.451c0-0.751-0.622-1.395-1.404-1.395
	c-0.038,0-0.077,0.006-0.116,0.009c-0.114-0.063-0.237-0.112-0.369-0.137c-0.377-0.547-0.935-0.948-1.589-1.102
	c0.052-0.156,0.059-0.292,0.059-0.424c0-0.104-0.013-0.205-0.031-0.304C602.588,1005.968,603.403,1005.241,604.19,1004.481z
	 M603.738,980.914c0.915-0.964,1.621-2.13,2.037-3.431c0.065,0.029,0.133,0.054,0.199,0.082c-0.563,0.934-0.911,2.013-0.966,3.17
	c0,0-0.108,0-0.165,0C604.456,980.735,604.085,980.8,603.738,980.914z M605.628,1032.354c-1.056-0.139-2.099-0.277-3.127-0.414
	c-0.701-0.256-1.999-0.559-4.388-0.744c-4.742-0.37-4.248-3.368-4.248-3.368s-0.019,0-0.048,0.001
	c0.07-2.759,0.031-7.008-0.479-12.307c0.266,0.112,0.554,0.181,0.862,0.181c0.421,0,0.805-0.135,1.136-0.322
	c0.621,0.306,1.337,0.497,2.073,0.533c1.355,1.65,3.286,3.321,4.75,4.363c0.311,0.545,0.255,0.405,0.077,0.055
	c0.51,0.359,0.959,0.64,1.302,0.812c1.085,0.534,1.987,1.368,2.561,1.985C605.627,1027.134,605.581,1030.339,605.628,1032.354z
	 M597.522,1003.659c-1.444,0-2.633,1.134-2.706,2.562c0,0-0.031-0.003-0.058-0.003c-0.714,0-1.276,0.522-1.378,1.195
	c-0.022-0.001-0.042-0.007-0.065-0.007c-0.135,0-0.263,0.02-0.389,0.049c-0.081-0.007-0.161-0.016-0.249-0.016
	c-0.137,0-0.27,0.017-0.399,0.043c-0.356-2.137-0.787-4.372-1.312-6.693c-0.116-0.518-0.226-1.02-0.332-1.51
	c1.22,1.183,2.878,1.915,4.709,1.915c0.974,0,1.897-0.228,2.718-0.589c0.533,1.666,1.809,2.987,3.436,3.581
	c-0.153,0.431-0.328,0.863-0.528,1.292c-0.252-0.146-0.541-0.235-0.853-0.235c-0.035,0-0.086,0-0.126,0.009
	C599.569,1004.306,598.625,1003.659,597.522,1003.659z M599.776,1017.478c-0.654-0.549-1.193-1.083-1.635-1.575
	c0.519-0.049,1.014-0.178,1.478-0.37C599.656,1016.408,599.734,1017.135,599.776,1017.478z M601.344,983.754
	c-0.045-0.001-0.088-0.006-0.134-0.006c-0.291,0-0.574,0.031-0.848,0.085c-0.246-0.039-0.5-0.064-0.77-0.064
	c-2.371,0-4.335,1.65-4.849,3.86c-2.469,0.217-4.558,1.778-5.555,3.933c-0.619-4.103-0.641-6.365-0.49-7.61
	c1.417-0.367,2.776-0.875,4.05-1.515c1.348,0.798,2.87,1.249,4.536,1.249c1.659,0,3.207-0.456,4.535-1.244
	C601.582,982.836,601.416,983.279,601.344,983.754z M641.018,1032.196c-1.09,0.938-2.489,1.451-4.099,1.717
	c-5.684-0.48-15.201-0.315-20.957-0.277c-1.129-0.128-2.249-0.261-3.361-0.396c-0.987-2.42-2.726-7.482-2.431-12.519
	c0.125-2.036,0.701-4.049,1.48-6.003c0.155-0.041,0.313-0.079,0.474-0.107c1.101-0.19,3.611-1.156,5.49-2.352
	c0.197,0.11,0.421,0.175,0.659,0.175c0.242,0,0.492-0.076,0.696-0.196c0.428,0.214,0.905,0.328,1.398,0.328
	c0.92,0,1.761-0.385,2.348-1.017c0.25,0.15,0.539,0.247,0.848,0.247c0.923,0,1.663-0.74,1.663-1.645
	c0-0.337-0.109-0.665-0.286-0.917c0.033-0.093,0.05-0.175,0.05-0.271c0-0.469-0.379-0.854-0.866-0.854
	c-0.02,0-0.043,0.004-0.066,0.006c-0.066-0.035-0.136-0.062-0.211-0.076c-0.234-0.337-0.569-0.587-0.982-0.678
	c0.03-0.093,0.03-0.177,0.03-0.268c0-0.565-0.448-1.034-1.019-1.034c0,0-0.061,0-0.078,0.018c-0.268-0.59-0.839-0.977-1.504-0.977
	c-0.884,0-1.608,0.701-1.635,1.563h-0.052c-0.434,0-0.778,0.315-0.836,0.734c-0.013,0-0.026-0.004-0.039-0.004
	c-0.076,0-0.149,0.01-0.22,0.025c-0.058-0.01-0.117-0.019-0.176-0.019c-0.574,0-1.065,0.403-1.176,0.935
	c-0.844,0.078-1.497,0.779-1.497,1.627c0,0.92,0.737,1.66,1.638,1.66c0.241,0,0.461-0.066,0.662-0.139
	c0.062,0.182,0.164,0.346,0.291,0.487c-1.162,0.691-2.866,1.428-5.221,1.82c1.493-3.45,3.509-6.691,4.661-9.514
	c1.942-0.734,3.671-1.914,5.053-3.406c1.031,0.649,2.284,1.046,3.599,1.046c3.749,0,6.807-3.043,6.807-6.789
	c0-1.419-0.44-2.721-1.17-3.806c0.115-0.337,0.193-0.709,0.193-1.1c0-1.942-1.585-3.515-3.533-3.515
	c-0.093,0-0.179,0.01-0.268,0.016c-0.292-0.162-0.612-0.278-0.951-0.339c-0.926-1.374-2.329-2.399-3.975-2.806
	c0.078-0.343,0.114-0.698,0.114-1.052c0-2.333-1.891-4.239-4.239-4.239c-0.114,0-0.229,0-0.352,0.018
	c-0.346-0.782-0.837-1.483-1.435-2.074c1.379-1.049,2.496-2.424,3.239-4.008c0.108,0.004,0.216,0.009,0.325,0.009
	c1.417,0,2.754-0.321,3.939-0.914c0.58,0.325,1.232,0.52,1.942,0.52c0.664,0,1.287-0.169,1.832-0.464
	c5.276,3.361,12.349,6.081,15.427,6.612c0.45,0.078,0.892,0.183,1.327,0.298c2.169,5.475,3.771,11.114,4.116,16.815
	C649.635,1010.778,643.475,1026.588,641.018,1032.196z M610.864,1011.148c0,0,0.002-0.015,0.005-0.035
	c0.001-0.008,0.002-0.016,0.004-0.026c0.001-0.006,0.002-0.011,0.003-0.018c0.003-0.02,0.006-0.044,0.01-0.072
	c0.001-0.004,0.001-0.007,0.002-0.011c0.019-0.136,0.048-0.352,0.084-0.632c0.001-0.006,0.001-0.012,0.002-0.018
	c0.026-0.208,0.055-0.45,0.085-0.719c0.002-0.021,0.005-0.042,0.007-0.064c0.007-0.066,0.015-0.134,0.022-0.203
	c0.003-0.029,0.006-0.058,0.009-0.088c0.006-0.061,0.013-0.123,0.019-0.186c0.004-0.038,0.008-0.075,0.012-0.113
	c0.006-0.056,0.011-0.114,0.017-0.172c0.011-0.109,0.021-0.22,0.031-0.334c0.002-0.02,0.004-0.04,0.005-0.06
	c0.007-0.075,0.013-0.152,0.02-0.229c0.002-0.023,0.004-0.045,0.006-0.068c0.007-0.085,0.014-0.17,0.021-0.257
	c0.001-0.007,0.001-0.014,0.002-0.02c0.068-0.866,0.118-1.812,0.122-2.728c0.256,0.015,0.513,0.023,0.773,0.023
	c0.7,0,1.388-0.057,2.06-0.166c-0.879,2.095-2.092,4.727-3.082,5.931c-0.005,0.005-0.009,0.011-0.014,0.017
	C611.012,1010.991,610.938,1011.074,610.864,1011.148z M643.271,951.302c0.707,0,1.41-0.021,2.107-0.062
	c0.009,1.834,0.086,3.714,0.199,5.525c0.002,0.03,0.004,0.06,0.006,0.089c0.021,0.331,0.043,0.66,0.066,0.986
	c0,0.001,0,0.002,0,0.003c0.012,0.167,0.024,0.333,0.036,0.499c0.002,0.021,0.003,0.042,0.005,0.062
	c0.022,0.294,0.045,0.585,0.068,0.873c0.004,0.048,0.008,0.096,0.012,0.144c0.037,0.453,0.076,0.897,0.116,1.33
	c0.006,0.065,0.012,0.129,0.018,0.193c0.02,0.218,0.041,0.432,0.061,0.644c0.007,0.07,0.014,0.14,0.02,0.209
	c0.013,0.127,0.025,0.253,0.038,0.377c0.004,0.041,0.008,0.081,0.012,0.121c0.023,0.222,0.045,0.439,0.068,0.652
	c0.008,0.077,0.016,0.152,0.024,0.228c0.016,0.15,0.032,0.298,0.048,0.443c0.011,0.098,0.022,0.196,0.032,0.292
	c0.01,0.094,0.021,0.186,0.031,0.278c0.01,0.087,0.02,0.172,0.03,0.257c0.016,0.137,0.031,0.271,0.047,0.402
	c0.009,0.079,0.019,0.157,0.028,0.234c0.009,0.077,0.018,0.153,0.027,0.227c0.015,0.126,0.03,0.249,0.045,0.368
	c0.008,0.067,0.016,0.131,0.024,0.196c0.011,0.088,0.022,0.174,0.032,0.258c0.01,0.076,0.019,0.15,0.028,0.223
	c0.011,0.084,0.021,0.165,0.031,0.244c0.007,0.051,0.013,0.102,0.02,0.151c0.013,0.097,0.025,0.191,0.037,0.279
	c0.005,0.042,0.011,0.08,0.016,0.12c0.009,0.071,0.019,0.138,0.027,0.202c0.004,0.028,0.008,0.056,0.011,0.083
	c0.011,0.082,0.021,0.155,0.031,0.225c0.003,0.022,0.006,0.043,0.009,0.065c0.01,0.068,0.018,0.132,0.026,0.186
	c0.001,0.01,0.002,0.017,0.004,0.026c0.007,0.046,0.012,0.086,0.017,0.121c0.002,0.012,0.003,0.023,0.005,0.034
	c0.005,0.033,0.008,0.059,0.011,0.078c0.004,0.027,0.006,0.043,0.006,0.043c-0.092-0.092-0.185-0.191-0.279-0.293
	c-0.037-0.041-0.075-0.083-0.112-0.125c-0.057-0.064-0.115-0.131-0.173-0.199c-0.044-0.052-0.088-0.103-0.132-0.157
	c-0.053-0.064-0.106-0.132-0.16-0.199c-0.092-0.116-0.185-0.236-0.278-0.36c-0.035-0.047-0.07-0.093-0.106-0.141
	c-0.064-0.087-0.129-0.177-0.193-0.267c-0.029-0.04-0.057-0.08-0.086-0.121c-0.324-0.461-0.654-0.963-0.988-1.503
	c-0.002-0.004-0.005-0.008-0.007-0.011c-1.048-1.696-2.132-3.744-3.185-5.905c-0.004-0.008-0.008-0.016-0.012-0.025
	c-0.242-0.498-0.483-1.001-0.721-1.508c-0.028-0.059-0.056-0.118-0.083-0.178c-0.062-0.131-0.123-0.263-0.184-0.395
	c-0.047-0.1-0.093-0.2-0.139-0.3c-0.05-0.108-0.099-0.215-0.149-0.323c-0.096-0.209-0.191-0.418-0.286-0.627
	c-0.02-0.045-0.041-0.09-0.061-0.135c-0.088-0.194-0.175-0.388-0.262-0.582c-0.017-0.038-0.034-0.077-0.052-0.115
	c-0.596-1.333-1.164-2.651-1.691-3.904C639.324,951.142,641.279,951.302,643.271,951.302z M528.842,926.252
	c0.002-0.015,0.005-0.031,0.008-0.054c0.003-0.02,0.006-0.044,0.01-0.071c0.001-0.006,0.002-0.012,0.003-0.019
	c0.004-0.028,0.009-0.059,0.013-0.092c0.002-0.015,0.004-0.028,0.006-0.044c0.007-0.047,0.014-0.099,0.022-0.155
	c0.002-0.015,0.004-0.031,0.007-0.046c0.007-0.05,0.015-0.103,0.023-0.159c0.002-0.011,0.003-0.023,0.005-0.034
	c0.01-0.068,0.02-0.14,0.03-0.217c0.001-0.006,0.002-0.012,0.003-0.019c0.468-3.374,1.986-15.121,2.04-25.858
	c1.102,0.064,2.212,0.097,3.33,0.097c3.148,0,6.238-0.252,9.25-0.736c-0.834,1.982-1.732,4.067-2.675,6.177
	c-0.024,0.054-0.048,0.108-0.073,0.162c-0.141,0.314-0.282,0.629-0.425,0.944c-0.03,0.066-0.06,0.132-0.09,0.199
	c-0.152,0.335-0.305,0.67-0.459,1.005c-0.073,0.159-0.147,0.318-0.22,0.477c-0.077,0.167-0.155,0.335-0.232,0.502
	c-0.094,0.202-0.188,0.405-0.283,0.607c-0.05,0.108-0.101,0.215-0.152,0.322c-0.371,0.789-0.746,1.573-1.123,2.348
	c-0.007,0.015-0.015,0.03-0.022,0.045c-1.664,3.413-3.377,6.648-5.032,9.327c-0.004,0.006-0.007,0.012-0.011,0.018
	c-0.527,0.853-1.048,1.647-1.56,2.375c-0.045,0.064-0.091,0.129-0.136,0.192c-0.102,0.143-0.204,0.284-0.305,0.421
	c-0.057,0.078-0.114,0.152-0.171,0.228c-0.146,0.194-0.29,0.381-0.434,0.562c-0.085,0.107-0.17,0.214-0.254,0.317
	c-0.07,0.085-0.139,0.166-0.209,0.248c-0.091,0.107-0.182,0.212-0.273,0.314c-0.059,0.067-0.118,0.133-0.177,0.197
	c-0.148,0.162-0.296,0.319-0.441,0.464C528.835,926.296,528.838,926.28,528.842,926.252z M525.79,968.784
	c0.545-9.01,3.071-17.923,6.5-26.576c0.688-0.183,1.389-0.341,2.101-0.464c4.864-0.84,16.04-5.137,24.377-10.448
	c0.861,0.466,1.846,0.734,2.894,0.734c1.122,0,2.153-0.309,3.069-0.822c1.872,0.936,3.986,1.444,6.224,1.444
	c4.104,0,7.777-1.762,10.352-4.546c1.135,0.698,2.422,1.126,3.866,1.126c0.948,0,1.852-0.187,2.684-0.517
	c2.337,7.873,9.629,13.632,18.261,13.632c3.722,0,7.189-1.092,10.138-2.942c3.866,4.227,8.716,7.538,14.184,9.583
	c3.245,7.913,8.879,17.003,13.047,26.676c-6.608-1.093-11.387-3.159-14.646-5.099c0.359-0.397,0.638-0.867,0.806-1.388
	c0.572,0.252,1.185,0.375,1.841,0.375c2.555,0,4.614-2.047,4.614-4.597c0-2.402-1.83-4.383-4.199-4.6
	c-0.342-1.497-1.683-2.627-3.301-2.627c-0.177,0-0.351,0.016-0.522,0.042c-0.186-0.037-0.376-0.06-0.573-0.06
	c-0.034,0-0.068,0.004-0.102,0.005c-0.169-1.149-1.152-2.055-2.405-2.055c0,0-0.024,0.006-0.091,0.006
	c-0.108-2.441-2.129-4.389-4.591-4.389c-1.878,0-3.484,1.127-4.214,2.733c-0.081-0.006-0.151-0.006-0.214-0.006
	c-1.612,0-2.913,1.302-2.913,2.877c0,0.167,0.022,0.322,0.049,0.471c-0.646-0.186-1.316-0.313-2.005-0.374
	c-0.812-3.492-3.915-6.099-7.662-6.099c-0.427,0-0.828,0.039-1.216,0.101c-0.433-0.085-0.88-0.135-1.339-0.135
	c-0.072,0-0.14,0.008-0.211,0.01c-0.414-2.699-2.715-4.77-5.53-4.77c-0.089,0-0.26,0-0.26,0c-0.27-5.676-4.951-10.199-10.693-10.199
	c-4.38,0-8.124,2.598-9.791,6.36c-0.195-0.028-0.376-0.028-0.556-0.028c-3.71,0-6.698,3.011-6.698,6.698
	c0,0.56,0.056,1.121,0.18,1.663c-2.604,0.644-4.827,2.262-6.29,4.435c-0.527,0.096-1.025,0.275-1.479,0.526
	c-0.144-0.01-0.289-0.016-0.439-0.016c-3.079,0-5.583,2.484-5.583,5.553c0,0.618,0.124,1.206,0.305,1.739
	c-1.154,1.715-1.849,3.772-1.849,6.014c0,5.919,4.831,10.727,10.755,10.727c2.078,0,4.058-0.627,5.687-1.653
	c2.183,2.358,4.916,4.222,7.984,5.382c1.82,4.46,5.005,9.581,7.364,15.032c-3.722-0.62-6.414-1.785-8.25-2.876
	c0.201-0.223,0.362-0.482,0.46-0.77c0.318,0.115,0.666,0.219,1.047,0.219c1.423,0,2.588-1.169,2.588-2.623
	c0-1.339-1.032-2.446-2.366-2.57c-0.175-0.84-0.951-1.477-1.858-1.477c-0.094,0-0.186,0.014-0.279,0.029
	c-0.112-0.023-0.227-0.039-0.348-0.039c-0.02,0-0.041,0.005-0.061,0.006c-0.092-0.663-0.636-1.16-1.321-1.16h-0.082
	c-0.042-1.363-1.187-2.47-2.584-2.47c-1.051,0-1.954,0.613-2.377,1.544c-0.027-0.029-0.123-0.029-0.123-0.029
	c-0.903,0-1.61,0.742-1.61,1.634c0,0.143,0,0.275,0.047,0.423c-0.655,0.145-1.193,0.537-1.563,1.073
	c-0.113,0.022-0.218,0.065-0.317,0.116c-0.037-0.003-0.075-0.006-0.109-0.006c-0.77,0-1.368,0.608-1.368,1.349
	c0,0.152,0.028,0.28,0.079,0.428c-0.279,0.398-0.451,0.917-0.451,1.449c0,1.43,1.17,2.599,2.627,2.599
	c0.489,0,0.946-0.154,1.34-0.391c0.927,0.998,2.256,1.607,3.71,1.607c0.78,0,1.534-0.181,2.21-0.519
	c0.323,0.19,0.718,0.309,1.1,0.309c0.377,0,0.73-0.102,1.04-0.275c2.968,1.889,6.938,3.414,8.677,3.714
	c0.254,0.044,0.503,0.103,0.749,0.168c1.23,3.088,2.141,6.268,2.339,9.485c0.497,8.477-2.652,16.996-4.128,20.471
	c-0.787-0.034-1.539-0.054-2.247-0.054c-8.48,0-25.926-0.416-35.894,0.427c-2.535-0.418-4.743-1.217-6.463-2.69
	C534.036,1018.581,524.285,993.579,525.79,968.784z M585.547,994.142c-0.115-0.116-0.234-0.249-0.354-0.393
	c-0.007-0.009-0.015-0.018-0.022-0.027c-1.565-1.902-3.48-6.06-4.869-9.371c1.061,0.172,2.148,0.262,3.255,0.262
	c0.41,0,0.817-0.013,1.221-0.036c0.005,1.448,0.085,2.944,0.192,4.314c0.001,0.008,0.001,0.015,0.002,0.023
	c0.011,0.141,0.022,0.281,0.034,0.419c0.002,0.027,0.005,0.054,0.007,0.082c0.011,0.128,0.022,0.256,0.033,0.381
	c0.002,0.024,0.004,0.048,0.007,0.072c0.017,0.187,0.034,0.369,0.051,0.548c0.009,0.092,0.018,0.185,0.027,0.275
	c0.006,0.057,0.011,0.111,0.017,0.167c0.011,0.104,0.021,0.206,0.032,0.306c0.005,0.045,0.009,0.089,0.014,0.134
	c0.012,0.112,0.024,0.222,0.036,0.33c0.003,0.029,0.007,0.059,0.01,0.088c0.13,1.168,0.248,2.014,0.291,2.309
	c0.001,0.004,0.001,0.007,0.002,0.011C585.542,994.102,585.547,994.142,585.547,994.142z M365.219,914.822
	c2.729,1.108,5.652,1.834,8.702,2.112c-2.597,2.897-5.773,6.038-9.624,9.267C364.538,924.219,364.999,919.95,365.219,914.822z
	 M95.872,962.149c1.93-0.176,3.78-0.636,5.508-1.337c0.14,3.255,0.431,5.953,0.583,7.202
	C99.526,965.97,97.516,963.982,95.872,962.149z M199.486,992.468c1.042,1.006,2.121,1.968,3.177,2.852
	c-0.024,0.131-0.04,0.264-0.04,0.402c0,0.175,0.01,0.354,0.079,0.561c-0.866,0.204-1.604,0.735-2.104,1.459
	c-0.175,0.033-0.338,0.097-0.489,0.181c-0.052-0.005-0.104-0.012-0.154-0.012c-1.035,0-1.858,0.852-1.858,1.846
	c0,0.219,0.017,0.422,0.084,0.597c-0.367,0.566-0.592,1.253-0.592,2.002c0,1.962,1.591,3.569,3.548,3.569
	c0.718,0,1.382-0.207,1.923-0.546c0.477,0.516,1.033,0.962,1.648,1.317c-0.168,1.419-0.552,2.942-1.295,4.424
	c-1.776,1.22-4.008,2.43-6.789,3.475c-0.349-2.414-0.813-5.005-1.431-7.736c-1.94-8.67-2.1-12.452-1.9-14.102
	c1.187-0.308,2.324-0.733,3.392-1.269C197.539,991.994,198.476,992.333,199.486,992.468z M197.125,956.846
	c0.087-0.036,0.177-0.071,0.263-0.108c0.551,1.723,1.485,3.266,2.696,4.541c-0.46-0.151-0.95-0.237-1.463-0.237
	c-0.075,0-0.218,0-0.218,0C198.331,959.51,197.871,958.082,197.125,956.846z M213.214,1023.37c-0.037-0.001-0.063-0.001-0.063-0.001
	s0.653,3.968-5.622,4.458c-3.163,0.246-4.881,0.646-5.808,0.985c-1.36,0.181-2.74,0.364-4.138,0.548
	c0.062-2.667,0.001-6.909-0.624-12.208c0.761-0.817,1.954-1.92,3.39-2.627c0.453-0.227,1.048-0.599,1.723-1.075
	c-0.236,0.464-0.31,0.649,0.102-0.072c1.937-1.38,4.493-3.592,6.286-5.775c0.975-0.048,1.922-0.3,2.744-0.705
	c0.439,0.247,0.947,0.426,1.504,0.426c0.407,0,0.789-0.091,1.141-0.24C213.173,1014.095,213.121,1019.719,213.214,1023.37z
	 M205.328,1009.67c0.055-0.453,0.158-1.416,0.208-2.574c0.614,0.253,1.269,0.424,1.956,0.489
	C206.907,1008.237,206.193,1008.943,205.328,1009.67z M213.792,996.349c-0.135-0.891-0.879-1.582-1.823-1.582
	c-0.036,0-0.077,0.004-0.077,0.004c-0.095-1.89-1.67-3.39-3.581-3.39c-1.461,0-2.71,0.856-3.27,2.109
	c-0.052-0.012-0.12-0.012-0.167-0.012c-0.413,0-0.796,0.118-1.129,0.311c-0.264-0.568-0.496-1.139-0.698-1.71
	c2.154-0.787,3.843-2.535,4.548-4.74c1.086,0.477,2.307,0.779,3.597,0.779c2.423,0,4.618-0.97,6.233-2.535
	c-0.14,0.648-0.285,1.312-0.439,1.998c-0.695,3.072-1.265,6.03-1.736,8.858c-0.172-0.034-0.347-0.057-0.529-0.057
	c-0.115,0-0.222,0.011-0.329,0.021c-0.166-0.038-0.337-0.065-0.515-0.065C213.848,996.339,213.821,996.348,213.792,996.349z
	 M211.988,970.165c-0.68-2.925-3.28-5.109-6.418-5.109c-0.358,0-0.693,0.032-1.019,0.085c-0.363-0.072-0.737-0.113-1.122-0.113
	c-0.06,0-0.117,0.006-0.177,0.008c-0.096-0.628-0.316-1.215-0.632-1.736c1.758,1.043,3.807,1.647,6.003,1.647
	c2.206,0,4.219-0.597,6.004-1.654c1.687,0.848,3.485,1.52,5.361,2.006c0.2,1.647,0.171,4.641-0.648,10.071
	C218.021,972.518,215.255,970.452,211.988,970.165z M287.302,869.585c-0.01-0.02-0.019-0.04-0.029-0.06
	c-0.5-1.026-0.996-2.064-1.487-3.108c-0.067-0.142-0.134-0.284-0.201-0.427c-0.125-0.267-0.25-0.535-0.375-0.803
	c-0.103-0.221-0.205-0.443-0.307-0.664c-0.097-0.211-0.195-0.421-0.291-0.632c-0.203-0.443-0.406-0.887-0.607-1.33
	c-0.04-0.088-0.079-0.175-0.119-0.263c-0.189-0.417-0.376-0.834-0.562-1.25c-0.032-0.072-0.064-0.143-0.096-0.215
	c-1.247-2.792-2.437-5.552-3.54-8.175c3.987,0.64,8.076,0.974,12.242,0.974c1.479,0,2.948-0.045,4.407-0.129
	c0.071,14.21,2.081,29.758,2.7,34.223c0.001,0.008,0.002,0.016,0.003,0.025c0.014,0.102,0.027,0.197,0.04,0.287
	c0.002,0.015,0.004,0.03,0.006,0.045c0.011,0.075,0.02,0.145,0.03,0.211c0.003,0.02,0.006,0.042,0.009,0.062
	c0.011,0.075,0.021,0.144,0.029,0.206c0.003,0.022,0.006,0.039,0.008,0.059c0.006,0.044,0.012,0.086,0.018,0.122
	c0.001,0.009,0.002,0.017,0.004,0.025c0.005,0.035,0.01,0.067,0.014,0.094c0.004,0.03,0.008,0.052,0.011,0.072
	c0.005,0.037,0.009,0.058,0.009,0.058c-0.193-0.192-0.388-0.4-0.584-0.614c-0.078-0.085-0.156-0.173-0.234-0.261
	c-0.12-0.135-0.24-0.274-0.361-0.416c-0.092-0.108-0.184-0.216-0.276-0.328c-0.112-0.135-0.224-0.278-0.337-0.419
	c-0.19-0.24-0.382-0.487-0.575-0.744c-0.075-0.1-0.151-0.199-0.226-0.301c-0.134-0.182-0.268-0.368-0.404-0.558
	c-0.06-0.084-0.12-0.169-0.18-0.254c-0.678-0.963-1.367-2.014-2.065-3.143c-0.005-0.008-0.01-0.016-0.015-0.024
	C291.77,878.384,289.503,874.102,287.302,869.585z M164.747,919.026c7.237-2.706,13.655-7.089,18.772-12.683
	c3.903,2.448,8.491,3.893,13.417,3.893c11.425,0,21.075-7.622,24.168-18.042c1.102,0.437,2.298,0.685,3.552,0.685
	c1.912,0,3.615-0.567,5.117-1.49c3.408,3.684,8.269,6.016,13.7,6.016c2.963,0,5.76-0.672,8.238-1.911
	c1.212,0.679,2.577,1.087,4.061,1.087c1.388,0,2.691-0.354,3.83-0.971c11.033,7.029,25.825,12.716,32.262,13.828
	c0.942,0.164,1.87,0.373,2.78,0.615c4.537,11.451,7.881,23.248,8.602,35.172c1.993,32.815-10.913,65.905-16.043,77.606
	c-2.276,1.949-5.198,3.007-8.553,3.56c-13.193-1.115-36.283-0.565-47.505-0.565c-0.936,0-1.932,0.026-2.973,0.071
	c-1.954-4.599-6.122-15.874-5.464-27.093c0.262-4.257,1.467-8.467,3.095-12.554c0.325-0.087,0.655-0.165,0.991-0.223
	c2.302-0.397,7.555-2.416,11.483-4.916c0.41,0.229,0.878,0.364,1.376,0.364c0.506,0,1.029-0.158,1.456-0.41
	c0.895,0.447,1.892,0.687,2.924,0.687c1.923,0,3.683-0.806,4.91-2.127c0.522,0.314,1.127,0.517,1.774,0.517
	c1.929,0,3.477-1.547,3.477-3.44c0-0.704-0.228-1.391-0.597-1.917c0.068-0.195,0.105-0.365,0.105-0.566
	c0-0.981-0.792-1.786-1.811-1.786c-0.045,0-0.096,0.004-0.145,0.008c-0.132-0.068-0.27-0.124-0.42-0.154
	c-0.49-0.709-1.201-1.229-2.068-1.42c0.062-0.195,0.062-0.37,0.062-0.56c0-1.181-0.936-2.163-2.13-2.163c0,0-0.127,0-0.163,0.038
	c-0.56-1.233-1.755-2.044-3.146-2.044c-1.848,0-3.363,1.465-3.42,3.27h-0.108c-0.907,0-1.627,0.658-1.748,1.535
	c-0.027-0.001-0.055-0.007-0.081-0.007c-0.159,0-0.312,0.021-0.46,0.051c-0.122-0.02-0.245-0.039-0.369-0.039
	c-1.201,0-2.227,0.843-2.459,1.954c-1.765,0.164-3.131,1.629-3.131,3.402c0,1.924,1.542,3.471,3.425,3.471
	c0.504,0,0.964-0.138,1.385-0.29c0.13,0.38,0.343,0.724,0.609,1.019c-2.43,1.444-5.994,2.986-10.919,3.806
	c3.123-7.215,7.338-13.992,9.747-19.895c4.061-1.535,7.677-4.002,10.566-7.123c2.156,1.358,4.777,2.188,7.527,2.188
	c7.84,0,14.234-6.363,14.234-14.196c0-2.968-0.92-5.69-2.447-7.96c0.24-0.704,0.404-1.483,0.404-2.301
	c0-4.062-3.315-7.35-7.389-7.35c-0.198,0-0.391,0.008-0.581,0.022c-0.601-0.332-1.26-0.568-1.957-0.696
	c-1.936-2.876-4.879-5.018-8.325-5.87c0.164-0.717,0.238-1.459,0.238-2.201c0-4.88-3.955-8.865-8.864-8.865
	c-0.238,0-0.479,0-0.736,0.037c-2.206-4.98-7.161-8.418-12.958-8.418c-7.599,0-13.794,5.985-14.151,13.498c0,0-0.226,0-0.344,0
	c-3.725,0-6.771,2.741-7.318,6.313c-0.094-0.003-0.184-0.013-0.279-0.013c-0.608,0-1.199,0.065-1.773,0.178
	c-0.515-0.083-1.045-0.134-1.61-0.134c-4.958,0-9.065,3.451-10.14,8.072c-0.912,0.08-1.799,0.248-2.653,0.494
	c0.037-0.198,0.065-0.402,0.065-0.624c0-2.085-1.722-3.808-3.855-3.808c-0.084,0-0.176,0-0.284,0.008
	c-0.967-2.125-3.091-3.617-5.577-3.617c-3.259,0-5.933,2.579-6.076,5.809c-0.088,0-0.12-0.008-0.12-0.008
	c-1.658,0-2.958,1.199-3.183,2.72c-0.045-0.002-0.09-0.007-0.135-0.007c-0.261,0-0.513,0.031-0.759,0.079
	c-0.227-0.035-0.456-0.055-0.691-0.055c-2.141,0-3.916,1.497-4.369,3.477c-3.136,0.287-5.558,2.909-5.558,6.088
	c0,3.374,2.725,6.084,6.106,6.084c0.868,0,1.679-0.163,2.436-0.497c0.223,0.689,0.592,1.311,1.067,1.837
	c-4.314,2.567-10.639,5.302-19.384,6.748C152.995,941.529,160.451,929.498,164.747,919.026z M224.159,978.785
	c0,0,0.008-0.052,0.021-0.142c0.001-0.005,0.001-0.009,0.002-0.014c0.056-0.39,0.212-1.511,0.385-3.056
	c0.004-0.038,0.009-0.078,0.013-0.117c0.016-0.142,0.032-0.287,0.047-0.436c0.006-0.059,0.013-0.117,0.019-0.177
	c0.014-0.133,0.028-0.268,0.042-0.405c0.008-0.074,0.015-0.146,0.022-0.221c0.012-0.119,0.024-0.242,0.036-0.364
	c0.023-0.237,0.046-0.478,0.068-0.725c0.003-0.032,0.006-0.063,0.009-0.095c0.015-0.166,0.029-0.335,0.044-0.504
	c0.003-0.036,0.006-0.072,0.009-0.108c0.015-0.183,0.03-0.368,0.045-0.555c0.001-0.01,0.002-0.021,0.002-0.031
	c0.142-1.813,0.248-3.794,0.255-5.71c0.535,0.032,1.074,0.048,1.617,0.048c1.464,0,2.902-0.12,4.307-0.347
	c-1.839,4.382-4.374,9.885-6.445,12.402c-0.01,0.012-0.019,0.024-0.029,0.035C224.469,978.456,224.312,978.631,224.159,978.785z
	 M190.653,1001.293c-0.097-0.097-0.196-0.208-0.296-0.33c-0.006-0.007-0.012-0.015-0.018-0.022c-1.31-1.593-2.915-5.076-4.079-7.849
	c0.889,0.144,1.799,0.219,2.726,0.219c0.344,0,0.685-0.01,1.023-0.031c0.004,1.211,0.071,2.463,0.161,3.61
	c0.001,0.009,0.001,0.018,0.002,0.027c0.009,0.115,0.018,0.228,0.028,0.34c0.003,0.03,0.005,0.06,0.008,0.089
	c0.009,0.102,0.017,0.204,0.026,0.304c0.002,0.027,0.005,0.053,0.007,0.08c0.014,0.15,0.027,0.297,0.041,0.441
	c0.007,0.076,0.015,0.153,0.022,0.227c0.005,0.051,0.01,0.1,0.015,0.15c0.008,0.083,0.017,0.165,0.025,0.246
	c0.004,0.039,0.008,0.078,0.012,0.117c0.01,0.092,0.02,0.181,0.029,0.269c0.003,0.028,0.006,0.057,0.009,0.084
	c0.04,0.356,0.078,0.676,0.113,0.952c0.001,0.008,0.002,0.016,0.003,0.024c0.047,0.37,0.085,0.657,0.111,0.837
	c0.001,0.005,0.001,0.01,0.002,0.015c0.005,0.037,0.01,0.069,0.014,0.096c0.001,0.009,0.002,0.016,0.003,0.023
	c0.002,0.013,0.003,0.024,0.005,0.034C190.65,1001.273,190.653,1001.293,190.653,1001.293z M143.159,944.408
	c0.004-0.026,0.009-0.06,0.015-0.104c0.002-0.014,0.004-0.029,0.006-0.045c0.007-0.046,0.014-0.099,0.023-0.16
	c0.002-0.012,0.003-0.022,0.005-0.034c0.01-0.072,0.022-0.156,0.035-0.246c0.004-0.028,0.008-0.056,0.012-0.085
	c0.013-0.092,0.026-0.189,0.041-0.297c0.005-0.035,0.01-0.073,0.015-0.109c0.012-0.085,0.024-0.174,0.036-0.267
	c0.007-0.052,0.014-0.103,0.021-0.158c0.016-0.117,0.032-0.241,0.049-0.369c0.009-0.065,0.017-0.132,0.026-0.2
	c0.014-0.104,0.028-0.212,0.042-0.323c0.012-0.096,0.025-0.194,0.038-0.295c0.014-0.111,0.028-0.224,0.043-0.341
	c0.011-0.086,0.021-0.171,0.032-0.26c0.02-0.158,0.039-0.32,0.06-0.488c0.012-0.098,0.024-0.2,0.036-0.301
	c0.012-0.102,0.024-0.205,0.037-0.31c0.021-0.173,0.041-0.35,0.062-0.532c0.013-0.112,0.026-0.225,0.039-0.34
	c0.014-0.121,0.028-0.243,0.042-0.368c0.014-0.127,0.029-0.256,0.043-0.386c0.021-0.192,0.043-0.388,0.064-0.587
	c0.011-0.1,0.021-0.2,0.032-0.301c0.03-0.282,0.06-0.57,0.09-0.864c0.005-0.054,0.011-0.106,0.016-0.16
	c0.017-0.165,0.033-0.331,0.05-0.499c0.009-0.091,0.018-0.184,0.027-0.276c0.027-0.28,0.054-0.564,0.081-0.852
	c0.008-0.085,0.016-0.17,0.024-0.256c0.053-0.573,0.104-1.161,0.154-1.761c0.005-0.063,0.01-0.127,0.016-0.191
	c0.031-0.381,0.061-0.766,0.091-1.156c0.002-0.028,0.004-0.055,0.006-0.083c0.016-0.219,0.032-0.439,0.048-0.661
	c0-0.001,0-0.003,0-0.004c0.031-0.431,0.06-0.867,0.087-1.305c0.002-0.039,0.005-0.079,0.007-0.118
	c0.15-2.397,0.252-4.884,0.264-7.312c0.923,0.053,1.853,0.082,2.789,0.082c2.637,0,5.225-0.211,7.748-0.616
	c-0.698,1.658-1.449,3.402-2.238,5.167c-0.023,0.051-0.045,0.102-0.068,0.153c-0.115,0.257-0.231,0.514-0.347,0.771
	c-0.027,0.06-0.054,0.119-0.081,0.179c-0.125,0.277-0.252,0.554-0.379,0.83c-0.065,0.142-0.131,0.285-0.197,0.427
	c-0.061,0.133-0.122,0.265-0.184,0.398c-0.081,0.174-0.162,0.349-0.244,0.523c-0.037,0.078-0.074,0.157-0.111,0.235
	c-0.315,0.67-0.634,1.337-0.955,1.996c-0.005,0.011-0.011,0.022-0.016,0.033c-1.394,2.86-2.829,5.57-4.215,7.815
	c-0.003,0.005-0.006,0.01-0.009,0.015c-0.442,0.714-0.878,1.38-1.307,1.989c-0.038,0.054-0.076,0.107-0.113,0.16
	c-0.086,0.12-0.171,0.239-0.256,0.354c-0.047,0.064-0.093,0.125-0.14,0.187c-0.123,0.164-0.246,0.323-0.368,0.476
	c-0.071,0.089-0.141,0.178-0.212,0.264c-0.058,0.071-0.116,0.139-0.174,0.207c-0.077,0.09-0.153,0.178-0.229,0.263
	c-0.05,0.056-0.099,0.112-0.148,0.166c-0.124,0.135-0.248,0.267-0.369,0.388C143.151,944.465,143.154,944.443,143.159,944.408z
	 M140.6,980.053c0.457-7.545,2.576-15.008,5.447-22.254c0.576-0.153,1.161-0.291,1.757-0.395c4.074-0.704,13.435-4.303,20.418-8.751
	c0.721,0.39,1.546,0.614,2.424,0.614c0.939,0,1.803-0.259,2.57-0.688c1.568,0.784,3.338,1.209,5.213,1.209
	c0.144,0,0.287-0.006,0.43-0.012c0.984,2.097,2.462,3.917,4.287,5.305c-0.791,0.782-1.441,1.709-1.899,2.744
	c-0.163-0.023-0.315-0.023-0.466-0.023c-3.107,0-5.61,2.522-5.61,5.61c0,0.469,0.047,0.939,0.151,1.393
	c-2.179,0.539-4.036,1.896-5.261,3.714c-0.449,0.081-0.873,0.234-1.259,0.449c-0.118-0.008-0.232-0.022-0.355-0.022
	c-2.579,0-4.676,2.081-4.676,4.652c0,0.518,0.104,1.011,0.255,1.456c-0.966,1.436-1.549,3.159-1.549,5.038
	c0,4.958,4.047,8.985,9.008,8.985c1.74,0,3.399-0.525,4.763-1.385c1.829,1.975,4.117,3.537,6.687,4.508
	c1.524,3.736,4.192,8.025,6.168,12.591c-3.117-0.519-5.372-1.495-6.91-2.409c0.168-0.187,0.303-0.404,0.385-0.645
	c0.267,0.096,0.558,0.184,0.877,0.184c1.192,0,2.168-0.979,2.168-2.197c0-1.122-0.865-2.049-1.982-2.153
	c-0.147-0.704-0.796-1.237-1.556-1.237c-0.079,0-0.156,0.012-0.234,0.025c-0.094-0.019-0.19-0.033-0.291-0.033
	c-0.017,0-0.034,0.004-0.051,0.005c-0.077-0.555-0.532-0.972-1.106-0.972h-0.068c-0.036-1.142-0.995-2.069-2.164-2.069
	c-0.88,0-1.636,0.513-1.991,1.294c-0.023-0.024-0.103-0.024-0.103-0.024c-0.756,0-1.348,0.621-1.348,1.369
	c0,0.12,0,0.231,0.039,0.354c-0.547,0.121-0.99,0.452-1.3,0.898c-0.1,0.019-0.192,0.055-0.279,0.101
	c-0.029-0.002-0.06-0.008-0.087-0.008c-0.645,0-1.146,0.509-1.146,1.13c0,0.127,0.023,0.235,0.066,0.358
	c-0.234,0.333-0.378,0.768-0.378,1.214c0,1.198,0.98,2.177,2.201,2.177c0.41,0,0.792-0.129,1.123-0.327
	c0.777,0.836,1.89,1.346,3.107,1.346c0.653,0,1.285-0.152,1.851-0.435c0.27,0.159,0.602,0.259,0.922,0.259
	c0.316,0,0.613-0.086,0.873-0.232c2.486,1.582,5.809,2.861,7.265,3.112c0.213,0.037,0.421,0.086,0.627,0.141
	c1.031,2.586,1.793,5.25,1.959,7.945c0.391,6.666-1.911,13.365-3.217,16.569c-1.471,0.179-2.954,0.354-4.448,0.524
	c-7.618-0.05-20.214-0.269-27.736,0.366c-2.131-0.351-3.982-1.031-5.425-2.272C147.493,1021.727,139.34,1000.803,140.6,980.053z"/>
</svg>
