<?xml version="1.0" encoding="utf-8"?>
<!-- Generator: Adobe Illustrator 17.0.0, SVG Export Plug-In . SVG Version: 6.00 Build 0)  -->
<!DOCTYPE svg PUBLIC "-//W3C//DTD SVG 1.1//EN" "http://www.w3.org/Graphics/SVG/1.1/DTD/svg11.dtd">
<svg version="1.1" id="Layer_1" xmlns="http://www.w3.org/2000/svg" xmlns:xlink="http://www.w3.org/1999/xlink" x="0px" y="0px"
	 width="200px" height="200px" viewBox="0 0 200 200" enable-background="new 0 0 200 200" xml:space="preserve">
<rect x="43.186" y="96.084" fill="#7D6D64" width="117.718" height="44.193"/>
<path fill="#7D6D64" d="M162.585,96.409V64.673c0-1.084-0.989-1.963-2.208-1.963c0,0-30.89,0-51.902,0s-64.762,0-64.762,0
	c-1.22,0-2.208,0.879-2.208,1.963v31.736H162.585z"/>
<path opacity="0.2" fill="none" stroke="#DBD3C0" stroke-miterlimit="10" d="M43.143,125.402
	c5.385-7.45,14.331-14.183,25.537-19.255c0.645-0.292,1.297-0.578,1.95-0.859c0.29-0.156,0.582-0.299,0.874-0.446l-13.08,0
	c-5.805,3.064-10.955,6.534-15.281,10.288"/>
<path opacity="0.2" fill="none" stroke="#DBD3C0" stroke-miterlimit="10" d="M158.635,104.719l-8.06,0
	c4.256,2.358,7.786,5.17,10.413,8.366"/>
<path opacity="0.2" fill="none" stroke="#DBD3C0" stroke-miterlimit="10" d="M68.055,112.918
	c-9.314,5.216-16.174,11.853-19.236,18.939c-0.385,0.892-0.707,1.792-0.969,2.696l9.004,0c0.904-3.937,4.296-8.143,6.333-10.219
	c0.779-0.801,1.619-1.585,2.513-2.35c0.895-0.765,1.844-1.511,2.845-2.235c1.001-0.724,2.052-1.426,3.135-2.104
	c5.674-3.764,11.635-7.079,18.154-8.136c0.545-0.096,1.12-0.19,1.726-0.258c12.265,0.831,24.622,1.385,37.22,1.057
	c1.482,0.237,2.963,0.474,4.597,1.179c1.072,0.46,2.097,0.954,3.069,1.481c6.809,3.69,11.084,8.991,11.467,15.32
	c0.127,2.103-0.189,4.202-0.889,6.265l9.025,0c0.819-2.448,1.182-4.938,1.031-7.433c-0.578-9.548-8.536-17.145-20.639-21.405
	c-1.086-0.366-2.205-0.704-3.375-0.996l-18.403,0c-3.895,0.14-7.816,0.228-11.807,0l-17.353,0c-4.825,1.199-9.525,3.49-14.053,6.396
	C70.304,111.697,69.164,112.297,68.055,112.918z"/>
<path opacity="0.2" fill="none" stroke="#DBD3C0" stroke-miterlimit="10" d="M138.748,129.457c-0.25-4.133-2.575-7.718-6.384-10.502
	c-0.762-0.557-1.583-1.081-2.459-1.572c-17.74-2.948-37.882-8.267-54.363,4.793c-0.969,0.768-1.926,1.6-2.869,2.5
	c-1.908,1.542-3.844,3.492-5.146,6.213c-0.531,0.919-1.037,2.261-0.695,3.069c0.018,0.2,0.043,0.397,0.067,0.595l8.115,0
	c0.283-1.711,0.989-3.309,2.199-4.532c0.676-0.823,1.375-1.605,2.093-2.342c5.031-5.161,11.045-8.16,17.452-8.587
	c0.749-0.123,1.504-0.237,2.259-0.341c9.132-0.278,18.818-0.235,27.061,5.045c0.697,0.637,1.301,1.319,1.803,2.041
	c1.003,1.445,1.596,3.052,1.701,4.788c0.08,1.319-0.128,2.636-0.59,3.929l9.018,0C138.589,132.876,138.851,131.168,138.748,129.457z
	"/>
<path opacity="0.2" fill="none" stroke="#DBD3C0" stroke-miterlimit="10" d="M120.415,131.793c-0.088-1.447-0.683-2.759-1.688-3.894
	c-10.45-7.313-24.453-5.954-33.786,4.305c-0.474,0.764-0.812,1.552-1.008,2.349l8.922,0c0.02-0.17,0.05-0.342,0.097-0.516
	c1.037-2.261,2.442-3.292,3.986-3.891c0.772-0.3,1.579-0.492,2.393-0.675c0.814-0.184,1.633-0.36,2.431-0.628
	c1.266-0.165,2.482-0.172,3.595-0.043c0.988,0.212,2.289,0.322,3.408,0.85c1.119,0.527,2.057,1.473,2.317,3.356
	c0.174,0.584,0.079,1.104-0.157,1.549l9.044,0C120.312,133.647,120.471,132.721,120.415,131.793z"/>
<path opacity="0.2" fill="none" stroke="#DBD3C0" stroke-miterlimit="10" d="M162.454,73.593
	c-5.542,8.738-14.75,16.634-26.284,22.583c-0.664,0.343-1.335,0.678-2.007,1.007c-0.298,0.183-0.599,0.35-0.9,0.523l13.463,0
	c5.974-3.594,11.275-7.663,15.728-12.067"/>
<path opacity="0.2" fill="none" stroke="#DBD3C0" stroke-miterlimit="10" d="M41.541,92.803c0,2.399,1.084,4.345,2.422,4.345
	l8.296,0c-4.38-2.999-8.013-6.578-10.718-10.643"/>
<path opacity="0.2" fill="none" stroke="#DBD3C0" stroke-miterlimit="10" d="M148.721,62.716c-0.931,4.617-4.421,9.55-6.518,11.986
	c-0.802,0.939-1.666,1.859-2.587,2.757c-0.921,0.897-1.898,1.772-2.928,2.621c-1.03,0.849-2.112,1.672-3.227,2.468
	c-5.84,4.415-11.976,8.302-18.686,9.542c-0.561,0.112-1.153,0.223-1.777,0.303c-12.624-0.974-25.343-1.625-38.309-1.24
	c-1.525-0.278-3.05-0.556-4.731-1.383c-1.104-0.539-2.158-1.119-3.159-1.737c-7.008-4.328-11.408-10.545-11.802-17.968
	c-0.131-2.466,0.195-4.928,0.915-7.347"/>
<path opacity="0.2" fill="none" stroke="#DBD3C0" stroke-miterlimit="10" d="M46.623,62.715c-0.843,2.871-1.216,5.792-1.061,8.717
	c0.595,11.198,8.786,20.109,21.243,25.105c1.118,0.429,2.27,0.826,3.474,1.168l18.941,0c4.008-0.164,8.045-0.268,12.152,0l17.861,0
	c4.966-1.406,9.803-4.093,14.464-7.502c1.18-0.682,2.353-1.386,3.495-2.114c9.586-6.118,16.647-13.902,19.798-22.212
	c0.397-1.046,0.728-2.102,0.998-3.162"/>
<path opacity="0.2" fill="none" stroke="#DBD3C0" stroke-miterlimit="10" d="M130.03,62.716c-0.292,2.006-1.018,3.881-2.263,5.315
	c-0.696,0.965-1.415,1.882-2.154,2.746c-5.178,6.052-11.368,9.571-17.962,10.072c-0.771,0.144-1.548,0.278-2.325,0.4
	c-9.399,0.326-19.368,0.275-27.852-5.916c-0.717-0.747-1.339-1.547-1.855-2.394c-1.033-1.694-1.643-3.579-1.751-5.615
	c-0.082-1.547,0.132-3.092,0.607-4.608"/>
<path opacity="0.2" fill="none" stroke="#DBD3C0" stroke-miterlimit="10" d="M65.192,62.715c-0.597,1.967-0.867,3.971-0.76,5.977
	c0.257,4.848,2.65,9.052,6.571,12.317c0.784,0.653,1.629,1.268,2.531,1.844c18.259,3.457,38.991,9.696,55.954-5.622
	c0.998-0.901,1.983-1.877,2.953-2.932c1.963-1.809,3.956-4.096,5.297-7.287c0.547-1.078,1.067-2.652,0.715-3.6
	c-0.019-0.235-0.045-0.466-0.069-0.697"/>
<path opacity="0.2" fill="none" stroke="#DBD3C0" stroke-miterlimit="10" d="M111.668,62.716c-0.021,0.199-0.051,0.401-0.1,0.605
	c-1.067,2.652-2.513,3.861-4.103,4.564c-0.795,0.351-1.626,0.577-2.463,0.792c-0.837,0.216-1.681,0.422-2.502,0.736
	c-1.303,0.194-2.555,0.202-3.7,0.051c-1.017-0.249-2.356-0.378-3.508-0.997c-1.152-0.619-2.117-1.727-2.385-3.936
	c-0.18-0.684-0.082-1.295,0.162-1.817"/>
<path opacity="0.2" fill="none" stroke="#DBD3C0" stroke-miterlimit="10" d="M83.761,62.715c-0.354,1.063-0.517,2.149-0.46,3.238
	c0.09,1.697,0.703,3.236,1.737,4.567c10.756,8.577,25.168,6.984,34.774-5.049c0.488-0.897,0.836-1.82,1.037-2.755"/>
<rect x="43.164" y="97.4" fill="#997F5F" width="117.855" height="8.602"/>
<rect x="43.287" y="130.823" fill="#997F5F" width="117.855" height="8.602"/>
<rect x="40.215" y="96.294" fill="#E1B224" width="123.129" height="8.602"/>
<rect x="40.183" y="131.681" fill="#E1B224" width="123.216" height="8.602"/>
<rect x="154.763" y="104.52" fill="#E1B224" width="8.601" height="27.278"/>
<rect x="40.209" y="104.52" fill="#E1B224" width="8.601" height="27.278"/>
<rect x="93.822" y="99.202" fill="#997F5F" width="12.41" height="14.168"/>
<rect x="93.538" y="87.082" fill="#E1B224" width="12.81" height="25.34"/>
<g>
	<circle opacity="0.1" fill="#FFFFFF" cx="44.147" cy="100.748" r="1.352"/>
	<circle fill="#433E43" cx="44.147" cy="100.472" r="1.352"/>
</g>
<g>
	<circle opacity="0.1" fill="#FFFFFF" cx="44.147" cy="117.706" r="1.352"/>
	<circle fill="#433E43" cx="44.147" cy="117.429" r="1.352"/>
</g>
<g>
	<circle opacity="0.1" fill="#FFFFFF" cx="159.285" cy="117.706" r="1.352"/>
	<circle fill="#433E43" cx="159.285" cy="117.429" r="1.352"/>
</g>
<g>
	<circle opacity="0.1" fill="#FFFFFF" cx="59.425" cy="100.748" r="1.352"/>
	<circle fill="#433E43" cx="59.425" cy="100.472" r="1.352"/>
</g>
<g>
	<circle opacity="0.1" fill="#FFFFFF" cx="74.703" cy="100.748" r="1.352"/>
	<circle fill="#433E43" cx="74.703" cy="100.472" r="1.352"/>
</g>
<g>
	<circle opacity="0.1" fill="#FFFFFF" cx="89.981" cy="100.748" r="1.352"/>
	<circle fill="#433E43" cx="89.981" cy="100.472" r="1.352"/>
</g>
<g>
	<circle opacity="0.1" fill="#FFFFFF" cx="111.485" cy="100.748" r="1.352"/>
	<circle fill="#433E43" cx="111.485" cy="100.472" r="1.352"/>
</g>
<rect x="40.226" y="61.903" fill="#E1B224" width="8.602" height="34.56"/>
<g>
	<circle opacity="0.1" fill="#FFFFFF" cx="44.485" cy="91.578" r="1.352"/>
	<circle fill="#433E43" cx="44.485" cy="91.302" r="1.352"/>
</g>
<g>
	<circle opacity="0.1" fill="#FFFFFF" cx="44.485" cy="78.63" r="1.352"/>
	<circle fill="#433E43" cx="44.485" cy="78.354" r="1.352"/>
</g>
<g>
	<circle opacity="0.1" fill="#FFFFFF" cx="44.485" cy="65.682" r="1.352"/>
	<circle fill="#433E43" cx="44.485" cy="65.405" r="1.352"/>
</g>
<rect x="154.682" y="61.903" fill="#E1B224" width="8.602" height="34.56"/>
<g>
	<circle opacity="0.1" fill="#FFFFFF" cx="158.941" cy="91.578" r="1.352"/>
	<circle fill="#433E43" cx="158.941" cy="91.302" r="1.352"/>
</g>
<g>
	<circle opacity="0.1" fill="#FFFFFF" cx="158.941" cy="78.63" r="1.352"/>
	<circle fill="#433E43" cx="158.941" cy="78.354" r="1.352"/>
</g>
<g>
	<circle opacity="0.1" fill="#FFFFFF" cx="158.941" cy="65.682" r="1.352"/>
	<circle fill="#433E43" cx="158.941" cy="65.405" r="1.352"/>
</g>
<g>
	<circle opacity="0.1" fill="#FFFFFF" cx="126.763" cy="100.748" r="1.352"/>
	<circle fill="#433E43" cx="126.763" cy="100.472" r="1.352"/>
</g>
<g>
	<circle opacity="0.1" fill="#FFFFFF" cx="142.041" cy="100.748" r="1.352"/>
	<circle fill="#433E43" cx="142.041" cy="100.472" r="1.352"/>
</g>
<g>
	<circle opacity="0.1" fill="#FFFFFF" cx="157.319" cy="100.748" r="1.352"/>
	<circle fill="#433E43" cx="157.319" cy="100.472" r="1.352"/>
</g>
<g>
	<circle opacity="0.1" fill="#FFFFFF" cx="44.516" cy="136.015" r="1.352"/>
	<circle fill="#433E43" cx="44.516" cy="135.738" r="1.352"/>
</g>
<g>
	<circle opacity="0.1" fill="#FFFFFF" cx="60.912" cy="136.015" r="1.352"/>
	<circle fill="#433E43" cx="60.912" cy="135.738" r="1.352"/>
</g>
<g>
	<circle opacity="0.1" fill="#FFFFFF" cx="77.307" cy="136.015" r="1.352"/>
	<circle fill="#433E43" cx="77.307" cy="135.738" r="1.352"/>
</g>
<g>
	<circle opacity="0.1" fill="#FFFFFF" cx="110.098" cy="136.015" r="1.352"/>
	<circle fill="#433E43" cx="110.098" cy="135.738" r="1.352"/>
</g>
<g>
	<circle opacity="0.1" fill="#FFFFFF" cx="126.494" cy="136.015" r="1.352"/>
	<circle fill="#433E43" cx="126.494" cy="135.738" r="1.352"/>
</g>
<g>
	<circle opacity="0.1" fill="#FFFFFF" cx="142.889" cy="136.015" r="1.352"/>
	<circle fill="#433E43" cx="142.889" cy="135.738" r="1.352"/>
</g>
<g>
	<circle opacity="0.1" fill="#FFFFFF" cx="159.285" cy="136.015" r="1.352"/>
	<circle fill="#433E43" cx="159.285" cy="135.738" r="1.352"/>
</g>
<g>
	<circle opacity="0.1" fill="#FFFFFF" cx="93.703" cy="136.015" r="1.352"/>
	<circle fill="#433E43" cx="93.703" cy="135.738" r="1.352"/>
</g>
<circle fill="#433E43" cx="100.057" cy="102.684" r="2.089"/>
<polygon fill="#433E43" points="102.331,109.012 97.723,109.012 99.136,104.158 100.917,104.158 "/>
<rect x="48.787" y="73.93" fill="#473C35" width="105.861" height="0.369"/>
<rect x="48.787" y="74.299" opacity="0.2" fill="#DBD3C0" width="105.861" height="0.369"/>
<rect x="48.787" y="86.402" fill="#473C35" width="105.861" height="0.369"/>
<rect x="48.787" y="86.771" opacity="0.2" fill="#DBD3C0" width="105.861" height="0.369"/>
<rect x="48.787" y="117.921" fill="#473C35" width="105.861" height="0.369"/>
<rect x="48.817" y="118.289" opacity="0.2" fill="#DBD3C0" width="106.044" height="0.369"/>
<rect x="48.817" y="96.263" opacity="0.6" fill="#DBD3C0" width="106.044" height="0.369"/>
<rect x="48.817" y="131.468" opacity="0.6" fill="#DBD3C0" width="106.044" height="0.369"/>
<linearGradient id="SVGID_1_" gradientUnits="userSpaceOnUse" x1="100" y1="201.2017" x2="100" y2="1.6517">
	<stop  offset="0" style="stop-color:#000000;stop-opacity:0"/>
	<stop  offset="1" style="stop-color:#000000"/>
</linearGradient>
<polygon fill="url(#SVGID_1_)" points="200,200 0,200 40,128.333 40.125,140.361 163.458,140.361 163.458,128.958 "/>
<path opacity="0.1" fill="#FFFFFF" d="M171.493,140c6.463-11.606,10.158-24.965,10.158-39.192c0-44.565-36.127-80.692-80.692-80.692
	s-80.692,36.127-80.692,80.692c0,14.227,3.695,27.586,10.158,39.192H171.493z"/>
</svg>
