<?xml version="1.0" encoding="utf-8"?>
<!-- Generator: Adobe Illustrator 17.0.0, SVG Export Plug-In . SVG Version: 6.00 Build 0)  -->
<!DOCTYPE svg PUBLIC "-//W3C//DTD SVG 1.1//EN" "http://www.w3.org/Graphics/SVG/1.1/DTD/svg11.dtd">
<svg version="1.1" id="Layer_1" xmlns="http://www.w3.org/2000/svg" xmlns:xlink="http://www.w3.org/1999/xlink" x="0px" y="0px"
	 width="200px" height="200px" viewBox="0 0 200 200" enable-background="new 0 0 200 200" xml:space="preserve">
<path opacity="0.1" d="M133.267,136.062c0.206,0.079,0.411,0.157,0.613,0.235h-25.34c0.069-0.031,0.131-0.072,0.198-0.105
	L133.267,136.062c-2.056-0.79-4.282-1.658-6.755-2.361c-6.887-1.957-13.664,0.445-16.588,1.751c0.139-0.108,0.295-0.205,0.419-0.323
	c0.263-0.252,0.468-0.512,0.623-0.773l20.99-10.018l0.232-9.808l0.066-2.779c0.005,0.007,0.012,0.014,0.017,0.021l-0.242,9.629
	l9.882-24.376c0.266-0.592,0.517-1.191,0.753-1.798l0.134-0.319l-0.014,0.01c1.359-3.6,2.166-7.449,2.313-11.471
	c0.738-20.175-17.157-33.195-37.712-41.756l0.218,0.064l3.584-5.294l-6.154,3.375l-2.867-5.558l0.518,5.546
	c-0.88-0.333-1.762-0.659-2.645-0.977C76.778,46.045,54.629,60.86,55.94,83.447c0.254,4.377,1.286,8.55,2.953,12.42l-0.083-0.05
	l0.597,1.19c0.271,0.576,0.556,1.144,0.855,1.705l11.376,22.676l-0.702-13.342l0.198-0.264l0.121,2.803l0.579,13.451l21.06,10.517
	c0.088,0.32,0.296,0.654,0.642,0.979c0.311,0.293,0.708,0.546,1.137,0.765H68.767l0,0.007h-1.11l0.33,6.831h1.033l0.036,0.77h0.069
	l2.099,44.58h7.281l0.002,0.041l0.037,0.971l0,0.011c0.032,0.824,0.786,1.491,1.685,1.491c0.254,0,0.489-0.058,0.7-0.153L81.255,200
	h42.722l0.147-9.085c0.648-0.198,1.125-0.749,1.137-1.407l0-0.011l0.017-0.99l0-0.022h0.082l-0.001,0.041l-0.017,0.971l0,0.011
	c-0.014,0.824,0.703,1.491,1.602,1.491c0.899,0,1.642-0.667,1.66-1.491l0-0.011l0.021-0.971l0.001-0.041h4.307l1.187-44.58h0.049
	l0.021-0.77h0.746l0.175-6.377C138.868,138.137,133.267,136.062,133.267,136.062z M108.952,135.434
	c-0.308,0.34-0.744,0.627-1.227,0.863h-0.554l0-0.002h-0.268l2.167-1.034C109.028,135.318,109.001,135.379,108.952,135.434z
	 M94.357,135.701c-0.199-0.203-0.308-0.405-0.371-0.602l2.4,1.199h-1.191C94.871,136.123,94.577,135.926,94.357,135.701z
	 M148.107,137.574c-0.667,0.279-1.371,0.07-1.584-0.462c-0.035-0.087-0.032-0.181-0.038-0.273c0.391-0.247,0.783-0.531,1.178-0.853
	l-0.849,0.005c0.139-0.151,0.301-0.289,0.508-0.383c0.675-0.307,1.412-0.111,1.632,0.444
	C149.174,136.605,148.789,137.289,148.107,137.574z"/>
<path fill="#EC5940" d="M150.758,124.54l-4.528-1.377c-0.832-0.253-1.794,0.289-2.158,1.188l-1.751,4.327
	c-0.155,0.384-0.157,0.783-0.042,1.128l-0.001,0l0.004,0.01c0.008,0.024,0.017,0.048,0.027,0.071l5.097,13.686l10.237-2.104
	l-5.843-15.691C151.729,125.204,151.356,124.721,150.758,124.54z M145.974,126.079c-0.61,0.307-1.272,0.077-1.49-0.508
	c-0.218-0.586,0.084-1.323,0.686-1.652c0.614-0.336,1.305-0.122,1.531,0.486C146.927,125.013,146.596,125.765,145.974,126.079z"/>
<rect x="81.755" y="173.594" fill="#EC5940" width="42.722" height="26.406"/>
<polygon fill="#FEF4E0" points="102.652,127.499 130.667,111.721 130.667,55.207 75.603,55.207 75.603,111.398 "/>
<path opacity="0.5" fill="#F7C4AE" d="M130.667,55.207H75.603v42.035l4.347-6.291v4.83l5.313-6.279l13.525,12.558l-1.449-5.796
	l7.245,8.211l-2.898-10.626c0,0,11.592-1.449,22.702,10.626c0.483-2.898,0.483-8.211,0.483-8.211s3.77,2.11,5.796,5.086V55.207z"/>
<ellipse transform="matrix(-0.0089 -1 1 -0.0089 8.5922 215.1363)" fill="#07405F" cx="110.906" cy="103.31" rx="2.684" ry="0.966"/>
<ellipse transform="matrix(-0.0089 -1 1 -0.0089 -7.545 199.1429)" fill="#07405F" cx="94.912" cy="103.31" rx="2.684" ry="0.966"/>
<path fill="#07405F" d="M101.031,111.248c-0.005,0.062-0.008,0.124-0.008,0.187c0,1.319,1.069,2.388,2.388,2.388
	s2.388-1.069,2.388-2.388c0-0.063-0.003-0.125-0.008-0.187H101.031z"/>
<rect x="99.905" y="118.238" fill="#FEF4E0" width="5.582" height="20.825"/>
<rect x="72.266" y="124.675" fill="#84CBC5" width="60.86" height="60.86"/>
<rect x="72.201" y="125.541" fill="#32736B" width="60.971" height="7.557"/>
<g>
	<path fill="#FCF3E0" d="M92.57,186.79c0,1.024-0.721,1.855-1.61,1.855l0,0c-0.889,0-1.61-0.83-1.61-1.855v-5.1
		c0-1.024,0.721-1.855,1.61-1.855l0,0c0.889,0,1.61,0.83,1.61,1.855V186.79z"/>
	<path fill="#FCF3E0" d="M82.667,186.79c0,1.024-0.721,1.855-1.61,1.855l0,0c-0.889,0-1.61-0.83-1.61-1.855v-5.1
		c0-1.024,0.721-1.855,1.61-1.855l0,0c0.889,0,1.61,0.83,1.61,1.855V186.79z"/>
	<path fill="#FCF3E0" d="M89.269,186.79c0,1.024-0.721,1.855-1.61,1.855l0,0c-0.889,0-1.61-0.83-1.61-1.855v-6.955
		c0-1.024,0.721-1.855,1.61-1.855l0,0c0.889,0,1.61,0.83,1.61,1.855V186.79z"/>
	<path fill="#FCF3E0" d="M85.968,186.79c0,1.024-0.721,1.855-1.61,1.855l0,0c-0.889,0-1.61-0.83-1.61-1.855v-6.213
		c0-1.024,0.721-1.855,1.61-1.855l0,0c0.889,0,1.61,0.83,1.61,1.855V186.79z"/>
	<circle fill="#FCF3E0" cx="94.575" cy="186.736" r="1.751"/>
	<path fill="#FCFAF7" d="M91.922,181.94c0.117-0.185,0.188-0.404,0.188-0.639c0-0.662-0.537-1.199-1.199-1.199
		s-1.199,0.537-1.199,1.199c0,0.236,0.07,0.454,0.188,0.639H91.922z"/>
	<path fill="#FCFAF7" d="M88.662,180.168c0.117-0.185,0.188-0.404,0.188-0.639c0-0.662-0.537-1.199-1.199-1.199
		s-1.199,0.537-1.199,1.199c0,0.236,0.07,0.454,0.188,0.639H88.662z"/>
	<path fill="#FCFAF7" d="M85.401,180.933c0.117-0.185,0.188-0.404,0.188-0.639c0-0.662-0.537-1.199-1.199-1.199
		c-0.662,0-1.199,0.537-1.199,1.199c0,0.236,0.07,0.454,0.188,0.639H85.401z"/>
	<path fill="#FCFAF7" d="M82.1,182.06c0.117-0.185,0.188-0.404,0.188-0.639c0-0.662-0.537-1.199-1.199-1.199
		c-0.662,0-1.199,0.537-1.199,1.199c0,0.236,0.07,0.454,0.188,0.639H82.1z"/>
	<path fill="#FCFAF7" d="M93.719,187.904c0.241,0.181,0.538,0.292,0.863,0.292c0.325,0,0.621-0.111,0.863-0.292H93.719z"/>
</g>
<path opacity="0.3" fill="#F6C2AE" d="M81.057,188.658c0.889,0,1.61-0.83,1.61-1.855v-1.218c-0.318,0.838-0.919,1.405-1.61,1.405
	c-0.691,0-1.292-0.567-1.61-1.405v1.218C79.447,187.828,80.168,188.658,81.057,188.658z"/>
<path opacity="0.3" fill="#F6C2AE" d="M84.358,188.658c0.889,0,1.61-0.83,1.61-1.855v-1.241h-0.068
	c-0.332,0.746-0.899,1.238-1.543,1.238s-1.211-0.492-1.543-1.238h-0.068v1.241C82.748,187.828,83.469,188.658,84.358,188.658z"/>
<path opacity="0.3" fill="#F6C2AE" d="M87.659,188.658c0.889,0,1.61-0.83,1.61-1.855v-1.241h-0.068
	c-0.332,0.746-0.899,1.238-1.543,1.238s-1.211-0.492-1.543-1.238h-0.068v1.241C86.049,187.828,86.769,188.658,87.659,188.658z"/>
<path opacity="0.3" fill="#F6C2AE" d="M92.499,185.562c-0.321,0.824-0.916,1.379-1.6,1.379c-0.651,0-1.22-0.507-1.55-1.267v1.13
	c0,1.024,0.721,1.855,1.61,1.855s1.61-0.83,1.61-1.855v-1.241H92.499z"/>
<g>
	<path fill="#FCF3E0" d="M115.756,186.79c0,1.024,0.721,1.855,1.61,1.855l0,0c0.889,0,1.61-0.83,1.61-1.855v-5.1
		c0-1.024-0.721-1.855-1.61-1.855l0,0c-0.889,0-1.61,0.83-1.61,1.855V186.79z"/>
	<path fill="#FCF3E0" d="M125.658,186.79c0,1.024,0.721,1.855,1.61,1.855l0,0c0.889,0,1.61-0.83,1.61-1.855v-5.1
		c0-1.024-0.721-1.855-1.61-1.855l0,0c-0.889,0-1.61,0.83-1.61,1.855V186.79z"/>
	<path fill="#FCF3E0" d="M119.056,186.79c0,1.024,0.721,1.855,1.61,1.855l0,0c0.889,0,1.61-0.83,1.61-1.855v-6.955
		c0-1.024-0.721-1.855-1.61-1.855l0,0c-0.889,0-1.61,0.83-1.61,1.855V186.79z"/>
	<path fill="#FCF3E0" d="M122.357,186.79c0,1.024,0.721,1.855,1.61,1.855l0,0c0.889,0,1.61-0.83,1.61-1.855v-6.213
		c0-1.024-0.721-1.855-1.61-1.855l0,0c-0.889,0-1.61,0.83-1.61,1.855V186.79z"/>
	<circle fill="#FCF3E0" cx="113.75" cy="186.736" r="1.751"/>
	<path fill="#FCFAF7" d="M116.403,181.94c-0.117-0.185-0.188-0.404-0.188-0.639c0-0.662,0.537-1.199,1.199-1.199
		s1.199,0.537,1.199,1.199c0,0.236-0.07,0.454-0.188,0.639H116.403z"/>
	<path fill="#FCFAF7" d="M119.664,180.168c-0.117-0.185-0.188-0.404-0.188-0.639c0-0.662,0.537-1.199,1.199-1.199
		s1.199,0.537,1.199,1.199c0,0.236-0.07,0.454-0.188,0.639H119.664z"/>
	<path fill="#FCFAF7" d="M122.924,180.933c-0.117-0.185-0.188-0.404-0.188-0.639c0-0.662,0.537-1.199,1.199-1.199
		s1.199,0.537,1.199,1.199c0,0.236-0.07,0.454-0.188,0.639H122.924z"/>
	<path fill="#FCFAF7" d="M126.225,182.06c-0.117-0.185-0.188-0.404-0.188-0.639c0-0.662,0.537-1.199,1.199-1.199
		s1.199,0.537,1.199,1.199c0,0.236-0.07,0.454-0.188,0.639H126.225z"/>
	<path fill="#FCFAF7" d="M114.606,187.904c-0.241,0.181-0.538,0.292-0.863,0.292s-0.621-0.111-0.863-0.292H114.606z"/>
</g>
<path opacity="0.3" fill="#F6C2AE" d="M127.268,188.658c-0.889,0-1.61-0.83-1.61-1.855v-1.218c0.318,0.838,0.919,1.405,1.61,1.405
	c0.691,0,1.292-0.567,1.61-1.405v1.218C128.878,187.828,128.157,188.658,127.268,188.658z"/>
<path opacity="0.3" fill="#F6C2AE" d="M123.967,188.658c-0.889,0-1.61-0.83-1.61-1.855v-1.241h0.068
	c0.332,0.746,0.899,1.238,1.543,1.238s1.211-0.492,1.543-1.238h0.068v1.241C125.578,187.828,124.857,188.658,123.967,188.658z"/>
<path opacity="0.3" fill="#F6C2AE" d="M120.667,188.658c-0.889,0-1.61-0.83-1.61-1.855v-1.241h0.068
	c0.332,0.746,0.899,1.238,1.543,1.238s1.211-0.492,1.543-1.238h0.068v1.241C122.277,187.828,121.556,188.658,120.667,188.658z"/>
<path opacity="0.3" fill="#F6C2AE" d="M115.826,185.562c0.321,0.824,0.916,1.379,1.6,1.379c0.651,0,1.22-0.507,1.55-1.267v1.13
	c0,1.024-0.721,1.855-1.61,1.855s-1.61-0.83-1.61-1.855v-1.241H115.826z"/>
<path fill="#07405F" d="M141.334,69.911c0-19.319-15.551-31.363-32.926-39.108l0.183,0.058l3.006-4.723l-5.152,3.006l-2.362-4.938
	l0.394,4.928c-0.735-0.297-1.47-0.589-2.207-0.872c-19.671,6.465-39.064,20.076-39.064,41.65c0,4.301,0.698,8.439,1.982,12.31
	l-0.071-0.05l0.472,1.197c0.213,0.58,0.439,1.153,0.678,1.72l9.262,23.49l-0.114-13.961l4.535-6.564v4.83l5.313-6.279l13.525,12.558
	l-1.449-5.796l7.245,8.211l-2.898-10.626c0,0,11.592-1.449,22.702,10.626c0.483-2.898,0.483-8.211,0.483-8.211
	s3.789,2.121,5.812,5.108l-0.013,10.117l8.274-25.205c0.219-0.596,0.424-1.198,0.614-1.807l0.109-0.32l-0.012,0.01
	C140.745,77.675,141.334,73.862,141.334,69.911z"/>
<rect x="71.235" y="124.682" fill="#84CBC5" width="62.635" height="7.557"/>
<rect x="98.688" y="124.672" fill="#07405F" width="9.231" height="60.971"/>
<path fill="#07405F" d="M97.552,120.677c-2.8,0-3.602,1.66-2.279,3.158c0.312,0.353,0.714,0.66,1.154,0.914h0.481
	c-0.344-0.206-0.649-0.452-0.875-0.729c-0.918-1.13-0.18-2.295,1.899-2.295c2.079,0,3.893,1.165,4.017,2.295
	c0.031,0.278-0.049,0.523-0.202,0.729h0.616c0.21-0.255,0.334-0.562,0.326-0.914C102.657,122.338,100.352,120.677,97.552,120.677z"
	/>
<path fill="#07405F" d="M107.978,118.904c-3.785,0-6.535,2.461-6.273,4.489c0.07,0.545,0.356,0.996,0.761,1.343h0.707
	c-0.288-0.268-0.471-0.609-0.479-1.009c-0.029-1.39,2.213-3.478,4.744-3.478c2.531,0,3.206,2.088,2.137,3.478
	c-0.308,0.4-0.745,0.74-1.234,1.009h0.751c0.667-0.348,1.293-0.799,1.774-1.343C112.657,121.365,111.763,118.904,107.978,118.904z"
	/>
<path fill="none" stroke="#07405F" stroke-linecap="round" stroke-miterlimit="10" d="M109.074,124.561
	c0,0,8.259-5.561,16.759-2.728c8.5,2.833,14,8.167,19.667,2.5"/>
</svg>
