<?xml version="1.0" encoding="utf-8"?>
<!-- Generator: Adobe Illustrator 17.0.0, SVG Export Plug-In . SVG Version: 6.00 Build 0)  -->
<!DOCTYPE svg PUBLIC "-//W3C//DTD SVG 1.1//EN" "http://www.w3.org/Graphics/SVG/1.1/DTD/svg11.dtd">
<svg version="1.1" id="Layer_1" xmlns="http://www.w3.org/2000/svg" xmlns:xlink="http://www.w3.org/1999/xlink" x="0px" y="0px"
	 width="200px" height="200px" viewBox="0 0 200 200" enable-background="new 0 0 200 200" xml:space="preserve">
<path fill="#EFDDC7" d="M199.516,121.958v-50.23h-90.982v-0.059l-15.68-18.282l0.008,1.01c-0.912-0.885-2.153-1.432-3.524-1.432
	l-41.065-3.797l-35.721,6.329c-1.405,0-2.675,0.573-3.592,1.496C5.498,58,2.966,61.19,2.966,64.976c0,4.004,2.83,7.346,6.598,8.139
	l0.034,0.206h2.531c0.991,0,1.794,0.803,1.794,1.794s-0.803,1.794-1.794,1.794H8.336c-0.005,0-0.011-0.001-0.016-0.001
	s-0.011,0.001-0.016,0.001H7.489v0.041C3.284,77.367,0,80.913,0,85.228c0,4.595,3.725,8.32,8.32,8.32
	c0.372,0,0.736-0.033,1.095-0.08h2.715c0.991,0,1.794,0.803,1.794,1.794s-0.803,1.794-1.794,1.794H8.774
	c-0.151-0.008-0.301-0.023-0.454-0.023c-0.153,0-0.303,0.015-0.454,0.023H7.489v0.019C3.284,97.491,0,101.037,0,105.351
	c0,4.595,3.725,8.32,8.32,8.32c0.322,0,0.638-0.023,0.95-0.058h2.86c0.991,0,1.794,0.803,1.794,1.794s-0.803,1.794-1.794,1.794
	H7.489l-0.019,0.055C3.274,117.681,0,121.224,0,125.532c0,2.471,1.084,4.684,2.795,6.208c0.455,0.529,1.069,0.929,1.794,1.22
	c1.123,0.565,2.388,0.891,3.731,0.891c0.4,0,0.791-0.038,1.176-0.093c1.286,0.038,2.499,0,3.407,0l15.13,0.061
	c0.089-0.013,0.177-0.027,0.27-0.027h17.298c0.991,0,0.991,0.083,0,0.083H32.164c0.572,4.042,2.724,12.329,9.71,12.329h48.941
	c1.011,0,1.95-0.3,2.74-0.81l0.002,0.247l0.301-0.461c0.93-0.702,1.609-1.714,1.882-2.885l12.865-19.718l-0.001-0.621h90.912
	V121.958z"/>
<g opacity="0.3">
	<path fill="#2F1915" d="M2.795,131.286c0.455,0.529,1.069,0.929,1.794,1.22c1.123,0.565,2.388,0.891,3.731,0.891
		c0.4,0,0.791-0.038,1.176-0.093c1.286,0.038,2.499,0,3.407,0l15.13,0.061c0.089-0.013,0.177-0.027,0.27-0.027h16.735v-6.152H0.274
		C0.697,128.795,1.589,130.212,2.795,131.286z"/>
	<path fill="#2F1915" d="M34.125,140.875c1.388,2.37,3.405,4.876,7.749,4.876h48.941c1.011,0,1.95-0.3,2.74-0.81l0.002,0.247
		l0.301-0.461c0.93-0.702,1.609-1.714,1.882-2.885l0.385-1.092L34.125,140.875z"/>
	<path fill="#2F1915" d="M8.32,113.217c0.322,0,0.638-0.023,0.95-0.058h2.86c0.991,0,1.794,0.803,1.794,1.794
		c0,0.146-0.022,0.286-0.055,0.422h14.083v-8.227H0.316C1.299,110.647,4.506,113.217,8.32,113.217z"/>
	<path fill="#2F1915" d="M8.32,93.093c0.372,0,0.736-0.033,1.095-0.08h2.715c0.882,0,1.612,0.638,1.762,1.477h14.059v-8.227H0.14
		C0.844,90.146,4.234,93.093,8.32,93.093z"/>
	<path fill="#2F1915" d="M9.564,72.661l0.034,0.206h2.531c0.767,0,1.417,0.484,1.673,1.161H27.95v-8.227H3.07
		C3.599,69.221,6.206,71.954,9.564,72.661z"/>
	<rect x="109.167" y="108.343" fill="#2F1915" width="90.349" height="13.161"/>
</g>
<path fill="#4A4060" d="M178.43,97.476c0,2.796-2.267,5.063-5.063,5.063h-4.078c-2.796,0-5.063-2.267-5.063-5.063v-4.078
	c0-2.796,2.267-5.063,5.063-5.063h4.078c2.796,0,5.063,2.267,5.063,5.063V97.476z"/>
<path fill="#221E2D" stroke="#4A4060" stroke-width="2.8346" stroke-miterlimit="10" d="M173.156,119.274
	c0,2.796-2.267,5.063-5.063,5.063h-46.409c-2.796,0-5.063-2.267-5.063-5.063V72.865c0-2.796,2.267-5.063,5.063-5.063h46.409
	c2.796,0,5.063,2.267,5.063,5.063V119.274z"/>
</svg>
