<?xml version="1.0" encoding="utf-8"?>
<!-- Generator: Adobe Illustrator 17.0.0, SVG Export Plug-In . SVG Version: 6.00 Build 0)  -->
<!DOCTYPE svg PUBLIC "-//W3C//DTD SVG 1.1//EN" "http://www.w3.org/Graphics/SVG/1.1/DTD/svg11.dtd">
<svg version="1.1" id="Layer_1" xmlns="http://www.w3.org/2000/svg" xmlns:xlink="http://www.w3.org/1999/xlink" x="0px" y="0px"
	 width="595.28px" height="841.89px" viewBox="0 0 595.28 841.89" enable-background="new 0 0 595.28 841.89" xml:space="preserve">
<rect x="854.807" y="569.445" fill="#EB583F" width="132.667" height="82"/>
<path opacity="0.1" fill="#231F20" enable-background="new    " d="M427.104,312.066c-11.361-38.678-47.814-59.56-80.17-70.698
	c0.106-0.019,0.206-0.04,0.312-0.058c-29.752-10.215-55.994-12.199-55.994-12.199s-7.833-0.757-6.833-10.748
	c-0.182,0.166-0.352,0.329-0.52,0.492c0.012-0.163,0.02-0.323,0.037-0.492c-6.619,6.012-3.147,10.084-2.577,10.672l-5.437-0.742
	c0.26-1.875,0.727-3.542,1.486-4.829c4.525-7.671,6.12-9.9,6.12-9.9s-8.231,4.094-11.097,3.257
	c-2.866-0.837-3.11-16.971-5.916-21.059c-1.267,9.989-4.457,14.445-6.783,16.52c-2.325,2.074-2.95-8.547-2.95-8.547
	s-3.273,9.8-6.178,10.121c-2.904,0.32-19.137-11.489-30.131-15.669c-66.907-23.414-95.228-17.024-95.228-17.024
	s-47.962,42.112-72.071,101.368c-2.58,11.111-17.788,21.428-17.788,21.428s24.188,2.763,23.464,12.633
	c1.287-1.775,2.733-2.576,4.099-2.855c0,0,0.04,0.054,0.097,0.132c0.034,0.046,0.074,0.101,0.127,0.172
	c0.019,0.026,0.044,0.061,0.066,0.09c0.057,0.078,0.123,0.167,0.196,0.267c0.031,0.042,0.066,0.09,0.099,0.136
	c0.088,0.121,0.186,0.254,0.291,0.399c0.028,0.038,0.056,0.077,0.085,0.117c0.138,0.189,0.286,0.394,0.449,0.618
	c0.001,0.001,0.002,0.003,0.003,0.004c0.876,1.21,2.094,2.909,3.467,4.873c0.009,0.013,0.018,0.025,0.027,0.038
	c0.263,0.376,0.532,0.763,0.805,1.157c0.014,0.021,0.029,0.041,0.043,0.062c0.279,0.403,0.562,0.813,0.848,1.231
	c0.003,0.004,0.005,0.008,0.008,0.011c1.172,1.709,2.394,3.527,3.571,5.341c3.563,5.49,6.714,10.937,6.808,13.16
	c0.219,5.174-4.969,19.465-4.969,19.465s33.054,11.259,51.993,43.633c22.355-5.133,52.68-11.334,52.68-11.334
	s14.241,22.318,18.142,32.606l-11.016,4.528l3,16.651l12.333,43.597h3.667l12.667,89.312l9.017-0.332h-0.005l-9.012,0.332v229.188
	h30.538h27.216v0.208h-2.42h-36.365h-55.094h-9.073c-6.627,0-12,4.88-12,10.899v10.692c0,2.788,1.163,5.324,3.059,7.252
	c0.043,0.044,0.086,0.087,0.13,0.13c0.171,0.169,0.346,0.334,0.528,0.493c0.042,0.037,0.088,0.071,0.131,0.108
	c0.332,0.28,0.681,0.542,1.046,0.786c0.085,0.057,0.167,0.117,0.253,0.172c0.155,0.098,0.314,0.189,0.474,0.28
	c0.138,0.079,0.278,0.157,0.42,0.232c0.149,0.078,0.299,0.153,0.451,0.225c0.178,0.084,0.36,0.162,0.543,0.238
	c0.129,0.053,0.255,0.11,0.386,0.159c0.31,0.117,0.625,0.222,0.947,0.315c0.097,0.028,0.197,0.049,0.296,0.075
	c0.249,0.065,0.5,0.125,0.755,0.176c0.123,0.024,0.246,0.046,0.37,0.067c0.25,0.042,0.502,0.077,0.757,0.105
	c0.114,0.013,0.227,0.027,0.341,0.037c0.367,0.031,0.736,0.051,1.112,0.051h9.073h55.094h36.365h12h8.242h24.977h37.84h6.231
	c0.394,0,0.778-0.034,1.157-0.082c0.086-0.011,0.171-0.022,0.255-0.035c0.082-0.013,0.167-0.019,0.249-0.034
	c0.268-0.05,0.532-0.112,0.79-0.185c0.018-0.005,0.035-0.012,0.053-0.017c0.027-0.008,0.052-0.018,0.079-0.026
	c0.341-0.102,0.67-0.227,0.99-0.368c0.055-0.024,0.109-0.046,0.163-0.071c0.34-0.158,0.667-0.334,0.978-0.531
	c0.014-0.009,0.028-0.019,0.042-0.029c0.317-0.204,0.615-0.428,0.897-0.669c0.01-0.008,0.02-0.016,0.029-0.024
	c1.574-1.363,2.559-3.282,2.559-5.413v-7.343c0-3.359-2.436-6.201-5.791-7.149c-0.258-0.073-0.522-0.135-0.79-0.185
	c-0.537-0.1-1.092-0.152-1.661-0.152h-6.231h-33.854l-1.13-0.583l9.624-170.742l4.722-0.349l6.913-116.033
	c0,0,18.833-13.927,17.083-21.194s-9.75-19.679-9.75-35.271c-0.481-4.859-12-12.716-12-12.716l-5.861-1.804
	c0.096-0.268,0.203-0.564,0.318-0.883c0.07-0.193,0.143-0.395,0.219-0.604c0.033-0.091,0.068-0.186,0.102-0.281
	c0.063-0.172,0.127-0.347,0.193-0.528c0.051-0.138,0.104-0.282,0.157-0.426c0.06-0.162,0.12-0.326,0.183-0.495
	c0.06-0.163,0.123-0.331,0.186-0.5c0.06-0.162,0.12-0.324,0.183-0.491c0.069-0.185,0.141-0.376,0.213-0.567
	c0.06-0.16,0.12-0.32,0.182-0.484c0.078-0.206,0.158-0.417,0.238-0.628c0.062-0.164,0.124-0.327,0.188-0.494
	c0.081-0.213,0.165-0.431,0.249-0.649c0.065-0.17,0.13-0.339,0.197-0.512c0.089-0.231,0.181-0.467,0.273-0.703
	c0.064-0.164,0.127-0.327,0.192-0.493c0.095-0.242,0.192-0.487,0.288-0.733c0.066-0.168,0.132-0.335,0.199-0.505
	c0.095-0.24,0.193-0.484,0.29-0.727c0.072-0.179,0.143-0.357,0.215-0.538c0.089-0.221,0.179-0.443,0.269-0.665
	c0.084-0.207,0.168-0.414,0.253-0.622c0.074-0.182,0.15-0.365,0.226-0.547c7.363,3.82,15.181,7.814,23.515,12.001
	c-6.579-9.55-11.749-18.608-15.719-27.192c4.949-5.542,26.052,9.178,27.552-2.629s27.5-29.065,27.5-29.065
	s-5.476-3.642-8.976-21.807c-2.443-12.677,11.904-39.281,20.797-54.201l0,0c3.348-5.617,5.921-9.577,6.536-10.515
	c0.01-0.015,0.02-0.031,0.029-0.044c0.032-0.049,0.06-0.092,0.078-0.119c0.001-0.001,0.003-0.004,0.003-0.005
	c0.02-0.031,0.032-0.048,0.032-0.048l-1.809-2.095C423.162,311.503,427.104,312.066,427.104,312.066z M282.443,464.782
	c-3.88-15.565-12.006-40.393-12.006-40.393l-37.241-12.462l-0.759-0.254l-0.619,0.254l0,0l0,0h-0.001
	c-0.942-2.426-2.581-5.945-4.157-10.4c0,0,0,0,0,0.001c-0.213-0.601-0.424-1.219-0.632-1.854c-0.001-0.004-0.003-0.008-0.004-0.012
	c-0.197-0.599-0.39-1.216-0.579-1.844c-0.025-0.083-0.05-0.168-0.075-0.252c-0.366-1.23-0.714-2.517-1.034-3.854
	c-0.031-0.131-0.063-0.261-0.094-0.393c-0.15-0.645-0.294-1.301-0.429-1.969c-0.024-0.117-0.045-0.236-0.069-0.354
	c-0.108-0.551-0.209-1.112-0.305-1.679c1.455,1.976,3.041,3.526,4.693,4.158c0,0-2.382-5.648-0.577-12.929
	c9.141,8.891,31.707,25.859,87.355,55.815l-6.974,17.243L282.443,464.782z"/>
<path opacity="0.2" fill="#231F20" enable-background="new    " d="M480.567,215.84c-11.361-46.326-47.814-71.337-80.17-84.678
	c0.106-0.022,0.206-0.047,0.312-0.07c-29.752-12.235-55.994-14.611-55.994-14.611s-7.833-0.907-6.833-12.873
	c-0.182,0.199-0.352,0.394-0.52,0.589c0.012-0.196,0.02-0.387,0.037-0.589c-6.619,7.2-3.147,12.078-2.577,12.782l-5.437-0.889
	c0.26-2.246,0.727-4.243,1.486-5.784c4.525-9.188,6.12-11.857,6.12-11.857s-8.231,4.904-11.097,3.902s-3.11-20.327-5.916-25.223
	c-1.267,11.964-4.457,17.302-6.783,19.786c-2.325,2.484-2.95-10.237-2.95-10.237s-3.273,11.738-6.178,12.122
	c-2.904,0.383-19.137-13.761-30.131-18.768c-66.907-28.044-95.228-20.391-95.228-20.391s-47.962,50.439-72.071,121.413
	c-2.58,13.308-17.788,25.665-17.788,25.665s24.188,3.309,23.464,15.131c1.287-2.125,2.733-3.086,4.099-3.419
	c0,0,0.04,0.065,0.097,0.158c0.034,0.055,0.074,0.121,0.127,0.206c0.019,0.031,0.044,0.073,0.066,0.108
	c0.057,0.093,0.123,0.2,0.196,0.319c0.031,0.051,0.066,0.108,0.099,0.163c0.088,0.144,0.186,0.304,0.291,0.478
	c0.028,0.046,0.056,0.092,0.085,0.14c0.138,0.227,0.286,0.471,0.449,0.741c0.001,0.002,0.002,0.003,0.003,0.005
	c0.876,1.449,2.094,3.485,3.467,5.836c0.009,0.015,0.018,0.031,0.027,0.046c0.263,0.451,0.532,0.913,0.805,1.385
	c0.014,0.025,0.029,0.05,0.043,0.075c0.279,0.482,0.562,0.974,0.848,1.474c0.003,0.005,0.005,0.009,0.008,0.014
	c1.172,2.046,2.394,4.225,3.571,6.397c3.563,6.575,6.714,13.1,6.808,15.763c0.219,6.197-4.969,23.314-4.969,23.314
	s33.054,13.485,51.993,52.261c22.355-6.148,52.68-13.575,52.68-13.575s14.241,26.731,18.142,39.053l-11.016,5.423l3,19.944
	l12.333,52.218h3.667L271.9,536.761l9.017-0.398h-0.005l-9.012,0.397v274.508h30.538h27.216v0.249h-2.42h-36.365h-55.094h-9.073
	c-6.627,0-12,5.845-12,13.054v12.806c0,3.34,1.163,6.377,3.059,8.685c0.043,0.052,0.086,0.104,0.13,0.156
	c0.171,0.202,0.346,0.4,0.528,0.59c0.042,0.044,0.088,0.086,0.131,0.129c0.332,0.335,0.681,0.649,1.046,0.942
	c0.085,0.068,0.167,0.14,0.253,0.206c0.155,0.117,0.314,0.226,0.474,0.335c0.138,0.095,0.278,0.188,0.42,0.278
	c0.149,0.093,0.299,0.183,0.451,0.269c0.178,0.101,0.36,0.194,0.543,0.285c0.129,0.064,0.255,0.132,0.386,0.191
	c0.31,0.14,0.625,0.266,0.947,0.377c0.097,0.034,0.197,0.059,0.296,0.09c0.249,0.078,0.5,0.15,0.755,0.211
	c0.123,0.029,0.246,0.055,0.37,0.08c0.25,0.051,0.502,0.092,0.757,0.126c0.114,0.015,0.227,0.032,0.341,0.044
	c0.367,0.037,0.736,0.061,1.112,0.061h9.073h55.094h36.365h12h8.242h24.977h37.84h6.231c0.394,0,0.778-0.04,1.157-0.098
	c0.086-0.013,0.171-0.026,0.255-0.042c0.082-0.015,0.167-0.023,0.249-0.041c0.268-0.06,0.532-0.134,0.79-0.221
	c0.018-0.006,0.035-0.015,0.053-0.021c0.027-0.009,0.052-0.022,0.079-0.032c0.341-0.122,0.67-0.272,0.99-0.44
	c0.055-0.029,0.109-0.055,0.163-0.086c0.34-0.189,0.667-0.4,0.978-0.637c0.014-0.011,0.028-0.023,0.042-0.034
	c0.317-0.244,0.615-0.512,0.897-0.802c0.01-0.01,0.02-0.019,0.029-0.029c1.574-1.633,2.559-3.931,2.559-6.483v-8.795
	c0-4.023-2.436-7.428-5.791-8.563c-0.258-0.087-0.522-0.161-0.79-0.221c-0.537-0.119-1.092-0.182-1.661-0.182h-6.231h-33.854
	l-1.13-0.698l9.624-204.505l4.722-0.418l6.913-138.978c0,0,18.833-16.681,17.083-25.384s-9.75-23.57-9.75-42.245
	c-0.481-5.82-12-15.23-12-15.23l-5.861-2.161c0.096-0.321,0.203-0.676,0.318-1.057c0.07-0.231,0.143-0.473,0.219-0.724
	c0.033-0.109,0.068-0.223,0.102-0.336c0.063-0.206,0.127-0.416,0.193-0.633c0.051-0.166,0.104-0.338,0.157-0.51
	c0.06-0.194,0.12-0.39,0.183-0.593c0.06-0.195,0.123-0.397,0.186-0.599c0.06-0.194,0.12-0.388,0.183-0.588
	c0.069-0.222,0.141-0.451,0.213-0.679c0.06-0.192,0.12-0.384,0.182-0.58c0.078-0.246,0.158-0.499,0.238-0.752
	c0.062-0.196,0.124-0.391,0.188-0.591c0.081-0.255,0.165-0.517,0.249-0.778c0.065-0.204,0.13-0.406,0.197-0.613
	c0.089-0.277,0.181-0.56,0.273-0.842c0.064-0.197,0.127-0.392,0.192-0.59c0.095-0.29,0.192-0.584,0.288-0.878
	c0.066-0.202,0.132-0.402,0.199-0.605c0.095-0.288,0.193-0.579,0.29-0.87c0.072-0.215,0.143-0.428,0.215-0.644
	c0.089-0.264,0.179-0.531,0.269-0.797c0.084-0.248,0.168-0.496,0.253-0.745c0.074-0.218,0.15-0.437,0.226-0.655
	c7.363,4.575,15.181,9.359,23.515,14.374c-6.579-11.438-11.749-22.288-15.719-32.569c4.949-6.638,26.052,10.993,27.552-3.149
	s27.5-34.812,27.5-34.812s-5.476-4.362-8.976-26.119c-2.443-15.184,11.904-47.049,20.797-64.919l0,0
	c3.348-6.727,5.921-11.47,6.536-12.594c0.01-0.018,0.02-0.037,0.029-0.053c0.032-0.058,0.06-0.11,0.078-0.143
	c0.001-0.002,0.003-0.005,0.003-0.006c0.02-0.037,0.032-0.058,0.032-0.058l-1.809-2.509
	C476.625,215.166,480.567,215.84,480.567,215.84z M335.906,398.755c-3.88-18.643-12.006-48.381-12.006-48.381l-37.241-14.926
	l-0.759-0.304l-0.619,0.305l0,0l0,0h-0.001c-0.942-2.906-2.581-7.121-4.157-12.457c0,0,0,0,0,0.001
	c-0.213-0.72-0.424-1.461-0.632-2.221c-0.001-0.005-0.003-0.009-0.004-0.014c-0.197-0.718-0.39-1.456-0.579-2.209
	c-0.025-0.1-0.05-0.201-0.075-0.302c-0.366-1.474-0.714-3.014-1.034-4.616c-0.031-0.157-0.063-0.313-0.094-0.471
	c-0.15-0.772-0.294-1.558-0.429-2.358c-0.024-0.14-0.045-0.283-0.069-0.424c-0.108-0.66-0.209-1.332-0.305-2.011
	c1.455,2.367,3.041,4.223,4.693,4.98c0,0-2.382-6.765-0.577-15.486c9.141,10.649,31.707,30.973,87.355,66.852l-6.974,20.652
	L335.906,398.755z"/>
<polygon fill="#EB583F" points="333.641,553.19 324.629,553.555 324.629,817.321 370.25,817.321 384.629,536.46 "/>
<path fill="#FEF3DF" d="M447.375,235.39l20,25.5c0,0-30.976,51.491-27.476,71.491s8.976,24.009,8.976,24.009s-26,19-27.5,32
	s-22.605-3.209-27.553,2.896c-4.947,6.104-13.447,33.104-13.447,33.104l-23-10l9-24.5l-16.5-161L447.375,235.39z"/>
<path fill="#F7C3AD" d="M447.375,235.39l-97.5-6.5l16.5,161l-6.938,18.887c6.779,4.026,14.059,8.27,21.868,12.735
	c1.423-4.332,4.285-12.78,7.203-19.837c-35.792-91.02,41.158-132.091,48.032-135.545c-1.993,1.117-9.747,6.881-15.513,31.094
	c13.089-17.997,29.179-23.189,39.668-24.519c3.85-7.111,6.679-11.815,6.679-11.815L447.375,235.39z"/>
<path fill="#083F5E" d="M357.375,414.39l-30.5,14.167v204.449l57.754-4.697l6.913-127.752c0,0,18.833-15.334,17.083-23.334
	s-9.75-21.666-9.75-38.833c-0.48-5.35-12-14-12-14L357.375,414.39z"/>
<ellipse transform="matrix(0.219 -0.9757 0.9757 0.219 22.7722 676.8696)" fill="#083F5E" cx="434.204" cy="324.21" rx="8.333" ry="3"/>
<path fill="#EB583F" d="M475.542,258.557c0,0-29.334-4.666-50.667,24.667c6.667-28,16-31.334,16-31.334
	s-105.999,49.999-31.333,169.333c-140.09-77.501-138.776-96.619-138.776-96.619s-16.405-96.047,27.519-131.381
	c32.758-23.334,22.717-27.334,22.717-27.334l8.874,1.334c0,0-4.667-4.667,2.5-11.834c-1,11,6.833,11.834,6.833,11.834
	S453.709,176.723,475.542,258.557z"/>
<polygon fill="#083F5E" points="275.887,553.19 266.875,553.555 266.875,805.89 334.209,805.89 334.209,548.89 "/>
<path fill="#FEF3DF" d="M111.389,260.396c0,0,16.772,24.92,16.991,30.617c0.219,5.696-4.969,21.431-4.969,21.431
	s33.054,12.396,51.993,48.04c22.354-5.652,52.68-12.478,52.68-12.478s16.498,28.462,18.848,38.246
	c2.351,9.784,33.403-11.245,34.081-14.168c0.678-2.923-7.394-15.572-8.822-34.381C270.761,318.893,208.084,210.972,111.389,260.396z
	"/>
<path fill="#F7C3AD" d="M272.189,337.702c-1.428-18.809-64.105-126.73-160.801-77.306c0,0,5.467,8.124,10.199,16.156
	c7.11,3.19,51.024,23.296,51.703,33.594c0.738,11.207,1.115-9.237,1.115-9.237s34.59,19.055,35.289,31.536
	c1.465-2.997-1.525-11.132-1.525-11.132l12.51,25.741c0,0-3.04-32.27,11.784-34.223c14.823-1.952,30.438,10.394,30.097,32.898
	c3.343-6.668,6.452-5.69,6.452-5.69s2.926,10.203,7.086,17.015C274.39,351.735,272.76,345.212,272.189,337.702z"/>
<path fill="#EB583F" d="M334.209,453.223v-8h-2.667c0,0,0.666,1.666,1.333-6c0.667-7.666-14-56.999-14-56.999l-37.241-13.72
	l-0.759-0.28l-4.776,2.161l-40.891,18.505l3,18.333l12.334,48h3.666l12.667,98.332l49.334-2l-2.334-93.666l19-5"/>
<ellipse transform="matrix(-0.2938 -0.9559 0.9559 -0.2938 -99.933 504.3829)" fill="#083F5E" cx="136.356" cy="289.107" rx="8.333" ry="3"/>
<g>
	<path fill="#FEF3DF" d="M307.467,628.309c-1.172,0-2.362-0.18-3.537-0.559c-6.043-1.951-9.361-8.434-7.409-14.478
		c28.11-87.051,11.294-153.586,11.12-154.248c-1.607-6.145,2.071-12.429,8.216-14.036c6.15-1.604,12.429,2.072,14.036,8.216
		c0.776,2.968,18.668,73.761-11.485,167.137C316.835,625.209,312.321,628.309,307.467,628.309z"/>
</g>
<path fill="#F7C3AD" d="M329.893,453.204c-1.607-6.144-7.887-9.82-14.036-8.216c-0.973,0.255-1.875,0.638-2.713,1.107
	c2.625,1.475,4.675,3.965,5.497,7.108c0.776,2.968,18.668,73.761-11.485,167.137c-0.928,2.874-2.885,5.124-5.327,6.491
	c0.657,0.368,1.358,0.678,2.102,0.918c1.175,0.38,2.365,0.559,3.537,0.559c4.854,0,9.368-3.1,10.94-7.969
	C348.56,526.964,330.669,456.171,329.893,453.204z"/>
<g>
	<path fill="#FEF3DF" d="M353.027,645.404c1.172,0,2.362-0.18,3.537-0.56c6.043-1.951,9.361-8.434,7.409-14.477
		c-28.11-87.051-11.294-153.586-11.12-154.248c1.607-6.145-2.071-12.429-8.216-14.036c-6.149-1.604-12.429,2.072-14.036,8.216
		c-0.776,2.968-18.668,73.761,11.485,167.137C343.659,642.304,348.173,645.404,353.027,645.404z"/>
</g>
<path fill="#F7C3AD" d="M330.602,470.298c1.607-6.144,7.887-9.82,14.036-8.216c0.973,0.255,1.875,0.638,2.713,1.107
	c-2.625,1.475-4.675,3.965-5.497,7.108c-0.776,2.968-18.668,73.761,11.485,167.137c0.928,2.874,2.885,5.124,5.327,6.491
	c-0.657,0.368-1.358,0.678-2.102,0.918c-1.175,0.38-2.365,0.56-3.537,0.56c-4.854,0-9.368-3.1-10.94-7.969
	C311.934,544.059,329.825,473.266,330.602,470.298z"/>
<path fill="#EB583F" d="M322.209,806.119h-36.365h-64.167c-6.627,0-12,5.373-12,12v11.771c0,6.627,5.373,12,12,12h64.167h36.365h12
	v-12v-11.771v-12H322.209z"/>
<path fill="#FFFFFF" d="M210.466,834.14c1.717,4.526,6.082,7.75,11.211,7.75h64.167h36.365h12v-7.75H210.466z"/>
<path fill="#FFFFFF" d="M230.75,806.119h-9.073c-6.627,0-12,5.373-12,12v11.771c0,6.627,5.373,12,12,12h9.073V806.119z"/>
<path fill="#083F5E" d="M342.451,817.321h24.977h44.071c4.552,0,8.242,3.69,8.242,8.242v8.085c0,4.552-3.69,8.242-8.242,8.242
	h-44.071h-24.977h-8.242v-8.242v-8.085v-8.242H342.451z"/>
<path fill="#FFFFFF" d="M419.199,836.567c-1.18,3.109-4.178,5.323-7.7,5.323h-44.071h-24.977h-8.242v-5.323H419.199z"/>
<path fill="#FFFFFF" d="M405.267,817.321h6.231c4.552,0,8.242,3.69,8.242,8.242v8.085c0,4.552-3.69,8.242-8.242,8.242h-6.231
	V817.321z"/>
<polyline fill="#F7C3AD" points="327.333,446.015 305.625,450.015 308.415,462.515 330.935,460.182 330.042,453.473 "/>
<polyline fill="#F7C3AD" points="353.478,465.969 331.819,461.706 329.818,474.357 351.618,480.468 353.254,473.901 "/>
<polyline fill="#EB583F" points="331.5,451.89 331.5,453.251 304.5,459.39 303.167,446.39 327.333,442.89 "/>
<polyline fill="#083F5E" points="357.417,472.659 357.003,473.955 329.414,471.601 332.094,458.81 356.181,462.818 "/>
<path fill="#9E3A2D" d="M299,425.89l2.828,22l-1.414,1.625l2.753,8.875l4.396,0.304c0,0,4.313,15.261,5.118,44.82
	c0.364,13.371-2.445,48.284-2.445,48.284L292,451.14L299,425.89z"/>
<polygon fill="#9E3A2D" points="330.625,445.64 332.25,439.515 317.333,384.557 280.256,368.504 304.5,390.89 314.514,442.062 
	319.5,444.057 315.026,444.683 317.333,456.472 333.688,452.64 333.688,445.64 "/>
<polygon fill="#052330" points="356,417.89 331.5,429.517 331.5,447.557 333.688,462.074 331.5,469.223 343.75,469.223 
	343.75,451.14 "/>
<polygon fill="#052330" points="334.413,606.39 334.413,805.89 297.413,805.89 319.413,793.39 313.08,787.89 322.626,785.89 
	322.626,747.89 316.885,741.89 322.626,731.89 322.626,698.14 312.269,686.39 327.246,658.39 "/>
<polygon fill="#9E3A2D" points="334.413,617.821 334.413,817.321 371.413,817.321 349.413,804.821 355.746,799.321 346.2,797.321 
	346.2,759.321 351.941,753.321 346.2,743.321 346.2,709.571 356.556,697.821 341.58,669.821 "/>
<line fill="none" stroke="#FFFFFF" stroke-width="8.5039" stroke-linecap="round" stroke-linejoin="round" stroke-miterlimit="10" x1="240.5" y1="805.89" x2="240.5" y2="817.321"/>
<line fill="none" stroke="#FFFFFF" stroke-width="8.5039" stroke-linecap="round" stroke-linejoin="round" stroke-miterlimit="10" x1="256.5" y1="805.89" x2="256.5" y2="817.321"/>
<line fill="none" stroke="#FFFFFF" stroke-width="8.5039" stroke-linecap="round" stroke-linejoin="round" stroke-miterlimit="10" x1="376.629" y1="814.89" x2="376.629" y2="826.321"/>
<line fill="none" stroke="#FFFFFF" stroke-width="8.5039" stroke-linecap="round" stroke-linejoin="round" stroke-miterlimit="10" x1="392.629" y1="814.89" x2="392.629" y2="826.321"/>
<path fill="#9E3A2D" d="M339.691,167.224c0,0-7.833-0.833-6.833-11.833c-7.167,7.167-2.5,11.833-2.5,11.833l-8.874-1.333
	c0,0,10.041,4-22.717,27.333c-43.924,35.333-27.519,131.381-27.519,131.381s-0.722,10.681,57.366,48.418
	c-0.38-1.446-0.793-2.944-1.257-4.519C303.9,288.87,280.255,202.89,395.684,180.655
	C365.933,169.407,339.691,167.224,339.691,167.224z"/>
<path fill="#083F5E" d="M277.57,348.188c0,0-7.681-20.002,14.933-34.519c22.614-14.518,30.957-37.22,33.29-63.882
	c2.332-26.662,6.121-62.996,6.121-62.996l-4.919,5.788c0,0-5.673-23.129-1.148-31.575s6.12-10.899,6.12-10.899
	s-8.23,4.508-11.097,3.586c-2.866-0.921-3.11-18.685-5.916-23.186c-1.267,10.998-4.457,15.904-6.783,18.188
	c-2.325,2.284-2.95-9.41-2.95-9.41s-3.273,10.79-6.178,11.143c-2.904,0.353-19.137-12.649-30.131-17.252
	c-66.907-25.778-95.227-18.744-95.227-18.744s-47.962,46.365-72.071,111.606c-2.58,12.233-17.788,23.592-17.788,23.592
	s24.187,3.042,23.464,13.909c3.96-6.011,9.427-1.92,9.427-1.92s51.938,22.821,52.676,34.027c0.738,11.207,1.115-9.237,1.115-9.237
	s34.59,19.055,35.289,31.536c1.464-2.997-1.525-11.132-1.525-11.132l12.509,25.741c0,0-3.04-32.27,11.785-34.223
	c14.824-1.952,30.439,10.394,30.097,32.898c3.343-6.668,6.452-5.69,6.452-5.69S270.79,345.333,277.57,348.188z"/>
<polygon fill="#FEF3DF" points="919.699,482.203 1006.695,433.205 1006.695,257.714 835.704,257.714 835.704,432.205 "/>
<path opacity="0.5" fill="#F7C3AD" d="M1006.695,257.714H835.704v130.532l13.499-19.537v14.999l16.499-19.499l41.998,38.998
	l-4.5-17.999l22.499,25.499l-9-32.998c0,0,35.998-4.5,70.497,32.998c1.5-9,1.5-25.499,1.5-25.499s11.707,6.552,17.999,15.793
	V257.714z"/>
<ellipse transform="matrix(-0.0089 -1 1 -0.0089 546.7172 1356.0237)" fill="#083F5E" cx="945.33" cy="407.089" rx="8.333" ry="3"/>
<ellipse transform="matrix(-0.0089 -1 1 -0.0089 496.606 1306.359)" fill="#083F5E" cx="895.663" cy="407.089" rx="8.333" ry="3"/>
<path fill="#083F5E" d="M914.665,431.738c-0.015,0.192-0.025,0.386-0.025,0.582c0,4.096,3.32,7.416,7.417,7.416
	c4.096,0,7.416-3.32,7.416-7.416c0-0.196-0.01-0.39-0.025-0.582H914.665z"/>
<rect x="911.17" y="453.445" fill="#FEF3DF" width="17.333" height="64.667"/>
<rect x="825.341" y="417.536" fill="#84CBC5" width="188.991" height="188.991"/>
<rect x="825.14" y="420.227" fill="#31726A" width="189.333" height="23.466"/>
<path fill="#FDF3DF" d="M1364.516,538.958v-50.23h-90.982l0-0.059l-15.681-18.282l0.008,1.01c-0.911-0.885-2.153-1.432-3.523-1.432
	l-41.065-3.797l-35.721,6.328c-1.405,0-2.675,0.573-3.592,1.496c-3.461,1.007-5.993,4.197-5.993,7.983
	c0,4.004,2.83,7.346,6.598,8.139l0.034,0.206h2.531c0.991,0,1.794,0.803,1.794,1.794c0,0.991-0.803,1.794-1.794,1.794h-3.794
	c-0.005,0-0.011-0.001-0.016-0.001c-0.005,0-0.011,0.001-0.016,0.001h-0.814v0.041c-4.205,0.417-7.489,3.963-7.489,8.278
	c0,4.595,3.725,8.32,8.319,8.32c0.372,0,0.736-0.033,1.095-0.08h2.715c0.991,0,1.794,0.803,1.794,1.794
	c0,0.991-0.803,1.794-1.794,1.794h-3.356c-0.151-0.008-0.301-0.023-0.454-0.023c-0.153,0-0.303,0.015-0.454,0.023h-0.376v0.019
	c-4.205,0.417-7.489,3.963-7.489,8.278c0,4.595,3.725,8.319,8.319,8.319c0.322,0,0.638-0.023,0.95-0.058h2.86
	c0.991,0,1.794,0.803,1.794,1.794c0,0.991-0.803,1.794-1.794,1.794h-4.641l-0.019,0.055c-4.196,0.426-7.47,3.969-7.47,8.277
	c0,2.471,1.084,4.684,2.795,6.208c0.455,0.529,1.069,0.929,1.794,1.22c1.123,0.565,2.388,0.891,3.731,0.891
	c0.4,0,0.791-0.038,1.176-0.093c1.286,0.038,2.499,0,3.407,0l15.13,0.061c0.089-0.013,0.177-0.027,0.27-0.027h17.298
	c0.991,0,1.794,0.803,1.794,1.794c0,0.991-0.803,1.794-1.794,1.794h-13.437c0.572,4.042,2.724,8.824,9.71,8.824h48.941
	c1.011,0,1.95-0.3,2.74-0.81l0.002,0.247l0.301-0.461c0.93-0.702,1.609-1.714,1.882-2.885l12.865-19.718l-0.001-0.621H1364.516z"/>
<g opacity="0.3">
	<path fill="#F6C2AD" d="M1167.795,548.286c0.455,0.529,1.069,0.929,1.794,1.22c1.123,0.565,2.388,0.891,3.731,0.891
		c0.401,0,0.791-0.038,1.176-0.093c1.286,0.038,2.499,0,3.407,0l15.13,0.061c0.089-0.013,0.177-0.027,0.27-0.027h16.735v-6.152
		h-44.764C1165.697,545.795,1166.589,547.212,1167.795,548.286z"/>
	<path fill="#F6C2AD" d="M1198.668,558.532c1.388,2.37,3.862,4.219,8.206,4.219h48.941c1.011,0,1.95-0.299,2.74-0.81l0.002,0.247
		l0.301-0.461c0.93-0.702,1.609-1.714,1.882-2.885l0.202-0.31H1198.668z"/>
	<path fill="#F6C2AD" d="M1173.319,530.217c0.322,0,0.638-0.023,0.95-0.058h2.86c0.991,0,1.794,0.803,1.794,1.794
		c0,0.146-0.022,0.286-0.055,0.422h14.083v-8.227h-27.635C1166.299,527.647,1169.506,530.217,1173.319,530.217z"/>
	<path fill="#F6C2AD" d="M1173.319,510.093c0.372,0,0.736-0.033,1.095-0.08h2.715c0.882,0,1.612,0.638,1.762,1.478h14.059v-8.227
		h-27.811C1165.844,507.146,1169.234,510.093,1173.319,510.093z"/>
	<path fill="#F6C2AD" d="M1174.564,489.661l0.034,0.206h2.531c0.767,0,1.417,0.484,1.673,1.161h14.148v-8.227h-24.881
		C1168.599,486.221,1171.206,488.954,1174.564,489.661z"/>
	<rect x="1274.167" y="525.343" fill="#F6C2AD" width="90.349" height="13.161"/>
</g>
<path fill="#4A4060" d="M1453.43,475.476c0,2.796-2.267,5.063-5.063,5.063h-4.078c-2.796,0-5.063-2.267-5.063-5.063v-4.078
	c0-2.796,2.267-5.063,5.063-5.063h4.078c2.796,0,5.063,2.267,5.063,5.063V475.476z"/>
<path fill="#221D2D" stroke="#4A4060" stroke-width="2.8346" stroke-miterlimit="10" d="M1448.156,497.274
	c0,2.796-2.267,5.063-5.063,5.063h-46.409c-2.796,0-5.063-2.267-5.063-5.063v-46.409c0-2.796,2.267-5.063,5.063-5.063h46.409
	c2.796,0,5.063,2.267,5.063,5.063V497.274z"/>
<path fill="#FDF3DF" d="M888.39,610.425c0,3.181-2.239,5.759-5,5.759l0,0c-2.761,0-5-2.578-5-5.759v-15.837
	c0-3.181,2.239-5.759,5-5.759l0,0c2.761,0,5,2.578,5,5.759V610.425z"/>
<path fill="#FDF3DF" d="M857.64,610.425c0,3.181-2.239,5.759-5,5.759l0,0c-2.761,0-5-2.578-5-5.759v-15.837
	c0-3.181,2.239-5.759,5-5.759l0,0c2.761,0,5,2.578,5,5.759V610.425z"/>
<path fill="#FDF3DF" d="M878.14,610.425c0,3.181-2.239,5.759-5,5.759l0,0c-2.761,0-5-2.578-5-5.759v-21.596
	c0-3.181,2.239-5.759,5-5.759l0,0c2.761,0,5,2.578,5,5.759V610.425z"/>
<path fill="#FDF3DF" d="M867.89,610.425c0,3.181-2.239,5.759-5,5.759l0,0c-2.761,0-5-2.578-5-5.759v-19.293
	c0-3.181,2.239-5.759,5-5.759l0,0c2.761,0,5,2.578,5,5.759V610.425z"/>
<circle fill="#FDF3DF" cx="894.618" cy="610.257" r="5.438"/>
<path fill="#FCFAF7" d="M886.38,595.362c0.365-0.576,0.583-1.253,0.583-1.985c0-2.057-1.668-3.725-3.725-3.725
	s-3.725,1.668-3.725,3.725c0,0.732,0.219,1.409,0.583,1.985H886.38z"/>
<path fill="#FCFAF7" d="M876.255,589.862c0.365-0.576,0.583-1.253,0.583-1.985c0-2.057-1.668-3.725-3.725-3.725
	s-3.725,1.668-3.725,3.725c0,0.732,0.219,1.409,0.583,1.985H876.255z"/>
<path fill="#FCFAF7" d="M866.13,592.237c0.365-0.576,0.583-1.253,0.583-1.985c0-2.057-1.668-3.725-3.725-3.725
	s-3.725,1.668-3.725,3.725c0,0.732,0.219,1.409,0.583,1.985H866.13z"/>
<path fill="#FCFAF7" d="M855.88,595.737c0.365-0.576,0.583-1.253,0.583-1.985c0-2.057-1.668-3.725-3.725-3.725
	s-3.725,1.668-3.725,3.725c0,0.732,0.219,1.409,0.583,1.985H855.88z"/>
<path fill="#FCFAF7" d="M891.96,613.883c0.75,0.562,1.671,0.906,2.68,0.906s1.93-0.345,2.68-0.906H891.96z"/>
<path opacity="0.3" fill="#F6C2AD" d="M852.64,616.225c2.761,0,5-2.578,5-5.759v-3.782c-0.988,2.603-2.854,4.364-5,4.364
	s-4.012-1.761-5-4.364v3.782C847.64,613.647,849.879,616.225,852.64,616.225z"/>
<path opacity="0.3" fill="#F6C2AD" d="M862.89,616.225c2.761,0,5-2.578,5-5.759v-3.855h-0.21c-1.03,2.316-2.79,3.844-4.79,3.844
	s-3.76-1.528-4.79-3.844h-0.21v3.855C857.89,613.647,860.129,616.225,862.89,616.225z"/>
<path opacity="0.3" fill="#F6C2AD" d="M873.14,616.225c2.761,0,5-2.578,5-5.759v-3.855h-0.21c-1.03,2.316-2.79,3.844-4.79,3.844
	s-3.76-1.528-4.79-3.844h-0.21v3.855C868.14,613.647,870.379,616.225,873.14,616.225z"/>
<path opacity="0.3" fill="#F6C2AD" d="M888.171,606.611c-0.996,2.557-2.845,4.281-4.968,4.281c-2.023,0-3.788-1.575-4.812-3.935
	v3.509c0,3.181,2.239,5.759,5,5.759s5-2.578,5-5.759v-3.855H888.171z"/>
<g>
	<path fill="#FDF3DF" d="M960.39,610.425c0,3.181,2.239,5.759,5,5.759l0,0c2.761,0,5-2.578,5-5.759v-15.837
		c0-3.181-2.239-5.759-5-5.759l0,0c-2.761,0-5,2.578-5,5.759V610.425z"/>
	<path fill="#FDF3DF" d="M991.14,610.425c0,3.181,2.239,5.759,5,5.759l0,0c2.761,0,5-2.578,5-5.759v-15.837
		c0-3.181-2.239-5.759-5-5.759l0,0c-2.761,0-5,2.578-5,5.759V610.425z"/>
	<path fill="#FDF3DF" d="M970.64,610.425c0,3.181,2.239,5.759,5,5.759l0,0c2.761,0,5-2.578,5-5.759v-21.596
		c0-3.181-2.239-5.759-5-5.759l0,0c-2.761,0-5,2.578-5,5.759V610.425z"/>
	<path fill="#FDF3DF" d="M980.89,610.425c0,3.181,2.239,5.759,5,5.759l0,0c2.761,0,5-2.578,5-5.759v-19.293
		c0-3.181-2.239-5.759-5-5.759l0,0c-2.761,0-5,2.578-5,5.759V610.425z"/>
	<circle fill="#FDF3DF" cx="954.162" cy="610.257" r="5.438"/>
	<path fill="#FCFAF7" d="M962.4,595.362c-0.365-0.576-0.583-1.253-0.583-1.985c0-2.057,1.668-3.725,3.725-3.725
		s3.725,1.668,3.725,3.725c0,0.732-0.219,1.409-0.583,1.985H962.4z"/>
	<path fill="#FCFAF7" d="M972.525,589.862c-0.365-0.576-0.583-1.253-0.583-1.985c0-2.057,1.668-3.725,3.725-3.725
		s3.725,1.668,3.725,3.725c0,0.732-0.219,1.409-0.583,1.985H972.525z"/>
	<path fill="#FCFAF7" d="M982.65,592.237c-0.365-0.576-0.583-1.253-0.583-1.985c0-2.057,1.668-3.725,3.725-3.725
		s3.725,1.668,3.725,3.725c0,0.732-0.219,1.409-0.583,1.985H982.65z"/>
	<path fill="#FCFAF7" d="M992.9,595.737c-0.365-0.576-0.583-1.253-0.583-1.985c0-2.057,1.668-3.725,3.725-3.725
		s3.725,1.668,3.725,3.725c0,0.732-0.219,1.409-0.583,1.985H992.9z"/>
	<path fill="#FCFAF7" d="M956.82,613.883c-0.75,0.562-1.671,0.906-2.68,0.906s-1.93-0.345-2.68-0.906H956.82z"/>
</g>
<path opacity="0.3" fill="#F6C2AD" d="M996.14,616.225c-2.761,0-5-2.578-5-5.759v-3.782c0.988,2.603,2.854,4.364,5,4.364
	s4.012-1.761,5-4.364v3.782C1001.14,613.647,998.901,616.225,996.14,616.225z"/>
<path opacity="0.3" fill="#F6C2AD" d="M985.89,616.225c-2.761,0-5-2.578-5-5.759v-3.855h0.21c1.03,2.316,2.79,3.844,4.79,3.844
	s3.76-1.528,4.79-3.844h0.21v3.855C990.89,613.647,988.651,616.225,985.89,616.225z"/>
<path opacity="0.3" fill="#F6C2AD" d="M975.64,616.225c-2.761,0-5-2.578-5-5.759v-3.855h0.21c1.03,2.316,2.79,3.844,4.79,3.844
	s3.76-1.528,4.79-3.844h0.21v3.855C980.64,613.647,978.401,616.225,975.64,616.225z"/>
<path opacity="0.3" fill="#F6C2AD" d="M960.609,606.611c0.996,2.557,2.845,4.281,4.968,4.281c2.023,0,3.788-1.575,4.812-3.935v3.509
	c0,3.181-2.239,5.759-5,5.759s-5-2.578-5-5.759v-3.855H960.609z"/>
<path fill="#083F5E" d="M1039.818,303.374c0-59.992-48.291-97.392-102.247-121.442l0.568,0.18l9.333-14.667l-16,9.333l-7.333-15.333
	l1.224,15.302c-2.281-0.924-4.566-1.828-6.852-2.709c-61.083,20.075-121.306,62.341-121.306,129.336
	c0,13.357,2.167,26.206,6.155,38.225l-0.221-0.154l1.465,3.716c0.661,1.801,1.363,3.581,2.106,5.34l28.762,72.943l-0.354-43.354
	l14.084-20.382v14.999l16.499-19.499l41.998,38.998l-4.5-17.999l22.499,25.499l-9-32.998c0,0,35.998-4.5,70.497,32.998
	c1.5-9,1.5-25.499,1.5-25.499s11.767,6.585,18.048,15.863l-0.041,31.416l25.693-78.27c0.68-1.85,1.316-3.72,1.907-5.611l0.338-0.994
	l-0.037,0.031C1037.991,327.482,1039.818,315.642,1039.818,303.374z"/>
<rect x="822.14" y="417.56" fill="#84CBC5" width="194.5" height="23.466"/>
<rect x="907.39" y="417.528" fill="#083F5E" width="28.667" height="189.333"/>
</svg>
