<?xml version="1.0" encoding="utf-8"?>
<!-- Generator: Adobe Illustrator 17.0.0, SVG Export Plug-In . SVG Version: 6.00 Build 0)  -->
<!DOCTYPE svg PUBLIC "-//W3C//DTD SVG 1.1//EN" "http://www.w3.org/Graphics/SVG/1.1/DTD/svg11.dtd">
<svg version="1.1" id="Layer_1" xmlns="http://www.w3.org/2000/svg" xmlns:xlink="http://www.w3.org/1999/xlink" x="0px" y="0px"
	 width="200px" height="200px" viewBox="0 0 200 200" enable-background="new 0 0 200 200" xml:space="preserve">
<path fill="#EFDDC7" d="M190.526,99.746c0-8.599-1.106-16.937-3.142-24.902H99c0,0-3.604-2.656-5.99-8.601L81.333,43.5L73.64,24.797
	c-2.954-5.729-9.993-7.979-15.722-5.025c-5.729,2.954-7.979,9.993-5.025,15.722l5.232,12.193l4.394,13.543l-51.186-0.064
	C5.626,61.167,1,65.793,1,71.5c0,5.707,4.626,10.333,10.333,10.333h4C9.626,81.833,5,86.46,5,92.167
	C5,97.874,9.626,102.5,15.333,102.5h6.333c-5.707,0-10.333,4.626-10.333,10.333c0,5.707,4.626,10.333,10.333,10.333h4.138
	l0.014,0.083h-2.151c-5.707,0-10.333,4.626-10.333,10.333c0,5.707,4.626,10.333,10.333,10.333h24c0.425,0,0.842-0.034,1.253-0.083
	h33.33c3.504,0,8.156-6.422,12.25-8.833l89.676-0.115C188.27,123.947,190.526,112.112,190.526,99.746z"/>
<path opacity="0.3" fill="#2F1915" d="M3.827,78.625c1.567,1.728,3.94,3.125,7.027,3.125c7,0,6.271-0.031,6.271-0.031v-3.094H3.827z
	"/>
<path opacity="0.3" fill="#2F1915" d="M7.702,99.125c1.567,1.728,3.94,3.125,7.027,3.125c7,0,6.271-0.031,6.271-0.031v-3.094H7.702z
	"/>
<path opacity="0.3" fill="#2F1915" d="M14.077,119.875c1.567,1.728,3.94,3.125,7.027,3.125c7,0,6.271-0.031,6.271-0.031v-3.094
	H14.077z"/>
<path opacity="0.3" fill="#2F1915" d="M16.327,140.75c1.567,1.728,3.94,3.125,7.027,3.125c7,0,59.771-0.031,59.771-0.031
	l4.625-3.094H16.327z"/>
<path opacity="0.3" fill="#2F1915" d="M88.994,131.417c1.567,1.728,3.94,3.125,7.027,3.125c7,0,87.979-0.031,87.979-0.031
	l1.667-3.094H88.994z"/>
</svg>
