<?xml version="1.0" encoding="utf-8"?>
<!-- Generator: Adobe Illustrator 17.0.0, SVG Export Plug-In . SVG Version: 6.00 Build 0)  -->
<!DOCTYPE svg PUBLIC "-//W3C//DTD SVG 1.1//EN" "http://www.w3.org/Graphics/SVG/1.1/DTD/svg11.dtd">
<svg version="1.1" id="Layer_1" xmlns="http://www.w3.org/2000/svg" xmlns:xlink="http://www.w3.org/1999/xlink" x="0px" y="0px"
	 width="156px" height="20px" viewBox="0 0 156 20" enable-background="new 0 0 156 20" xml:space="preserve">
<path fill="#342E3F" d="M0.048,0l0,10.769c0-1.193,0.967-2.16,2.16-2.16c1.193,0,2.16,0.967,2.16,2.16c0,1.193-0.967,2.16-2.16,2.16
	s-2.16-0.967-2.16-2.16l0,9.231h155.985l0-20L0.048,0z M5.494,10.101L4.785,8.939c0.478-0.292,0.976-0.581,1.48-0.86L6.924,9.27
	C6.436,9.539,5.955,9.819,5.494,10.101z M12.787,6.779c0,1.193-0.967,2.16-2.16,2.16c-0.651,0-1.228-0.294-1.624-0.75
	c-0.21,0.102-0.417,0.204-0.616,0.305L7.774,7.28C8.003,7.164,8.24,7.047,8.483,6.929c-0.004-0.05-0.015-0.098-0.015-0.15
	c0-1.193,0.967-2.16,2.16-2.16c0.624,0,1.182,0.269,1.576,0.692c0.084-0.033,0.165-0.065,0.25-0.098l0.486,1.271
	c-0.059,0.023-0.116,0.046-0.175,0.068C12.772,6.628,12.787,6.702,12.787,6.779z M14.498,5.918l-0.443-1.286
	c0.524-0.18,1.064-0.357,1.62-0.529l0.401,1.3C15.535,5.571,15.009,5.743,14.498,5.918z M22.193,5.202
	c-0.421-0.132-0.84-0.244-1.253-0.345c-0.365,0.677-1.071,1.142-1.894,1.142c-1.193,0-2.16-0.967-2.16-2.16s0.967-2.16,2.16-2.16
	c1.081,0,1.969,0.797,2.127,1.834c0.47,0.112,0.948,0.24,1.427,0.39L22.193,5.202z M23.732,5.748l0.499-1.266
	c0.512,0.202,1.044,0.43,1.582,0.68L25.24,6.397C24.726,6.158,24.219,5.94,23.732,5.748z M27.466,8.939
	c-1.193,0-2.16-0.967-2.16-2.16s0.967-2.16,2.16-2.16c1.193,0,2.16,0.967,2.16,2.16C29.626,7.972,28.659,8.939,27.466,8.939z
	 M31.054,9.626c-0.475-0.29-0.953-0.58-1.434-0.867l0.696-1.169c0.486,0.29,0.968,0.583,1.447,0.875L31.054,9.626z M35.885,13.859
	c-1.193,0-2.16-0.967-2.16-2.16c0-0.146,0.015-0.288,0.043-0.426c-0.425-0.252-0.85-0.508-1.279-0.769l0.708-1.161
	c0.42,0.255,0.836,0.506,1.252,0.754c0.382-0.342,0.881-0.556,1.435-0.556c1.193,0,2.16,0.967,2.16,2.16
	S37.078,13.859,35.885,13.859z M40.141,14.334c-0.526-0.165-1.077-0.366-1.636-0.598l0.521-1.257
	c0.522,0.217,1.034,0.404,1.521,0.556L40.141,14.334z M44.304,16.618c-1.071,0-1.954-0.782-2.124-1.805
	c-0.111-0.018-0.221-0.03-0.332-0.05l0.251-1.338c0.099,0.019,0.197,0.029,0.296,0.045c0.36-0.693,1.075-1.172,1.91-1.172
	c0.806,0,1.501,0.447,1.872,1.102c0.208-0.042,0.414-0.086,0.612-0.14l0.358,1.312c-0.23,0.063-0.469,0.114-0.71,0.163
	C46.299,15.796,45.402,16.618,44.304,16.618z M48.831,13.95l-0.583-1.229c0.459-0.218,0.902-0.476,1.354-0.789l0.775,1.118
	C49.863,13.406,49.358,13.701,48.831,13.95z M54.883,10.139c0,1.193-0.967,2.16-2.16,2.16c-1.193,0-2.16-0.967-2.16-2.16
	s0.967-2.16,2.16-2.16c0.43,0,0.828,0.129,1.165,0.346c0.344-0.244,0.681-0.455,1.018-0.633l0.634,1.204
	c-0.263,0.138-0.528,0.303-0.799,0.492C54.829,9.623,54.883,9.874,54.883,10.139z M56.947,8.361l-0.32-1.323
	C57.2,6.9,57.811,6.826,58.444,6.82l0.014,1.36C57.92,8.186,57.427,8.244,56.947,8.361z M61.142,10.019
	c-1.193,0-2.16-0.967-2.16-2.16s0.967-2.16,2.16-2.16c1.193,0,2.16,0.967,2.16,2.16S62.335,10.019,61.142,10.019z M65.02,9.169
	c-0.555-0.061-1.126-0.139-1.699-0.23l0.214-1.343c0.551,0.088,1.101,0.162,1.635,0.222L65.02,9.169z M69.562,10.739
	c-0.925,0-1.708-0.584-2.016-1.401c-0.272-0.008-0.544-0.008-0.815-0.024l0.079-1.358c0.23,0.013,0.458,0.012,0.688,0.02
	c0.262-0.897,1.082-1.557,2.064-1.557c0.921,0,1.701,0.579,2.012,1.39c0.047-0.006,0.096-0.01,0.143-0.017l0.18,1.349
	c-0.088,0.012-0.179,0.02-0.268,0.031C71.369,10.075,70.547,10.739,69.562,10.739z M73.603,8.851l-0.278-1.332
	c0.534-0.112,1.065-0.245,1.579-0.396l0.383,1.306C74.739,8.589,74.172,8.731,73.603,8.851z M80.141,6.539
	c0,1.193-0.967,2.16-2.16,2.16c-1.193,0-2.16-0.967-2.16-2.16s0.967-2.16,2.16-2.16c0.665,0,1.252,0.307,1.648,0.779
	c0.504-0.216,0.987-0.406,1.467-0.57l0.442,1.287c-0.459,0.157-0.923,0.339-1.408,0.548C80.131,6.463,80.141,6.5,80.141,6.539z
	 M86.4,6.479c-0.886,0-1.646-0.535-1.979-1.299c-0.443,0.062-0.89,0.141-1.334,0.245l-0.312-1.325
	c0.508-0.119,1.02-0.21,1.528-0.279C84.528,2.871,85.379,2.16,86.4,2.16c1.193,0,2.16,0.967,2.16,2.16S87.593,6.479,86.4,6.479z
	 M90.994,5.845c-0.513-0.176-1.034-0.325-1.548-0.443l0.305-1.326c0.56,0.129,1.127,0.291,1.685,0.482L90.994,5.845z M96.87,8.82
	c-0.201-0.117-0.392-0.225-0.589-0.34c-0.385,0.356-0.896,0.579-1.462,0.579c-1.193,0-2.16-0.967-2.16-2.16
	c0-0.124,0.016-0.243,0.036-0.361c-0.065-0.03-0.132-0.067-0.197-0.096l0.559-1.24c0.093,0.042,0.187,0.088,0.281,0.132
	c0.387-0.366,0.906-0.594,1.48-0.594c1.193,0,2.16,0.967,2.16,2.16c0,0.134-0.016,0.264-0.039,0.391
	c0.206,0.119,0.405,0.232,0.615,0.355L96.87,8.82z M99.78,10.517c-0.494-0.285-0.981-0.569-1.458-0.848l0.687-1.175
	c0.476,0.278,0.96,0.561,1.452,0.845L99.78,10.517z M105.758,13.724c-0.298-0.143-0.594-0.294-0.89-0.442
	c-0.396,0.459-0.975,0.757-1.629,0.757c-1.193,0-2.16-0.967-2.16-2.16c0-0.685,0.325-1.289,0.823-1.684l0.015-0.026
	c0.003,0.002,0.007,0.004,0.01,0.006c0.365-0.281,0.816-0.455,1.312-0.455c1.193,0,2.16,0.967,2.16,2.16
	c0,0.048-0.011,0.093-0.014,0.141c0.32,0.161,0.64,0.323,0.962,0.477L105.758,13.724z M108.893,15.086
	c-0.506-0.195-1.039-0.414-1.583-0.652l0.544-1.247c0.527,0.23,1.041,0.442,1.529,0.629L108.893,15.086z M111.658,17.818
	c-1.193,0-2.16-0.967-2.16-2.16s0.967-2.16,2.16-2.16c1.193,0,2.16,0.967,2.16,2.16C113.817,16.851,112.85,17.818,111.658,17.818z
	 M115.601,16.727c-0.56-0.04-1.144-0.112-1.736-0.214l0.231-1.34c0.548,0.094,1.087,0.161,1.602,0.197L115.601,16.727z
	 M120.077,17.818c-0.821,0-1.526-0.463-1.891-1.137c-0.271,0.031-0.545,0.055-0.822,0.069l-0.067-1.359
	c0.22-0.011,0.437-0.032,0.653-0.054c0.156-1.039,1.045-1.838,2.127-1.838c0.711,0,1.336,0.348,1.729,0.877
	c0.074-0.024,0.144-0.046,0.22-0.07l0.424,1.293c-0.073,0.024-0.141,0.045-0.213,0.068
	C122.231,16.856,121.267,17.818,120.077,17.818z M124.057,15.054l-0.447-1.285c0.511-0.178,1.039-0.365,1.58-0.561l0.462,1.28
	C125.105,14.685,124.572,14.875,124.057,15.054z M130.656,12.719c0,1.193-0.967,2.16-2.16,2.16c-1.193,0-2.16-0.967-2.16-2.16
	s0.967-2.16,2.16-2.16c0.679,0,1.277,0.32,1.673,0.81l1.333-0.496l0.474,1.275l-1.328,0.495
	C130.649,12.668,130.656,12.692,130.656,12.719z M136.915,11.879c-0.78,0-1.457-0.417-1.837-1.036l0.052,0.143
	c-0.528,0.192-1.054,0.384-1.578,0.577l-0.471-1.277c0.526-0.194,1.055-0.388,1.584-0.579l0.121,0.335
	c-0.016-0.106-0.032-0.212-0.032-0.322c0-1.193,0.967-2.16,2.16-2.16c1.193,0,2.16,0.967,2.16,2.16S138.108,11.879,136.915,11.879z
	 M139.884,9.328l-0.427-1.292c0.542-0.179,1.08-0.353,1.612-0.52l0.408,1.298C140.95,8.979,140.419,9.151,139.884,9.328z
	 M145.334,9.239c-0.778,0-1.454-0.415-1.834-1.032c-0.143,0.041-0.281,0.077-0.425,0.12l-0.383-1.306
	c0.17-0.05,0.334-0.093,0.503-0.141c0.102-1.098,1.015-1.96,2.14-1.96c0.756,0,1.418,0.389,1.804,0.977
	c0.175-0.036,0.353-0.072,0.522-0.104l0.251,1.337c-0.14,0.026-0.287,0.057-0.431,0.086C147.409,8.344,146.48,9.239,145.334,9.239z
	 M149.532,6.874l-0.166-1.351c0.625-0.076,1.213-0.121,1.746-0.133l0.029,1.36C150.653,6.761,150.112,6.803,149.532,6.874z
	 M153.753,8.519c-1.193,0-2.16-0.967-2.16-2.16s0.967-2.16,2.16-2.16c1.193,0,2.16,0.967,2.16,2.16S154.946,8.519,153.753,8.519z"/>
</svg>
