<?xml version="1.0" encoding="utf-8"?>
<!-- Generator: Adobe Illustrator 17.0.0, SVG Export Plug-In . SVG Version: 6.00 Build 0)  -->
<!DOCTYPE svg PUBLIC "-//W3C//DTD SVG 1.1//EN" "http://www.w3.org/Graphics/SVG/1.1/DTD/svg11.dtd">
<svg version="1.1" id="Layer_1" xmlns="http://www.w3.org/2000/svg" xmlns:xlink="http://www.w3.org/1999/xlink" x="0px" y="0px"
	 width="280px" height="35px" viewBox="22.5 3 280 35" enable-background="new 22.5 3 280 35" xml:space="preserve">
<path fill="#342E3F" d="M0,58.667v22.438c0-2.485,2.015-4.5,4.5-4.5S9,78.62,9,81.105s-2.015,4.5-4.5,4.5S0,83.59,0,81.105v18.479
	h325V58.667H0z M11.346,79.712l-1.478-2.42c0.995-0.607,2.033-1.21,3.083-1.792l1.373,2.48
	C13.309,78.542,12.307,79.125,11.346,79.712z M26.542,72.792c0,2.485-2.015,4.5-4.5,4.5c-1.357,0-2.559-0.613-3.384-1.562
	c-0.437,0.213-0.869,0.425-1.284,0.635l-1.278-2.529c0.477-0.241,0.971-0.485,1.477-0.731C17.566,73,17.542,72.9,17.542,72.793
	c0-2.485,2.015-4.5,4.5-4.5c1.3,0,2.462,0.56,3.284,1.441c0.175-0.068,0.343-0.136,0.52-0.204l1.013,2.648
	c-0.124,0.047-0.241,0.095-0.364,0.143C26.511,72.477,26.542,72.63,26.542,72.792z M30.107,70.998l-0.923-2.68
	c1.092-0.376,2.217-0.744,3.376-1.102l0.835,2.709C32.267,70.273,31.17,70.632,30.107,70.998z M46.14,69.506
	c-0.878-0.275-1.75-0.509-2.61-0.719c-0.76,1.41-2.232,2.38-3.946,2.38c-2.485,0-4.5-2.015-4.5-4.5c0-2.485,2.015-4.5,4.5-4.5
	c2.253,0,4.102,1.66,4.432,3.82c0.979,0.234,1.974,0.5,2.972,0.813L46.14,69.506z M49.345,70.644l1.039-2.637
	c1.066,0.42,2.176,0.896,3.296,1.416l-1.192,2.572C51.417,71.498,50.359,71.044,49.345,70.644z M57.125,77.292
	c-2.485,0-4.5-2.015-4.5-4.5s2.015-4.5,4.5-4.5s4.5,2.015,4.5,4.5S59.61,77.292,57.125,77.292z M64.601,78.723
	c-0.989-0.604-1.985-1.209-2.989-1.807l1.451-2.436c1.012,0.604,2.017,1.214,3.014,1.822L64.601,78.723z M74.667,87.542
	c-2.485,0-4.5-2.015-4.5-4.5c0-0.304,0.032-0.601,0.09-0.888c-0.885-0.526-1.772-1.059-2.664-1.603l1.476-2.42
	c0.874,0.532,1.743,1.054,2.61,1.57c0.796-0.713,1.836-1.159,2.989-1.159c2.485,0,4.5,2.015,4.5,4.5S77.152,87.542,74.667,87.542z
	 M83.534,88.532c-1.096-0.343-2.244-0.762-3.41-1.245l1.086-2.619c1.088,0.451,2.154,0.842,3.169,1.159L83.534,88.532z
	 M92.208,93.292c-2.232,0-4.071-1.629-4.425-3.76c-0.231-0.037-0.461-0.062-0.693-0.105l0.522-2.787
	c0.206,0.039,0.41,0.06,0.616,0.094c0.749-1.444,2.24-2.441,3.98-2.441c1.68,0,3.127,0.931,3.9,2.295
	c0.432-0.088,0.862-0.179,1.275-0.291l0.746,2.734c-0.48,0.131-0.978,0.238-1.479,0.339C96.364,91.579,94.496,93.292,92.208,93.292z
	 M101.64,87.732l-1.215-2.561c0.957-0.454,1.879-0.991,2.82-1.645l1.615,2.33C103.791,86.599,102.737,87.213,101.64,87.732z
	 M114.25,79.792c0,2.485-2.015,4.5-4.5,4.5s-4.5-2.015-4.5-4.5s2.015-4.5,4.5-4.5c0.896,0,1.726,0.269,2.427,0.72
	c0.717-0.509,1.419-0.948,2.122-1.318l1.321,2.508c-0.547,0.288-1.099,0.632-1.666,1.026C114.137,78.717,114.25,79.24,114.25,79.792
	z M118.551,76.087l-0.666-2.756c1.192-0.288,2.465-0.441,3.783-0.454l0.028,2.834C120.578,75.723,119.549,75.845,118.551,76.087z
	 M127.292,79.542c-2.485,0-4.5-2.015-4.5-4.5s2.015-4.5,4.5-4.5c2.485,0,4.5,2.015,4.5,4.5S129.777,79.542,127.292,79.542z
	 M135.37,77.771c-1.156-0.128-2.347-0.289-3.54-0.479l0.446-2.799c1.148,0.183,2.294,0.338,3.406,0.462L135.37,77.771z
	 M144.833,81.042c-1.927,0-3.558-1.217-4.2-2.92c-0.566-0.017-1.133-0.016-1.697-0.049l0.164-2.83
	c0.479,0.028,0.954,0.026,1.433,0.042c0.547-1.869,2.254-3.243,4.3-3.243c1.918,0,3.544,1.205,4.192,2.896
	c0.099-0.013,0.2-0.021,0.298-0.034l0.374,2.811c-0.183,0.024-0.373,0.042-0.558,0.064C148.6,79.658,146.887,81.042,144.833,81.042z
	 M153.254,77.107l-0.58-2.775c1.112-0.232,2.219-0.51,3.29-0.824l0.799,2.721C155.62,76.563,154.439,76.859,153.254,77.107z
	 M166.875,72.292c0,2.485-2.015,4.5-4.5,4.5s-4.5-2.015-4.5-4.5s2.015-4.5,4.5-4.5c1.385,0,2.608,0.639,3.433,1.623
	c1.049-0.45,2.056-0.845,3.056-1.188l0.92,2.682c-0.957,0.328-1.922,0.707-2.934,1.142
	C166.855,72.132,166.875,72.209,166.875,72.292z M179.917,72.167c-1.847,0-3.43-1.115-4.123-2.706
	c-0.923,0.129-1.855,0.293-2.779,0.511l-0.65-2.76c1.058-0.249,2.126-0.437,3.183-0.581c0.469-1.984,2.241-3.465,4.369-3.465
	c2.485,0,4.5,2.015,4.5,4.5S182.402,72.167,179.917,72.167z M189.489,70.846c-1.069-0.367-2.154-0.678-3.226-0.923l0.635-2.764
	c1.167,0.269,2.349,0.606,3.511,1.005L189.489,70.846z M201.731,77.044c-0.419-0.244-0.816-0.47-1.228-0.707
	c-0.802,0.742-1.867,1.206-3.046,1.206c-2.485,0-4.5-2.015-4.5-4.5c0-0.258,0.034-0.507,0.076-0.753
	c-0.136-0.063-0.275-0.139-0.41-0.2l1.164-2.584c0.194,0.087,0.39,0.183,0.586,0.275c0.806-0.762,1.887-1.238,3.085-1.238
	c2.485,0,4.5,2.015,4.5,4.5c0,0.279-0.034,0.549-0.082,0.814c0.429,0.248,0.843,0.484,1.281,0.739L201.731,77.044z M207.794,80.579
	c-1.028-0.595-2.043-1.186-3.038-1.768l1.432-2.447c0.991,0.58,2,1.169,3.024,1.76L207.794,80.579z M220.25,87.262
	c-0.622-0.298-1.237-0.612-1.855-0.921c-0.825,0.957-2.032,1.576-3.395,1.576c-2.485,0-4.5-2.015-4.5-4.5
	c0-1.428,0.678-2.685,1.715-3.509l0.031-0.054c0.007,0.004,0.014,0.008,0.021,0.012c0.76-0.586,1.7-0.948,2.734-0.948
	c2.485,0,4.5,2.015,4.5,4.5c0,0.1-0.023,0.194-0.03,0.293c0.667,0.335,1.333,0.673,2.004,0.995L220.25,87.262z M226.781,90.099
	c-1.054-0.406-2.164-0.863-3.299-1.358l1.133-2.598c1.098,0.479,2.169,0.92,3.186,1.312L226.781,90.099z M232.542,95.792
	c-2.485,0-4.5-2.015-4.5-4.5s2.015-4.5,4.5-4.5s4.5,2.015,4.5,4.5S235.027,95.792,232.542,95.792z M240.758,93.519
	c-1.167-0.084-2.383-0.233-3.616-0.446l0.48-2.793c1.142,0.196,2.265,0.335,3.337,0.411L240.758,93.519z M250.083,95.792
	c-1.71,0-3.179-0.965-3.94-2.369c-0.565,0.064-1.136,0.115-1.713,0.143l-0.139-2.832c0.459-0.022,0.911-0.066,1.36-0.113
	c0.326-2.165,2.177-3.829,4.432-3.829c1.481,0,2.783,0.725,3.603,1.828c0.154-0.05,0.301-0.095,0.457-0.146l0.883,2.693
	c-0.152,0.05-0.295,0.094-0.445,0.143C254.572,93.787,252.563,95.792,250.083,95.792z M258.376,90.033l-0.932-2.678
	c1.064-0.37,2.164-0.761,3.292-1.168l0.963,2.666C260.56,89.265,259.45,89.659,258.376,90.033z M272.125,85.167
	c0,2.485-2.015,4.5-4.5,4.5s-4.5-2.015-4.5-4.5s2.015-4.5,4.5-4.5c1.415,0,2.661,0.666,3.486,1.687l2.778-1.034l0.987,2.656
	l-2.767,1.031C272.111,85.061,272.125,85.112,272.125,85.167z M285.167,83.417c-1.625,0-3.035-0.869-3.827-2.159l0.108,0.298
	c-1.1,0.399-2.195,0.801-3.287,1.203l-0.98-2.66c1.096-0.404,2.197-0.808,3.301-1.207l0.253,0.697
	c-0.033-0.221-0.068-0.442-0.068-0.672c0-2.485,2.015-4.5,4.5-4.5s4.5,2.015,4.5,4.5S287.652,83.417,285.167,83.417z
	 M291.352,78.103l-0.891-2.691c1.129-0.373,2.25-0.735,3.359-1.084l0.85,2.704C293.574,77.375,292.467,77.733,291.352,78.103z
	 M302.708,77.917c-1.621,0-3.029-0.864-3.821-2.149c-0.297,0.085-0.585,0.161-0.885,0.249l-0.799-2.721
	c0.355-0.104,0.696-0.194,1.047-0.294c0.213-2.287,2.115-4.084,4.458-4.084c1.574,0,2.955,0.811,3.759,2.035
	c0.365-0.074,0.735-0.151,1.087-0.217l0.523,2.785c-0.291,0.055-0.598,0.119-0.898,0.18
	C307.031,76.051,305.097,77.917,302.708,77.917z M311.454,72.989l-0.346-2.814c1.303-0.159,2.526-0.253,3.638-0.276l0.061,2.834
	C313.79,72.754,312.662,72.841,311.454,72.989z M320.25,76.417c-2.485,0-4.5-2.015-4.5-4.5c0-2.485,2.015-4.5,4.5-4.5
	s4.5,2.015,4.5,4.5C324.75,74.402,322.735,76.417,320.25,76.417z"/>
<g>
	<polygon fill="#342E3F" points="199.326,18.576 198.231,18.027 197.979,18.459 199.073,19.008 	"/>
	<polygon fill="#342E3F" points="139.965,18.3 141.189,18.372 141.227,17.874 140.014,17.802 	"/>
	
		<rect x="255.128" y="24.397" transform="matrix(0.935 -0.3546 0.3546 0.935 7.8755 92.2747)" fill="#342E3F" width="1.221" height="0.499"/>
	<polygon fill="#342E3F" points="226.907,31.371 228.118,31.579 228.186,31.084 226.992,30.88 	"/>
	<path fill="#342E3F" d="M22.535,2.749v19.68c0.038-0.442,0.266-0.863,0.66-1.127l1.564,2.563c-0.703,0.389-1.592,0.163-2.014-0.529
		c-0.128-0.21-0.192-0.439-0.209-0.669V38h280V2.749H22.535z M296.665,11.801c0.217-0.781,1.01-1.242,1.793-1.06l-0.802,2.893
		C296.891,13.386,296.448,12.582,296.665,11.801z M285.867,11.327l0.001,0.006c0.797-0.096,1.536,0.449,1.667,1.249
		c0.13,0.8-0.397,1.551-1.184,1.714l0.001,0.006l-2.581,0.421l-0.485-2.975L285.867,11.327z M270.818,15.839l0.002,0.006
		c0.773-0.216,1.587,0.209,1.838,0.98c0.171,0.527,0.031,1.073-0.312,1.459l1.109-0.369l0.192,0.58l-1.159,0.385l-0.184-0.55
		c-0.152,0.158-0.337,0.288-0.555,0.369l0.002,0.006l-0.551,0.179l0.131,0.386l-1.155,0.396l-0.139-0.403l-0.773,0.252l-0.933-2.867
		L270.818,15.839z M241.959,26.265l0.002,0.006c0.78-0.193,1.58,0.256,1.808,1.034c0.155,0.529,0,1.068-0.35,1.443l0.145-0.049
		l0.197,0.578l-1.16,0.391l-0.137-0.41l-1.171,0.343l0.144,0.449c-0.397,0.128-0.787,0.251-1.169,0.369l-0.18-0.583
		c0.057-0.018,0.119-0.038,0.176-0.056l-0.815-2.78L241.959,26.265z M238.965,27.149l0.844,2.881
		c-0.78,0.193-1.58-0.256-1.808-1.034C237.773,28.218,238.204,27.408,238.965,27.149z M210.728,23.269
		c0.334-0.739,1.189-1.073,1.934-0.774l-1.236,2.736C210.709,24.87,210.394,24.008,210.728,23.269z M196.175,15.311
		c0.363-0.725,1.231-1.024,1.964-0.695l-1.345,2.684C196.091,16.91,195.812,16.036,196.175,15.311z M195.105,16.107l1.06,0.61
		l-0.306,0.528l-1.058-0.61L195.105,16.107z M173.002,11.265c-0.401,0.069-0.797,0.147-1.185,0.232l-0.13-0.597
		c0.397-0.087,0.801-0.166,1.211-0.237L173.002,11.265z M170.171,8.419l0.002,0.006c0.776-0.206,1.584,0.23,1.825,1.004
		c0.241,0.774-0.177,1.591-0.933,1.862l0.002,0.006l-0.509,0.159l0.085,0.325c-0.395,0.104-0.782,0.215-1.162,0.332l-0.091-0.294
		l-0.82,0.255l-0.896-2.878L170.171,8.419z M115.1,22.406l0.41,0.453c-0.301,0.273-0.607,0.545-0.92,0.814l-0.398-0.463
		C114.5,22.945,114.802,22.676,115.1,22.406z M66.7,10.572c0.298-0.754,1.135-1.129,1.894-0.866l-1.102,2.792
		C66.758,12.173,66.402,11.327,66.7,10.572z M65.988,11.798c0.379,0.153,0.757,0.312,1.132,0.474l-0.242,0.56
		c-0.371-0.161-0.744-0.317-1.119-0.468L65.988,11.798z M57.038,9.338c0.227,0.031,0.453,0.064,0.679,0.1l-0.095,0.603
		c-0.203-0.032-0.406-0.062-0.61-0.09l-0.47,0.113L56.399,9.47l0.583-0.139L57.038,9.338z M23.624,21.034l2.233-1.362l0.003,0.005
		c0.703-0.389,1.592-0.163,2.014,0.529c0.422,0.692,0.216,1.587-0.451,2.033l0.003,0.005l-2.233,1.362L23.624,21.034z
		 M24.574,26.336c-0.422-0.692-0.216-1.587,0.451-2.033l1.564,2.563C25.886,27.254,24.997,27.028,24.574,26.336z M29.253,25.239
		l0.003,0.005l-2.233,1.362l-1.57-2.574l2.233-1.362l0.003,0.005c0.121-0.067,0.248-0.109,0.376-0.14l-0.334-0.428
		c0,0,0.34-0.266,1.003-0.727l0.348,0.501c-0.435,0.302-0.715,0.51-0.859,0.618c0.572-0.076,1.16,0.18,1.48,0.704
		C30.127,23.898,29.921,24.792,29.253,25.239z M31.833,20.097l-0.318-0.521c0.33-0.202,0.681-0.412,1.053-0.63l0.309,0.527
		C32.509,19.689,32.161,19.898,31.833,20.097z M33.931,18.867l-0.3-0.532c0.344-0.194,0.701-0.392,1.074-0.594l0.291,0.537
		C34.627,18.479,34.272,18.675,33.931,18.867z M36.069,17.705l-0.283-0.541c0.353-0.185,0.716-0.371,1.09-0.561l0.275,0.545
		C36.78,17.336,36.419,17.522,36.069,17.705z M42.933,17.686l0.003,0.006l-2.378,1.089l-1.232-2.69
		c-0.156,0.073-0.304,0.145-0.456,0.218l1.225,2.677c-0.744,0.303-1.6-0.026-1.938-0.764c-0.285-0.623-0.104-1.332,0.389-1.759
		c-0.1,0.048-0.205,0.097-0.304,0.145l-0.268-0.549c0.132-0.064,0.272-0.129,0.407-0.194c-0.677,0.147-1.386-0.183-1.686-0.839
		c-0.338-0.737-0.027-1.601,0.688-1.966l1.233,2.693c0.153-0.073,0.301-0.145,0.456-0.218l-1.232-2.691l2.378-1.089l0.003,0.006
		c0.744-0.303,1.6,0.026,1.938,0.764c0.337,0.737,0.027,1.601-0.688,1.966l0.003,0.006l-0.141,0.065l0.199,0.458l0.15-0.069
		l0.003,0.006c0.744-0.303,1.6,0.026,1.938,0.764C43.958,16.458,43.648,17.321,42.933,17.686z M42.676,14.603L42.44,14.04
		c0.372-0.156,0.75-0.311,1.134-0.466l0.228,0.566C43.42,14.294,43.045,14.449,42.676,14.603z M44.934,13.693l-0.22-0.57
		c0.376-0.146,0.758-0.291,1.145-0.435l0.213,0.572C45.687,13.404,45.307,13.548,44.934,13.693z M47.215,12.844l-0.205-0.575
		c0.38-0.136,0.766-0.27,1.156-0.404l0.198,0.577C47.976,12.575,47.593,12.709,47.215,12.844z M49.519,12.057l-0.19-0.581
		c0.384-0.126,0.774-0.25,1.167-0.374l0.183,0.583C50.287,11.808,49.9,11.932,49.519,12.057z M52.036,12.783
		c-0.192-0.682,0.119-1.383,0.709-1.716c-0.303,0.087-0.606,0.174-0.903,0.263l-0.174-0.585c0.287-0.086,0.58-0.17,0.872-0.254
		c-0.661,0.005-1.27-0.423-1.458-1.09c-0.22-0.78,0.219-1.586,0.982-1.837l0.815,2.889c-0.006,0.002-0.013,0.001-0.019,0.003
		L53,10.954c0.006-0.002,0.011-0.006,0.017-0.008l0.815,2.889C53.051,14.021,52.256,13.564,52.036,12.783z M56.837,12.988
		l0.002,0.006l-2.517,0.71l-0.819-2.901l0.667-0.188l-0.13-0.482l-0.673,0.19l-0.819-2.901l2.517-0.71l0.002,0.006
		c0.782-0.185,1.577,0.272,1.798,1.052c0.22,0.78-0.219,1.586-0.982,1.837l0.002,0.006L55.218,9.8l0.123,0.484l0.678-0.191
		l0.002,0.006c0.782-0.185,1.577,0.272,1.797,1.052C58.039,11.931,57.6,12.737,56.837,12.988z M59.999,10.508
		c-0.392-0.092-0.787-0.178-1.185-0.256l0.119-0.599c0.404,0.08,0.806,0.167,1.206,0.26L59.999,10.508z M62.336,11.144
		c-0.386-0.119-0.774-0.231-1.163-0.337l0.16-0.589c0.396,0.108,0.79,0.222,1.183,0.342L62.336,11.144z M64.63,11.925
		c-0.379-0.142-0.759-0.278-1.141-0.408l0.197-0.578c0.388,0.132,0.774,0.27,1.158,0.414L64.63,11.925z M65.41,13.841
		c0.298-0.754,1.135-1.129,1.894-0.866l-1.102,2.792C65.469,15.441,65.113,14.595,65.41,13.841z M70.396,13.644l-0.002,0.006
		l-1.794-0.708c0.251,0.117,0.502,0.234,0.751,0.355l-0.194,0.401l1.054,0.416l-0.002,0.006c0.028,0.012,0.051,0.03,0.077,0.044
		l0.163-0.321c0.365,0.185,0.728,0.374,1.089,0.564l-0.285,0.54c-0.113-0.06-0.228-0.118-0.342-0.177
		c0.211,0.379,0.262,0.842,0.09,1.277c-0.298,0.754-1.135,1.129-1.894,0.866l-0.002,0.006l-2.433-0.96l1.107-2.804l0.244,0.096
		l0.209-0.454l-0.27-0.107l1.107-2.804l2.433,0.96l-0.002,0.006c0.734,0.326,1.09,1.172,0.792,1.926
		C71.992,13.532,71.155,13.907,70.396,13.644z M73.388,16.116c-0.353-0.2-0.708-0.397-1.064-0.592l0.293-0.536
		c0.359,0.196,0.716,0.395,1.072,0.596L73.388,16.116z M75.501,17.337c-0.35-0.207-0.701-0.412-1.053-0.616l0.305-0.528
		c0.354,0.205,0.707,0.411,1.058,0.618L75.501,17.337z M77.599,18.594l-1.047-0.632l0.314-0.523l1.05,0.633L77.599,18.594z
		 M78.96,18.707l1.043,0.638l-0.32,0.521l-1.041-0.637L78.96,18.707z M79.77,21.661c0.371-0.629,1.127-0.881,1.791-0.649
		l-0.835-0.509l0.318-0.521l0.708,0.431c-0.439-0.475-0.542-1.194-0.197-1.78c0.412-0.698,1.298-0.938,2.006-0.559l-1.493,2.532
		l0.017,0.011l-0.316,0.522l-0.011-0.007l-1.507,2.555C79.577,23.25,79.358,22.359,79.77,21.661z M85.99,23.621
		c-0.355-0.199-0.709-0.401-1.065-0.607l0.305-0.528c0.353,0.204,0.706,0.405,1.058,0.602L85.99,23.621z M86.731,21.687
		c-0.412,0.698-1.298,0.938-2.006,0.559l-0.003,0.005l-0.569-0.336l-0.254,0.43l0.569,0.336l-0.003,0.005
		c0.674,0.437,0.893,1.328,0.481,2.026s-1.298,0.938-2.006,0.559l-0.003,0.006l-2.253-1.329l1.532-2.597l0.629,0.371l0.257-0.428
		l-0.633-0.373l1.532-2.597l2.253,1.329l-0.003,0.005C86.924,20.098,87.143,20.989,86.731,21.687z M88.147,24.788
		c-0.361-0.188-0.722-0.379-1.083-0.575l0.29-0.537c0.359,0.194,0.717,0.384,1.075,0.57L88.147,24.788z M90.35,25.872
		c-0.369-0.171-0.738-0.347-1.108-0.53l0.27-0.548c0.365,0.18,0.73,0.355,1.095,0.524L90.35,25.872z M92.611,26.84
		c-0.379-0.149-0.758-0.305-1.137-0.468l0.241-0.561c0.374,0.16,0.747,0.314,1.121,0.461L92.611,26.84z M93.969,26.693
		c0.382,0.134,0.764,0.26,1.147,0.377l-0.178,0.584c-0.391-0.119-0.781-0.248-1.171-0.385L93.969,26.693z M99.829,28.025
		l-0.055,0.608c-0.044-0.004-0.087-0.012-0.131-0.016c0.627,0.264,1.016,0.928,0.9,1.629c-0.132,0.8-0.872,1.343-1.669,1.246
		l-0.001,0.006l-2.58-0.426l0.484-2.931c-0.165-0.038-0.329-0.073-0.494-0.115l-0.488,2.957c-0.786-0.164-1.312-0.916-1.18-1.716
		c0.131-0.792,0.858-1.33,1.646-1.246c-0.046-0.011-0.091-0.02-0.137-0.032l0.131-0.508c-0.721-0.211-1.193-0.921-1.067-1.681
		c0.132-0.8,0.872-1.343,1.669-1.246l-0.474,2.868c0.164,0.042,0.329,0.076,0.494,0.115l0.48-2.906l2.58,0.426l-0.001,0.006
		c0.786,0.164,1.312,0.916,1.18,1.716c-0.112,0.678-0.663,1.168-1.313,1.243C99.812,28.023,99.821,28.025,99.829,28.025z
		 M101.574,28.716c-0.189,0-0.377-0.003-0.564-0.009l0.018-0.61c0.398,0.011,0.799,0.011,1.201-0.003l0.022,0.61
		C102.025,28.712,101.799,28.716,101.574,28.716z M103.486,28.622l-0.057-0.608c0.41-0.038,0.807-0.087,1.192-0.146l0.093,0.603
		C104.316,28.532,103.907,28.583,103.486,28.622z M105.93,28.247l-0.13-0.597c0.4-0.087,0.787-0.186,1.161-0.295l0.171,0.586
		C106.743,28.054,106.343,28.156,105.93,28.247z M108.308,27.553l-0.212-0.573c0.382-0.141,0.75-0.294,1.106-0.455l0.253,0.555
		C109.086,27.248,108.704,27.406,108.308,27.553z M110.189,28.418c-0.371-0.686-0.148-1.524,0.483-1.953
		c-0.037,0.02-0.071,0.043-0.108,0.063l-0.267-0.492c-0.676,0.217-1.43-0.062-1.78-0.709c-0.386-0.713-0.134-1.596,0.556-2.007
		l1.386,2.562c0.149-0.083,0.292-0.17,0.436-0.256l-1.38-2.552l2.3-1.244l0.003,0.006c0.722-0.352,1.599-0.08,1.984,0.633
		c0.333,0.617,0.188,1.358-0.302,1.814l0.141,0.177c-0.319,0.254-0.647,0.504-0.984,0.746l-0.21-0.292l-1.072,0.58l0.257,0.405
		c-0.285,0.18-0.582,0.351-0.883,0.519l1.424,2.632C111.452,29.403,110.575,29.131,110.189,28.418z M114.919,27.566l0.003,0.006
		l-2.3,1.244l-1.434-2.652l2.3-1.244l0.003,0.006c0.722-0.352,1.599-0.08,1.984,0.633C115.861,26.272,115.609,27.154,114.919,27.566
		z M116.413,22.033l-0.414-0.449l0.901-0.827l0.411,0.452L116.413,22.033z M118.217,20.401l-0.4-0.461
		c0.312-0.27,0.626-0.535,0.946-0.79l0.381,0.477C118.83,19.877,118.522,20.135,118.217,20.401z M120.103,18.904l-0.352-0.499
		c0.338-0.238,0.684-0.465,1.04-0.677l0.312,0.524C120.761,18.456,120.428,18.675,120.103,18.904z M122.152,17.688l-0.263-0.551
		c0.378-0.181,0.765-0.343,1.151-0.482l0.207,0.574C122.881,17.361,122.512,17.516,122.152,17.688z M123.529,18.58
		c-0.12-0.802,0.417-1.546,1.205-1.699l0.446,2.969C124.381,19.936,123.649,19.382,123.529,18.58z M128.266,19.387l0.001,0.006
		l-2.586,0.388l-0.447-2.981l1.774-0.266c-0.091,0.003-0.189-0.001-0.278,0.004l-0.026-0.463l-1.216,0.183l0.058,0.398
		c-0.395,0.058-0.787,0.135-1.164,0.229l-0.131-0.527c-0.626-0.104-1.144-0.59-1.243-1.252c-0.12-0.802,0.417-1.546,1.205-1.699
		l0.421,2.807c0.164-0.035,0.329-0.069,0.497-0.098l-0.419-2.791l2.586-0.388l0.001,0.006c0.799-0.086,1.531,0.468,1.651,1.27
		c0.12,0.802-0.417,1.546-1.205,1.699l0,0.001c0.067,0.001,0.128-0.005,0.195-0.003l-0.013,0.506
		c0.756-0.027,1.429,0.505,1.544,1.271C129.592,18.49,129.055,19.234,128.266,19.387z M130.316,16.745
		c-0.411-0.064-0.809-0.114-1.194-0.151l0.058-0.607c0.397,0.038,0.806,0.09,1.229,0.155L130.316,16.745z M132.692,17.224
		c-0.268-0.057-0.537-0.117-0.809-0.178l-0.383-0.083l0.125-0.597l0.392,0.085c0.27,0.061,0.537,0.119,0.802,0.176L132.692,17.224z
		 M135.099,17.695c-0.398-0.071-0.8-0.146-1.205-0.225l0.117-0.599c0.402,0.079,0.801,0.153,1.195,0.223L135.099,17.695z
		 M137.522,18.08c-0.4-0.056-0.805-0.116-1.214-0.181l0.096-0.603c0.405,0.065,0.805,0.125,1.201,0.179L137.522,18.08z
		 M142.216,21.446l0,0.006l-2.611-0.154l0.174-2.947c-0.166-0.017-0.335-0.036-0.503-0.055l-0.175,2.965
		c-0.799-0.081-1.401-0.774-1.353-1.584c0.044-0.752,0.636-1.331,1.363-1.4c-0.125-0.014-0.247-0.026-0.372-0.041l0.072-0.607
		c0.023,0.003,0.046,0.005,0.07,0.008c-0.573-0.24-0.964-0.813-0.925-1.468c0.048-0.809,0.727-1.427,1.53-1.413l-0.173,2.929
		c0.168,0.019,0.337,0.038,0.503,0.055l0.175-2.96l2.611,0.154l0,0.006c0.799,0.081,1.401,0.774,1.353,1.584
		c-0.048,0.809-0.727,1.427-1.53,1.413l0,0.006l-0.626-0.037c0.214,0.014,0.431,0.031,0.642,0.042l-0.027,0.503
		c0.79,0.09,1.382,0.777,1.335,1.58C143.698,20.843,143.019,21.46,142.216,21.446z M144.861,18.64
		c-0.404-0.003-0.814-0.012-1.228-0.026l0.02-0.61c0.41,0.013,0.814,0.021,1.213,0.025L144.861,18.64z M146.089,18.636l-0.01-0.611
		c0.41-0.006,0.814-0.018,1.213-0.034l0.025,0.61C146.914,18.617,146.505,18.628,146.089,18.636z M148.545,18.534l-0.041-0.609
		c0.41-0.028,0.812-0.061,1.209-0.098l0.058,0.607C149.368,18.472,148.959,18.506,148.545,18.534z M150.992,18.3l-0.075-0.606
		c0.408-0.05,0.808-0.106,1.201-0.166l0.093,0.603C151.811,18.193,151.406,18.249,150.992,18.3z M157.367,20.183l0.001,0.006
		l-2.565,0.513l-0.587-2.933c-0.164,0.034-0.329,0.067-0.496,0.099l0.586,2.927c-0.794,0.124-1.551-0.393-1.711-1.188
		c-0.151-0.755,0.295-1.48,1.008-1.715c-0.061,0.012-0.119,0.025-0.181,0.036l-0.103-0.561c-0.678-0.028-1.275-0.51-1.414-1.205
		c-0.159-0.795,0.341-1.564,1.121-1.755l0.573,2.863c0.167-0.032,0.332-0.065,0.496-0.099l-0.574-2.87l2.565-0.513l0.001,0.006
		c0.794-0.124,1.551,0.393,1.711,1.188c0.144,0.717-0.252,1.409-0.903,1.679l0.122,0.43c-0.387,0.11-0.784,0.216-1.189,0.317
		l-0.117-0.471l-1.192,0.239l0.105,0.488l2.152-0.431l0.001,0.006c0.794-0.124,1.551,0.393,1.711,1.188
		C158.647,19.223,158.147,19.992,157.367,20.183z M158.196,16.735l-0.186-0.581c0.392-0.126,0.775-0.255,1.147-0.388l0.205,0.575
		C158.984,16.475,158.595,16.608,158.196,16.735z M160.514,15.906l-0.225-0.568c0.384-0.152,0.756-0.308,1.117-0.465l0.245,0.559
		C161.284,15.592,160.905,15.751,160.514,15.906z M163.318,14.652c-0.178,0.089-0.36,0.178-0.546,0.268l-0.264-0.55
		c0.183-0.087,0.362-0.175,0.537-0.263l0.557-0.275l0.268,0.549L163.318,14.652z M164.966,13.86l-0.256-0.554
		c0.364-0.168,0.74-0.335,1.125-0.499l0.239,0.562C165.694,13.53,165.325,13.694,164.966,13.86z M166.975,12.342
		c0.111-0.043,0.229-0.084,0.342-0.126c-0.485-0.127-0.897-0.486-1.057-1.001c-0.241-0.774,0.177-1.591,0.933-1.862l0.812,2.609
		c0.043-0.015,0.083-0.031,0.126-0.046l0.202,0.576c-0.387,0.135-0.766,0.276-1.137,0.419L166.975,12.342z M167.304,14.57
		c-0.241-0.774,0.177-1.591,0.933-1.862l0.892,2.866C168.353,15.78,167.545,15.344,167.304,14.57z M172.109,14.646l0.002,0.006
		l-2.497,0.777l-0.896-2.878l2.497-0.777l0.002,0.006c0.776-0.206,1.584,0.23,1.825,1.004
		C173.283,13.558,172.865,14.375,172.109,14.646z M174.196,11.087l-0.077-0.606c0.404-0.051,0.814-0.094,1.229-0.126l0.047,0.609
		C174.99,10.995,174.59,11.037,174.196,11.087z M177.807,10.888l-0.41-0.003c-0.268,0-0.533,0.004-0.797,0.012l-0.019-0.61
		c0.269-0.009,0.541-0.013,0.815-0.013l0.42,0.003L177.807,10.888z M180.214,11.041c-0.406-0.045-0.807-0.08-1.202-0.106
		l0.039-0.609c0.406,0.026,0.816,0.062,1.231,0.108L180.214,11.041z M180.737,12.471c0.142-0.637,0.669-1.08,1.281-1.157
		c-0.203-0.037-0.408-0.079-0.609-0.111l0.096-0.603c0.315,0.05,0.636,0.112,0.957,0.174c-0.702-0.253-1.13-0.985-0.963-1.733
		c0.176-0.791,0.944-1.293,1.735-1.152l-0.646,2.908c0.044,0.009,0.088,0.015,0.132,0.024l-0.123,0.598
		c-0.048-0.01-0.094-0.016-0.142-0.026l-0.634,2.856C181.045,14.042,180.561,13.262,180.737,12.471z M187.225,12.791
		c-0.331-0.128-0.659-0.246-0.986-0.359c0.322,0.349,0.474,0.843,0.363,1.342c-0.176,0.792-0.944,1.293-1.735,1.152l-0.001,0.006
		l-2.553-0.567l0.654-2.943l0.828,0.184l0.122-0.484l-0.842-0.187l0.654-2.943l2.553,0.567l-0.001,0.006
		c0.776,0.207,1.26,0.987,1.084,1.778c-0.176,0.792-0.944,1.293-1.735,1.152l-0.001,0.006l-1.187-0.264
		c0.224,0.061,0.445,0.117,0.672,0.184l-0.132,0.447l0.539,0.12l-0.001,0.006c0.227,0.061,0.425,0.174,0.592,0.319l0.177-0.515
		c0.383,0.131,0.768,0.272,1.158,0.422L187.225,12.791z M189.449,13.747c-0.37-0.175-0.738-0.341-1.103-0.498l0.241-0.561
		c0.372,0.16,0.746,0.329,1.123,0.507L189.449,13.747z M191.608,14.852c-0.264-0.143-0.526-0.282-0.784-0.418l-0.29-0.151
		l0.279-0.544l0.296,0.155c0.259,0.136,0.522,0.277,0.788,0.42L191.608,14.852z M193.741,16.033
		c-0.359-0.203-0.714-0.402-1.064-0.596l0.296-0.534c0.352,0.195,0.708,0.394,1.069,0.598L193.741,16.033z M194.601,18.452
		c0.363-0.725,1.231-1.024,1.964-0.695l-1.345,2.684C194.517,20.051,194.238,19.177,194.601,18.452z M199.973,21.145
		c-0.363,0.725-1.231,1.024-1.964,0.695l-0.003,0.006l-2.338-1.172l1.351-2.695l0.703,0.352l-0.808-0.472l0.308-0.528l0.094,0.055
		l1.278-2.549l2.338,1.172l-0.003,0.006c0.702,0.39,0.982,1.264,0.618,1.989c-0.363,0.725-1.231,1.024-1.964,0.695l-0.003,0.006
		l-0.064-0.032l0.871,0.509l-0.308,0.528l-0.265-0.155C200.157,19.996,200.241,20.61,199.973,21.145z M202.195,20.935l-1.058-0.613
		l0.306-0.528l1.057,0.611L202.195,20.935z M204.319,22.148l-1.064-0.604l0.303-0.53l1.061,0.602L204.319,22.148z M206.454,23.339
		c-0.358-0.196-0.714-0.393-1.069-0.591l0.298-0.533c0.353,0.197,0.708,0.393,1.064,0.589L206.454,23.339z M208.606,24.498
		c-0.361-0.191-0.721-0.383-1.079-0.576l0.289-0.538c0.357,0.192,0.715,0.384,1.074,0.573L208.606,24.498z M209.282,26.472
		c0.263-0.582,0.85-0.907,1.451-0.875c-0.349-0.176-0.697-0.353-1.043-0.532l0.279-0.543c0.361,0.186,0.723,0.371,1.087,0.554
		l-0.264,0.526c0.142,0.013,0.285,0.04,0.424,0.096l-1.236,2.736C209.263,28.073,208.948,27.211,209.282,26.472z M215.22,27.722
		c-0.209-0.092-0.418-0.187-0.626-0.281c0.311,0.423,0.397,0.991,0.165,1.504c-0.334,0.739-1.189,1.073-1.934,0.774l-0.003,0.006
		l-2.384-1.076l1.241-2.747l0.272,0.123l0.199-0.404c0.365,0.179,0.732,0.356,1.099,0.53l-0.179,0.38l0.994,0.449l-0.003,0.006
		c0.041,0.021,0.077,0.049,0.115,0.073l0.179-0.391c0.369,0.17,0.74,0.336,1.111,0.498L215.22,27.722z M216.205,25.743
		c-0.334,0.739-1.189,1.073-1.934,0.774l-0.003,0.006l-2.384-1.076l1.241-2.747l2.384,1.076l-0.003,0.006
		C216.224,24.142,216.539,25.004,216.205,25.743z M217.48,28.673c-0.379-0.151-0.757-0.307-1.135-0.466l0.237-0.563
		c0.374,0.158,0.75,0.312,1.125,0.462L217.48,28.673z M219.777,29.542c-0.385-0.136-0.769-0.278-1.153-0.423l0.217-0.571
		c0.379,0.144,0.76,0.284,1.14,0.419L219.777,29.542z M222.109,30.312c-0.39-0.118-0.781-0.242-1.172-0.371l0.192-0.58
		c0.386,0.127,0.772,0.25,1.157,0.366L222.109,30.312z M223.452,30.064c0.392,0.108,0.782,0.209,1.174,0.305l-0.145,0.593
		c-0.396-0.097-0.793-0.199-1.191-0.309L223.452,30.064z M230.078,33.443c-0.137,0.799-0.88,1.338-1.676,1.236l-0.001,0.006
		l-2.578-0.441l0.494-2.886c-0.166-0.032-0.331-0.062-0.497-0.096l-0.494,2.891c-0.785-0.169-1.307-0.924-1.17-1.723
		c0.129-0.751,0.794-1.265,1.535-1.24l0.113-0.537c-0.719-0.215-1.185-0.928-1.056-1.686c0.137-0.799,0.88-1.338,1.676-1.236
		l-0.501,2.93c0.166,0.034,0.331,0.064,0.497,0.096l0.504-2.947l2.578,0.441l-0.001,0.006c0.785,0.169,1.307,0.924,1.17,1.723
		c-0.114,0.664-0.648,1.142-1.282,1.229l-0.058,0.593c-0.089-0.009-0.178-0.022-0.266-0.031
		C229.76,32.001,230.205,32.7,230.078,33.443z M231.797,31.928c-0.409-0.002-0.821-0.014-1.235-0.035l0.032-0.61
		c0.404,0.021,0.806,0.032,1.206,0.034L231.797,31.928z M233.034,31.902l-0.029-0.61c0.402-0.019,0.803-0.048,1.201-0.089
		l0.062,0.607C233.859,31.852,233.448,31.882,233.034,31.902z M235.496,31.649l-0.098-0.602c0.396-0.064,0.79-0.14,1.18-0.228
		l0.135,0.596C236.31,31.505,235.904,31.583,235.496,31.649z M237.75,30.52c0.379-0.103,0.769-0.215,1.171-0.332l0.172,0.586
		c-0.406,0.119-0.799,0.231-1.181,0.335L237.75,30.52z M238.99,32.368c-0.228-0.778,0.203-1.588,0.964-1.847l0.844,2.881
		C240.018,33.595,239.218,33.146,238.99,32.368z M243.793,32.523l0.002,0.006l-2.51,0.736l-0.848-2.893l2.51-0.736l0.002,0.006
		c0.78-0.193,1.58,0.256,1.808,1.034C244.985,31.455,244.554,32.265,243.793,32.523z M244.918,28.878l-0.2-0.576l1.152-0.405
		l0.204,0.575L244.918,28.878z M247.226,28.061l-0.207-0.575l1.148-0.415l0.209,0.574L247.226,28.061z M249.525,27.227l-0.21-0.574
		l1.147-0.421l0.212,0.573L249.525,27.227z M251.82,26.381l-0.212-0.572l1.146-0.425l0.213,0.572L251.82,26.381z M253.865,27.236
		c-0.287-0.758,0.08-1.599,0.818-1.915l1.064,2.807C254.985,28.38,254.152,27.994,253.865,27.236z M258.666,27.021l0.002,0.006
		l-2.445,0.927l-1.067-2.814l-1.044,0.389l-0.214-0.572l0.117-0.044c-0.603-0.004-1.169-0.365-1.396-0.963
		c-0.287-0.758,0.08-1.599,0.818-1.915l1.028,2.711l0.474-0.177l-1.031-2.719l2.445-0.927l0.002,0.006
		c0.762-0.253,1.595,0.133,1.882,0.891c0.287,0.758-0.08,1.599-0.818,1.915l0.002,0.006l-0.057,0.022l0.175,0.468l0.059-0.023
		l0.002,0.006c0.762-0.253,1.595,0.133,1.882,0.891C259.771,25.863,259.404,26.705,258.666,27.021z M258.692,23.821l-0.214-0.572
		l1.146-0.426l0.212,0.572L258.692,23.821z M260.982,22.971l-0.212-0.573l1.145-0.422l0.21,0.573L260.982,22.971z M263.271,22.129
		l-0.21-0.574l1.149-0.419l0.209,0.574L263.271,22.129z M265.569,21.294l-0.207-0.575l1.154-0.414l0.205,0.575L265.569,21.294z
		 M267.667,19.896l0.528-0.186c-0.563-0.067-1.064-0.45-1.251-1.025c-0.251-0.771,0.156-1.594,0.908-1.874l0.882,2.709l0.086-0.03
		l0.202,0.576l-1.152,0.405L267.667,19.896z M268.032,22.027c-0.251-0.771,0.156-1.594,0.908-1.874l0.929,2.854
		C269.096,23.223,268.283,22.798,268.032,22.027z M272.837,22.041l0.002,0.006l-2.486,0.809l-0.933-2.866l2.486-0.809l0.002,0.006
		c0.773-0.216,1.587,0.209,1.838,0.98C273.996,20.938,273.589,21.76,272.837,22.041z M274.805,18.118l-0.187-0.581
		c0.39-0.126,0.778-0.25,1.166-0.372l0.183,0.582C275.582,17.869,275.195,17.992,274.805,18.118z M277.133,17.384l-0.18-0.584
		c0.393-0.121,0.783-0.239,1.172-0.355l0.175,0.585C277.913,17.146,277.525,17.263,277.133,17.384z M279.47,16.685l-0.17-0.586
		c0.395-0.115,0.788-0.227,1.178-0.336l0.165,0.588C280.255,16.459,279.864,16.571,279.47,16.685z M282.787,11.835l0.483,2.963
		c-0.798,0.096-1.536-0.449-1.667-1.249C281.473,12.748,282.001,11.997,282.787,11.835z M282.169,17.017
		c-0.07-0.43,0.054-0.842,0.302-1.159c-0.217,0.057-0.434,0.112-0.653,0.171l-0.158-0.59c0.398-0.107,0.793-0.211,1.186-0.311
		l0.086,0.338c0.13-0.072,0.269-0.131,0.421-0.162l0.483,2.963C283.038,18.361,282.299,17.817,282.169,17.017z M286.916,17.764
		l0.001,0.006l-2.581,0.421l-0.485-2.975l0.266-0.043l-0.082-0.34c0.402-0.097,0.8-0.191,1.195-0.28l0.096,0.423l1.107-0.18
		l0.001,0.006c0.034-0.004,0.067,0,0.1-0.002l-0.106-0.507c0.406-0.085,0.809-0.165,1.205-0.239l0.113,0.6
		c-0.282,0.053-0.569,0.112-0.856,0.17c0.606,0.113,1.106,0.585,1.211,1.228C288.23,16.851,287.702,17.601,286.916,17.764z
		 M288.942,14.441l-0.099-0.602c0.412-0.068,0.818-0.13,1.217-0.185l0.082,0.605C289.749,14.312,289.349,14.373,288.942,14.441z
		 M291.345,14.11l-0.064-0.607c0.418-0.045,0.828-0.08,1.228-0.108l0.042,0.609C292.158,14.031,291.757,14.067,291.345,14.11z
		 M294.961,13.958c-0.388-0.014-0.787-0.016-1.203-0.008l-0.013-0.61c0.43-0.01,0.84-0.008,1.238,0.008L294.961,13.958z
		 M295.726,15.187c0.148-0.535,0.57-0.914,1.071-1.045c-0.028-0.005-0.053-0.013-0.081-0.018l0.096-0.603
		c0.429,0.069,0.842,0.159,1.228,0.268l-0.167,0.587c-0.125-0.035-0.268-0.056-0.399-0.087l-0.757,2.73
		C295.952,16.772,295.509,15.968,295.726,15.187z M301.516,16.793c-0.217,0.781-1.01,1.242-1.793,1.06l-0.002,0.006l-2.52-0.699
		l0.806-2.905l2.52,0.699l-0.002,0.006C301.29,15.208,301.733,16.011,301.516,16.793z M302.455,13.407
		c-0.217,0.781-1.01,1.242-1.793,1.06l-0.002,0.006l-2.52-0.699l0.805-2.905l2.52,0.699l-0.002,0.006
		C302.229,11.822,302.672,12.626,302.455,13.407z"/>
	<polygon fill="#342E3F" points="39.315,16.034 40.423,15.527 40.217,15.072 39.104,15.581 	"/>
	<polygon fill="#342E3F" points="97.343,28.19 98.561,28.391 98.634,27.898 97.443,27.701 	"/>
</g>
</svg>
